<svg height="24" width="24" xmlns="http://www.w3.org/2000/svg"><path d="M22.546 5.481c0-1.076-.37-1.973-1.109-2.69-.737-.718-1.654-1.077-2.747-1.077-1.26 0-2.359.359-3.293 1.435L4.507 13.913c-1.056 1.076-1.584 2.332-1.584 3.767 0 1.615.514 2.87 1.542 3.768 1.028 1.076 2.284 1.614 3.77 1.614 1.476 0 2.752-.538 3.826-1.614l8.48-8.432c.092-.18.139-.18.14-.359-.001-.18-.145-.359-.435-.538-.28-.359-.495-.538-.644-.538-.122 0-.23 0-.323.18l-8.493 8.431c-.738.718-1.584 1.076-2.537 1.076-.99 0-1.827-.358-2.509-.897-.682-.717-1.023-1.614-1.023-2.69 0-.898.355-1.795 1.065-2.512L16.658 4.405c.588-.718 1.266-.897 2.032-.897.598 0 1.093.18 1.486.538s.588.897.588 1.435c0 .718-.294 1.435-.882 2.153l-8.143 8.073c-.243.18-.523.359-.84.359-.272 0-.496-.18-.674-.359-.177-.18-.266-.359-.266-.538 0-.359.117-.718.35-.897l5.747-5.741c.093-.18.14-.18.14-.359s-.145-.359-.435-.538c-.29-.359-.509-.538-.658-.538-.112 0-.215 0-.309.18l-5.746 5.74c-.589.538-.883 1.256-.883 2.153 0 .717.266 1.256.799 1.794.532.538 1.182.897 1.948.897.822 0 1.518-.359 2.088-.897l8.143-8.073c.935-1.077 1.403-2.153 1.403-3.409" fill="#95a5a6"/><path d="M22.267 4.681c0-1.076-.37-1.973-1.109-2.69-.737-.718-1.654-1.077-2.746-1.077-1.262 0-2.36.359-3.294 1.435L4.228 13.113c-1.056 1.076-1.584 2.332-1.584 3.767 0 1.615.514 2.87 1.542 3.768 1.028 1.076 2.285 1.614 3.77 1.614 1.476 0 2.752-.538 3.826-1.614l8.48-8.432c.093-.18.14-.18.141-.359-.002-.18-.145-.359-.436-.538-.28-.359-.495-.538-.644-.538-.122 0-.23 0-.323.18l-8.493 8.431c-.738.718-1.584 1.076-2.537 1.076-.99 0-1.826-.358-2.509-.897-.682-.717-1.023-1.614-1.023-2.69 0-.898.355-1.795 1.065-2.512L16.38 3.605c.587-.718 1.266-.897 2.032-.897.597 0 1.092.18 1.485.538s.588.897.588 1.435c0 .718-.294 1.435-.882 2.153l-8.143 8.073c-.243.18-.523.359-.84.359-.272 0-.496-.18-.674-.359-.177-.18-.266-.359-.266-.538 0-.359.117-.718.35-.897l5.747-5.741c.093-.18.14-.18.14-.359s-.145-.359-.434-.538c-.29-.359-.51-.538-.66-.538-.111 0-.214 0-.308.18l-5.746 5.74c-.589.538-.883 1.256-.883 2.153 0 .717.266 1.256.799 1.794s1.182.897 1.948.897c.822 0 1.518-.359 2.088-.897l8.143-8.073c.935-1.077 1.403-2.153 1.403-3.409" fill="#bdc3c7"/></svg>