<svg xmlns="http://www.w3.org/2000/svg" xmlns:xlink="http://www.w3.org/1999/xlink" width="1033.17" height="1033.17" viewBox="0 0 1033.17 1033.17"><defs><path id="a" d="M0 .003h1033.167V1033.17H0z"/></defs><clipPath id="b"><use xlink:href="#a" overflow="visible"/></clipPath><path clip-path="url(#b)" fill-rule="evenodd" clip-rule="evenodd" d="M1028.25 516.64c0 282.51-229.02 511.53-511.53 511.53-282.512 0-511.532-229.02-511.532-511.53S234.208 5.107 516.718 5.107c282.512 0 511.532 229.02 511.532 511.53"/><circle clip-path="url(#b)" fill="none" stroke="#000" stroke-width="10" stroke-miterlimit="10" cx="516.719" cy="516.639" r="511.531"/><text transform="rotate(36.404 -1268.657 785.664)" font-family="'RobotoSlab-Regular'" font-size="72.474"></text><g><defs><path id="c" d="M0 .003h1033.167V1033.17H0z"/></defs><clipPath id="d"><use xlink:href="#c" overflow="visible"/></clipPath><path clip-path="url(#d)" fill-rule="evenodd" clip-rule="evenodd" fill="#FFF" d="M925.077 516.64c0 225.53-182.828 408.357-408.358 408.357S108.36 742.17 108.36 516.64s182.83-408.36 408.36-408.36 408.357 182.83 408.357 408.36"/><circle clip-path="url(#d)" fill="none" stroke="#000" stroke-width="10" stroke-miterlimit="10" cx="516.719" cy="516.639" r="408.358"/></g><g><path fill="#FFF" d="M274.063 940.552c-3.063-.636-8.928-2.19-14.788-5.775-6.57-4.02-10.954-9.005-12.72-15.663-1.53-5.892-.3-13.106 3.837-19.87 7.986-12.903 22.667-16.93 37.22-8.024 5.024 3.074 8.282 6.573 9.6 8.617l-4.152 3.744c-1.687-2.448-4.073-5.058-8.452-7.738-10.562-6.463-21.472-4.11-28.132 6.772-6.74 11.012-4.087 21.576 6.024 27.764 3.67 2.246 6.498 3.268 8.18 3.41l7.92-12.943-8.822-5.398 2.76-4.508 14.296 8.747-12.77 20.865zM306.623 941.097c-3.63 8.22.026 13.985 6.058 16.77 4.32 1.996 7.272 2.445 9.977 2.53l-.966 4.793c-2.567-.02-6.707-.604-11.984-3.042-10.213-4.718-13.21-14.253-8.586-24.26s14.16-15.166 23.823-10.7c10.83 5.002 9.306 15.86 6.487 21.96-.57 1.233-1.15 2.13-1.503 2.715l-23.304-10.766zm19.678 3.852c1.843-3.808 2.953-10.53-3.832-13.666-6.1-2.817-11.37 1.567-13.78 5.526l17.613 8.14zM348.52 949.434c1.227-3.57 2.16-6.52 2.927-9.45l5.57 1.912-1.605 5.835.143.05c2.842-2.696 7.944-4.536 13.657-2.574 4.784 1.644 11.23 7.05 7.157 18.904l-7.09 20.637-6.283-2.16 6.843-19.92c1.914-5.57 1.437-10.924-4.49-12.96-4.142-1.422-8.36.402-10.634 3.532-.555.687-1.065 1.71-1.434 2.78l-7.138 20.78-6.284-2.16 8.66-25.206zM407.342 946.498l-2.582 10.173 9.22 2.342-1.243 4.902-9.22-2.34-4.848 19.1c-1.116 4.39-.503 7.195 3.083 8.104 1.683.428 2.982.524 3.843.51l-.933 4.902c-1.374.197-3.443.062-5.93-.57-3-.762-5.175-2.325-6.267-4.472-1.346-2.367-1.206-5.682-.147-9.852l4.902-19.32-5.49-1.393 1.246-4.903 5.488 1.394 2.155-8.488 6.722-.088zM426.345 944.226l6.52 1.28-10.32 52.603-6.52-1.28 10.32-52.604zM446.302 985.033c-.93 8.94 4.322 13.3 10.918 14.1 4.722.57 7.67.09 10.27-.658l.553 4.86c-2.45.766-6.568 1.484-12.34.785-11.167-1.352-16.95-9.505-15.624-20.447 1.324-10.943 8.813-18.783 19.382-17.504 11.842 1.433 13.73 12.233 12.92 18.904-.162 1.35-.44 2.38-.596 3.045l-25.484-3.087zm19.91-2.38c.583-4.188-.426-10.927-7.846-11.825-6.67-.808-10.338 4.985-11.417 9.494l19.262 2.332zM488.815 980.623c-.02-3.774-.115-6.87-.358-9.888l5.813-.033.336 5.887.227-.003c2.018-3.484 5.397-6.75 11.437-6.785 4.983-.028 8.775 2.97 10.386 7.265h.15c1.12-2.046 2.547-3.64 4.05-4.78 2.18-1.675 4.592-2.595 8.064-2.614 4.832-.028 12.02 3.102 12.095 15.785l.124 21.518-6.493.037-.12-20.688c-.04-7.02-2.63-11.232-7.99-11.202-3.776.02-6.705 2.832-7.818 6.084a10.934 10.934 0 0 0-.51 3.325l.13 22.574-6.494.037-.126-21.896c-.033-5.813-2.624-10.024-7.683-9.996-4.152.025-7.153 3.364-8.19 6.69-.372.984-.518 2.118-.51 3.25l.126 22.047-6.493.037-.155-26.65zM584.65 1002.35l-1.152-4.49-.225.03c-1.628 3.12-5.168 6.197-10.33 6.907-7.328 1.008-11.778-3.637-12.5-8.873-1.202-8.752 5.917-14.61 19.915-16.457l-.103-.748c-.412-2.993-1.976-8.265-9.38-7.247-3.366.463-6.737 1.994-9.055 3.99l-2.093-4.133c2.725-2.355 6.888-4.225 11.45-4.854 11.07-1.52 14.802 5.662 15.8 12.917l1.862 13.54c.432 3.14 1.003 6.187 1.79 8.592l-5.98.825zm-3.515-18.342c-7.2.84-15.18 3.232-14.212 10.262.587 4.264 3.707 5.893 7.072 5.43 4.713-.648 7.294-4.05 7.918-7.263.133-.704.18-1.472.086-2.146l-.865-6.282zM610.43 971.31c-.904-3.663-1.72-6.65-2.664-9.528l5.717-1.413 1.814 5.773.147-.037c.926-3.807 4.215-8.12 10.08-9.568 4.91-1.213 13.258-.164 16.264 12.002l5.234 21.184-6.45 1.594-5.053-20.45c-1.414-5.718-4.717-9.956-10.8-8.454-4.252 1.05-6.808 4.872-7.02 8.734-.094.88.03 2.016.302 3.115l5.27 21.328-6.448 1.595-6.393-25.874zM662.97 977.99c2.275.562 6.003.7 9.14-.397 4.56-1.595 5.9-4.623 4.904-7.475-1.046-2.993-3.4-4.01-8.63-4.102-6.975-.04-11.093-2.44-12.537-6.573-1.944-5.56.95-11.69 8.363-14.282 3.492-1.22 6.906-1.292 9.23-.825l.026 5.11c-1.653-.382-4.547-.65-7.754.47-3.706 1.296-5.025 4.156-4.128 6.723.996 2.85 3.512 3.41 8.6 3.55 6.784.19 10.895 2.11 12.688 7.243 2.118 6.06-1.09 11.98-9.286 14.845-3.778 1.32-7.594 1.615-10.516 1.037l-.1-5.323zM702.845 949.166l.138-.063c.288-1.544.795-3.52 1.22-5.127l4.494-15.93 7.277-3.333-6.576 19.54 23.584 12.862-7.345 3.365-18.76-10.672-1.516 4.848 5.726 12.492-5.972 2.736-22.332-48.732 5.972-2.736 14.09 30.75zM723.604 901.646l5.81-3.223 26.004 46.877-5.81 3.223-26.004-46.877zM792.01 910.88c2.08 3.15 3.975 5.88 5.745 8.15l-4.916 3.245-3.602-4.77-.126.082c.174 3.416-.918 8.75-6.337 12.328-4.788 3.162-12.27 4.3-19.34-6.41l-11.775-17.83 5.544-3.66 11.15 16.885c3.827 5.797 8.17 8.54 13.21 5.21 3.72-2.455 4.596-6.743 3.98-9.866-.225-1.027-.7-2.16-1.367-3.168l-12.356-18.713 5.545-3.66 14.646 22.177zM813.566 907.78c-1.472-2.016-3.713-4.964-5.782-7.465l-28.15-34.036 5.063-4.187 14.628 17.687.116-.097c-.794-4.633.78-9.363 5.317-13.117 6.982-5.774 16.74-4.046 23.756 4.555 8.324 10.065 6.12 20.314-.163 25.51-4.073 3.37-8.63 4.493-13.804 2.503l-.174.143 3.615 4.85-4.42 3.654zm-4.04-15.666c.53.64 1.174 1.184 1.77 1.67 3.925 2.73 8.914 2.72 12.638-.36 5.352-4.426 4.943-11.436-.398-17.895-4.668-5.644-11.57-8.067-17.04-3.544-3.49 2.887-4.775 7.968-2.6 12.73.366.68.77 1.522 1.442 2.336l4.187 5.062zM169.797 239.25c3.264-1.014 7.188-3.238 10.133-6.613 4.367-5.005 4.277-10.237.452-13.574-3.543-3.092-7.335-2.834-13.77.565-7.593 4.272-14.136 5.3-19.48.636-5.904-5.154-6.02-13.875.408-21.242 3.387-3.88 6.74-5.908 9.17-6.76l2.814 4.834c-1.754.648-5.088 2.197-8.082 5.628-4.516 5.174-3.14 9.842-.553 12.1 3.542 3.09 7.298 2.307 13.887-1.156 8.07-4.25 14.01-4.814 19.578.045 5.85 5.104 7.13 13.853-.673 22.795-3.19 3.656-7.744 6.716-10.86 7.563l-3.025-4.82zM180.995 170.583c1.62 1.547 1.7 3.977-.164 5.806-1.65 1.62-4.08 1.488-5.646-.11-1.62-1.653-1.647-4.134.06-5.806 1.757-1.725 4.13-1.544 5.75.11zm27.17 38.172l-25.29-25.802 4.692-4.598 25.29 25.802-4.692 4.598zM214.844 178.968c5.85 6.687 12.543 5.818 17.56 1.578 3.59-3.036 5.228-5.493 6.435-7.882l3.89 2.868c-1.092 2.292-3.343 5.758-7.732 9.47-8.494 7.18-18.29 5.88-25.326-2.442s-7.674-19.024.364-25.818c9.007-7.614 18.1-1.713 22.388 3.36.868 1.026 1.43 1.92 1.805 2.482l-19.386 16.384zm11.674-16.024c-2.643-3.24-8.203-7.043-13.847-2.273-5.072 4.29-3.345 10.844-.805 14.658l14.653-12.384zM254.897 167.463c-1.264-2.12-3.2-5.227-5.008-7.88l-24.59-36.086 5.368-3.657 12.777 18.753.123-.084c-.357-4.635 1.626-9.148 6.438-12.426 7.402-5.044 16.85-2.448 22.967 6.662 7.27 10.672 4.162 20.56-2.5 25.098-4.318 2.942-8.908 3.63-13.818 1.195l-.186.125 3.114 5.103-4.687 3.195zm-2.54-15.793c.462.68 1.048 1.273 1.59 1.806 3.613 3.05 8.524 3.496 12.473.805 5.675-3.866 5.916-10.804 1.25-17.65-4.076-5.984-10.65-9.003-16.448-5.052-3.7 2.522-5.433 7.405-3.727 12.295.297.7.616 1.567 1.205 2.43l3.656 5.367zM291.022 123.886c4.33 7.758 11.06 8.3 16.847 5.194 4.144-2.223 6.255-4.286 7.933-6.372l3.21 3.615c-1.546 2.015-4.468 4.938-9.533 7.655-9.802 5.257-19.114 1.95-24.265-7.653-5.152-9.604-3.553-20.203 5.723-25.18 10.394-5.573 18.06 2.088 21.2 7.942.636 1.185.998 2.176 1.25 2.803l-22.366 11.996zm14.75-13.247c-1.91-3.72-6.56-8.596-13.07-5.103-5.855 3.14-5.527 9.91-3.836 14.17l16.905-9.068zM323.797 96.132c-1.418-3.453-2.65-6.255-3.992-8.932l5.386-2.213 2.615 5.382.138-.058c.353-3.856 2.943-8.552 8.467-10.82 4.626-1.9 12.94-2.09 17.65 9.372l8.197 19.955-6.076 2.495-7.913-19.265c-2.212-5.386-6.06-9.05-11.79-6.696-4.004 1.645-5.948 5.752-5.594 9.562.036.872.323 1.965.748 3l8.256 20.093-6.076 2.495-10.013-24.373zM374.014 97.458c2.227.65 5.902.94 9.045-.013 4.57-1.387 6.02-4.322 5.154-7.18-.91-3-3.194-4.102-8.357-4.408-6.886-.33-10.855-2.87-12.11-7.014-1.69-5.57 1.424-11.508 8.852-13.76 3.5-1.063 6.874-.994 9.15-.437l-.186 5.05c-1.617-.446-4.464-.83-7.678.144-3.715 1.126-5.137 3.897-4.356 6.47.866 2.856 3.328 3.514 8.348 3.864 6.694.466 10.676 2.535 12.235 7.678 1.842 6.072-1.573 11.788-9.788 14.28-3.786 1.147-7.568 1.28-10.43.588l.12-5.262zM412.464 75.91c1.938 8.67 8.232 11.108 14.666 9.784 4.606-.948 7.22-2.324 9.42-3.845l2.046 4.38c-2.056 1.49-5.69 3.458-11.32 4.617-10.893 2.243-18.875-3.582-21.073-14.256-2.198-10.673 2.358-20.375 12.667-22.5 11.552-2.377 16.715 7.153 18.055 13.66.27 1.315.336 2.37.398 3.042l-24.86 5.118zm17.914-8.49c-.77-4.11-3.834-10.108-11.072-8.618-6.507 1.34-8.123 7.922-7.717 12.487l18.788-3.87zM479.904 80.904c-1.61 1.075-5.267 2.672-10.09 3.194-10.836 1.173-18.682-5.41-19.87-16.394-1.197-11.058 5.506-19.892 17.23-21.16 3.86-.418 7.378.176 9.255.874l-.94 5.207c-1.653-.722-4.19-1.273-7.753-.887-8.238.892-12.033 7.46-11.222 14.954.9 8.312 6.797 12.854 13.922 12.083 3.71-.4 6.055-1.63 7.822-2.648l1.644 4.777zM494.362 28.005l6.568-.067.23 22.542h.148c1.026-1.878 2.65-3.537 4.655-4.677 1.93-1.14 4.236-1.91 6.698-1.935 4.854-.05 12.647 2.857 12.773 15.323l.22 21.498-6.568.067-.212-20.75c-.06-5.822-2.274-10.727-8.47-10.664-4.254.044-7.583 3.064-8.74 6.66-.364.898-.43 1.87-.416 3.14l.222 21.794-6.57.067-.538-52.995zM539.514 74.464c1.828 1.427 5.14 3.053 8.41 3.326 4.762.398 7.193-1.795 7.44-4.77.263-3.126-1.454-4.992-6.14-7.182-6.28-2.848-9.03-6.674-8.67-10.988.486-5.802 5.57-10.17 13.307-9.523 3.647.306 6.758 1.614 8.666 2.973l-2.034 4.624c-1.34-1.01-3.844-2.42-7.19-2.7-3.868-.322-6.212 1.73-6.436 4.406-.25 2.976 1.796 4.495 6.333 6.672 6.048 2.903 8.986 6.296 8.538 11.65-.53 6.323-5.813 10.376-14.365 9.66-3.943-.33-7.508-1.602-9.912-3.3l2.054-4.848zM608.197 80.19c-.66 3.674-1.17 6.92-1.45 9.75l-5.73-1.03.677-5.87-.147-.026c-2.204 2.562-6.626 5.634-12.944 4.497-5.584-1.003-11.713-5.292-9.467-17.78l3.74-20.792 6.465 1.163-3.54 19.69c-1.217 6.76.02 11.684 5.898 12.74 4.334.78 7.89-1.69 9.58-4.343.537-.89.97-2.025 1.182-3.2l3.926-21.82 6.465 1.163-4.653 25.86zM628.518 67.71c1.043-3.583 1.827-6.54 2.447-9.472l5.59 1.628-1.312 5.838.144.042c2.68-2.796 7.633-4.853 13.366-3.184 4.802 1.398 11.42 6.435 7.958 18.332l-6.03 20.713-6.306-1.836 5.82-19.995c1.628-5.59.906-10.854-5.043-12.586-4.156-1.21-8.236.788-10.334 3.987-.517.705-.973 1.738-1.286 2.813l-6.07 20.855-6.308-1.836 7.366-25.3zM714.378 69.308l-16.693 40.35c-1.228 2.967-2.558 6.375-3.29 8.737l-5.45-2.254 2.12-5.907-.137-.058c-3.403 2.954-8.643 4.1-14.093 1.845-8.07-3.34-11.452-12.735-7.257-22.875 4.523-11.135 14.246-15.11 22.387-11.742 5.104 2.11 7.554 5.953 7.957 9.27l.14.06 8.246-19.936 6.07 2.51zm-18.142 26.665c.314-.76.674-1.822.78-2.666.702-4.234-1.296-8.776-5.85-10.66-6.276-2.597-12.284 1.38-15.337 8.762-2.798 6.76-1.798 13.716 4.755 16.426 4.07 1.684 8.908.535 11.895-3.56.55-.744.96-1.543 1.36-2.51l2.396-5.793zM762.44 93.87l-21.067 38.25c-1.548 2.813-3.247 6.052-4.238 8.318l-5.166-2.846 2.762-5.636-.13-.072c-3.71 2.56-9.045 3.115-14.21.27-7.65-4.212-9.97-13.927-4.676-23.538 5.73-10.563 15.835-13.436 23.55-9.187 4.84 2.664 6.85 6.754 6.883 10.096l.13.072 10.406-18.896 5.753 3.17zm-20.987 24.49c.396-.72.87-1.736 1.07-2.564 1.168-4.13-.314-8.865-4.63-11.242-5.95-3.277-12.36.01-16.215 7.006-3.528 6.408-3.308 13.433 2.903 16.854 3.86 2.124 8.795 1.52 12.218-2.22.628-.678 1.125-1.426 1.63-2.34l3.025-5.494zM765.465 128.77c2.363-3.538 4.334-6.62 6.014-9.538l4.778 3.194-3.754 6.02.248.166c4.063-3.12 9.052-3.468 12.713-1.02.62.414 1.014.766 1.427 1.22l-3.442 5.152c-.475-.497-.992-.933-1.737-1.43-3.848-2.57-8.528-1.48-12.01 2.12-.622.66-1.327 1.447-1.948 2.377l-10.7 16.014-5.4-3.608 13.81-20.666zM784.945 151.926c-5.242 7.174-2.926 13.514 2.31 17.48 3.75 2.838 6.508 3.895 9.103 4.548l-1.945 4.426c-2.476-.563-6.352-2-10.934-5.47-8.868-6.712-9.75-16.554-3.173-25.243s16.877-11.658 25.27-5.307c9.402 7.12 5.64 17.283 1.63 22.58-.81 1.07-1.56 1.814-2.024 2.305l-20.238-15.32zm18.194 7.875c2.583-3.286 5.073-9.546-.82-14.007-5.296-4.01-11.312-.885-14.476 2.43L803.14 159.8zM805.77 190.458l24.264-26.767 4.867 4.413-24.265 26.766-4.866-4.412zm36.502-29.375c-1.45 1.71-3.868 1.935-5.806.18-1.713-1.555-1.727-3.985-.223-5.646 1.555-1.714 4.03-1.888 5.8-.283 1.826 1.654 1.783 4.035.23 5.75zM821.224 204.232l24.497-23.2c6.18-5.85 11.034-7.673 15.46-7.34 3.795.313 7.18 2.042 10.31 5.35 4.878 5.147 5.885 12.726-.022 18.32-1.897 1.797-4.193 2.737-5.625 2.962-3.34-1.464-6.242-1.49-8.086.256-1.842 1.745-1.955 3.906-2.098 7.23-.116 4.22-.288 8.598-4.19 12.293-5.094 4.825-12.107 4.477-17.805-1.54-1.898-2.005-3.627-4.48-4.303-6.823l4.453-2.57a13.87 13.87 0 0 0 3.227 5.578c3.285 3.47 7.09 3.36 9.583 1 2.276-2.156 2.87-4.568 2.812-8.213.012-4.33.17-8.18 3.205-11.055 2.764-2.617 6.79-3.14 11.234-1.488.907-.346 1.87-.848 2.792-1.72 3.74-3.542 3.753-7.872.57-11.232-3.952-4.173-9.087-3.732-16.782 3.556l-24.715 23.406-4.516-4.77zM852.178 238.17l28.06-22.76 4.138 5.102-28.06 22.76-4.138-5.1zm40.55-23.473c-1.69 1.468-4.117 1.322-5.764-.707-1.457-1.797-1.1-4.202.64-5.613 1.796-1.457 4.27-1.252 5.774.603 1.552 1.913 1.15 4.258-.65 5.717zM912.665 259.293a159.672 159.672 0 0 0-8.35 5.382l-17.28 11.888c-6.826 4.696-11.94 6.22-16.51 5.105-4.695-1.028-8.434-4.618-11.014-8.37-2.452-3.566-4.3-8.096-4.35-11.594l5.052-1.48c.123 2.813 1.13 6.65 3.67 10.34 3.807 5.535 9.49 7.605 16.992 2.443l3.32-2.284-.084-.123c-3.91.243-8.322-1.43-11.496-6.044-5.076-7.38-2.44-16.984 5.8-22.652 10.085-6.938 20.33-4.293 25.027 2.533 3.555 5.167 2.795 9.857 1.223 12.84l.085.124 4.66-2.842 3.257 4.735zm-15.597 2.485c.924-.635 1.68-1.247 2.248-2 2.46-3.143 3.225-7.564.518-11.5-3.555-5.166-10.46-5.852-17.347-1.113-5.843 4.02-8.67 10.313-4.65 16.155 2.283 3.32 6.447 4.896 10.695 3.696 1.134-.328 2.264-.924 3.187-1.56l5.348-3.678z"/></g><g><defs><path id="e" d="M0 .003h1033.167V1033.17H0z"/></defs><clipPath id="f"><use xlink:href="#e" overflow="visible"/></clipPath><path clip-path="url(#f)" fill-rule="evenodd" clip-rule="evenodd" d="M687.575 522.088c22.022 4.413 44.114 8.497 66.01 13.526 4.134.945 10.577 5.92 10.367 8.58-.35 4.21-4.595 9.863-8.644 11.69-15.228 6.85-30.596 14.283-46.72 18.156-108.57 26.112-216.245 21.4-321.79-14.73-27.12-9.274-52.17-24.852-77.58-38.616-4.778-2.584-6.823-10.24-10.13-15.557 5.408-3.074 10.647-8.384 16.265-8.84 20.747-1.646 41.635-2.22 62.453-2.073 8.84.063 12.636-2.08 14.947-11.15 24.712-97.01 24.74-194.46 5.786-292.223-1.78-9.143.32-13.23 9.16-14.152 17.484-1.807 34.953-4.608 52.478-5.1 93.4-2.65 184.514 10.144 272.435 42.58 7.887 2.905 15.2 7.325 23.717 11.493-49.983 92.66-77.386 189.585-77.567 294.555 4.007.854 6.402 1.38 8.812 1.863m-19.823-302.55c-2.48-.227-7.173 5.726-8.097 9.502-13.407 54.313-28.285 108.38-38.778 163.282-8.488 44.458-11.612 89.93-17.02 134.978-.617 5.21-.59 10.5-1.05 19.416 14.092-2.62 26.728-4.476 39-7.628 2.578-.672 5.534-6.06 5.618-9.35 2.998-103.8 24.838-203.4 65.73-298.83.46-1.052.238-2.387.405-4.737-15.283-2.374-30.482-5.246-45.808-6.632"/><path clip-path="url(#f)" d="M592.02 691.88c16.44-18.522 11.73-42.108-1.65-54.34-13.843-12.656-35.63-13.102-49.998-.753-14.514 12.473-17.31 33.977-6.588 49.818 9.812 14.496 31.77 23.074 52.268 10.164l4.76 2.66 3.076-5.407-1.867-2.144m-14.447-60.246c5.257 1.174 9.485 4.074 13.062 8.065-.215.235-.434.47-.647.704a31691.8 31691.8 0 0 1-12.936-7.91c.172-.287.346-.574.52-.86m-36.156 58.536c4.395 2.682 8.787 5.364 13.18 8.048-5.797-.37-10.13-3.203-13.18-8.048m23.483 6.208c-16.993.016-30.958-13.876-30.997-30.84-.043-17.24 13.843-31.203 31.023-31.197 17.135.01 31.213 14.137 31.104 31.214-.107 16.886-14.165 30.807-31.13 30.824m48.723 9.636c.063 3.046-2.016 4.644-4.817 4.827-4.286.276-8.6.134-12.896.293-2.134.082-4.863-.745-5.503 2.322-.056.262 3.417 1.712 5.305 1.84 5.362.368 7.09 1.837 7.244 7.088.074 2.53.162 5.074-.06 7.587-.09.994-1.003 1.914-1.544 2.868-.472-1.01-1.278-2-1.357-3.038-.195-2.646-.093-5.313-.06-7.972.028-2.366-1.05-3.488-3.46-3.428-1.512.043-3.07.085-4.53-.225-2.604-.554-4.983-1.734-4.943-4.86.045-3.29 2.462-4.68 5.298-4.857 4.54-.284 9.11-.04 13.654-.273 1.64-.082 3.237-.896 4.852-2.26-6.73-2.565-14.53-.987-19.993-6.493 1.024-1.803 2.05-3.605 3.075-5.408.618 6.26 4.968 7.24 10.097 7.19 1.51-.018 3.033.092 4.54.246 2.78.282 5.032 1.45 5.098 4.554"/><path clip-path="url(#f)" fill-rule="evenodd" clip-rule="evenodd" d="M644.986 775.396c.03-.516.477-6.963-2.08-4.58-11.826 10.988-29.44 18.913-46.876 12.043-14.39-5.645-22.124-15.3-29.73-25.97-14.42-20.202-41.008-43.502-68.987-33.062-10.127 3.768-18.67 12.12-23.637 21.72-3.276-10-10.11-18.882-18.87-23.204-22.476-11.113-46.218 7.774-59.042 23.448-6.477 7.92-12.72 14.778-22.384 17.46-11.093 3.1-20.036-4.84-25.183-14.026-1.08-1.948-1.527 2.733-1.56 3.107-.27 2.874-.598 5.755-.634 8.63-.09 7.144 1.94 14.042 5.312 20.224 5.563 10.154 16.526 19.654 27.58 23.26 25.224 8.24 75.78-2.254 92.292-29.416 12.053 30.682 69.234 57.118 106.558 56.693 18.026-.198 38.57-8.037 50.92-19.235 7.748-7.022 13.353-15.604 15.13-25.256.72-3.896.915-7.878 1.19-11.836"/></g></svg>