<?xml version="1.0" encoding="UTF-8" standalone="no"?>
<!-- Created with Inkscape (http://www.inkscape.org/) -->

<svg
   width="30.467731mm"
   height="38.324703mm"
   viewBox="0 0 30.467731 38.324703"
   version="1.1"
   id="svg5"
   inkscape:version="1.1.1 (c3084ef, 2021-09-22)"
   sodipodi:docname="albania.svg"
   xmlns:inkscape="http://www.inkscape.org/namespaces/inkscape"
   xmlns:sodipodi="http://sodipodi.sourceforge.net/DTD/sodipodi-0.dtd"
   xmlns="http://www.w3.org/2000/svg"
   xmlns:svg="http://www.w3.org/2000/svg">
  <sodipodi:namedview
     id="namedview7"
     pagecolor="#ffffff"
     bordercolor="#666666"
     borderopacity="1.0"
     inkscape:pageshadow="2"
     inkscape:pageopacity="0.0"
     inkscape:pagecheckerboard="0"
     inkscape:document-units="mm"
     showgrid="false"
     inkscape:zoom="1.8116734"
     inkscape:cx="99.355656"
     inkscape:cy="126.12649"
     inkscape:window-width="1312"
     inkscape:window-height="969"
     inkscape:window-x="1748"
     inkscape:window-y="93"
     inkscape:window-maximized="0"
     inkscape:current-layer="layer1" />
  <defs
     id="defs2" />
  <g
     inkscape:label="Layer 1"
     inkscape:groupmode="layer"
     id="layer1">
    <path
       style="fill:#000000;stroke:none;stroke-width:0.0846667"
       d="m 12.484786,14.732 c 0.01016,0.478959 0.335958,1.139106 0.0823,1.584452 -0.462703,0.812377 -1.368552,1.014646 -1.340696,2.140882 0.03361,1.36144 1.140375,1.479465 1.666578,2.459905 0.347218,0.646938 0.231056,1.719665 0.484632,2.450761 0.685208,1.975697 2.760219,3.363045 4.610524,1.761998 1.151043,-0.996018 1.256623,-2.70383 1.085088,-4.132664 -0.114808,-0.956395 -1.034542,-1.921087 0.269579,-2.370667 0.577849,1.722205 1.943269,3.037755 2.855639,4.572 0.16611,0.2794 0.74108,1.442043 1.1645,1.129284 0.30302,-0.223774 0.37906,-0.73025 0.55948,-1.044617 0.61798,-1.077214 1.31648,-2.54508 1.3661,-3.81 0.0256,-0.652526 -0.24232,-1.677162 -0.045,-2.278042 0.12759,-0.38862 0.75099,-0.576241 1.02548,-0.869357 0.62196,-0.664295 0.71729,-1.500463 0.60918,-2.355935 -0.19897,0.01041 -0.52502,-0.03946 -0.66379,0.136652 -0.38092,0.483701 -0.0585,1.806956 -1.02794,1.843448 -0.40589,0.01532 -0.52586,-0.599949 -0.66074,-0.879433 -0.33367,-0.69105 -1.24536,-1.464395 -2.04656,-0.940308 -1.3622,0.891032 -0.007,3.411135 1.43569,3.141641 0.42147,1.326727 0.26814,2.706201 -0.254,3.979334 H 23.4915 c -0.63636,-1.4224 -1.7173,-2.57573 -2.38472,-3.979334 -0.22412,-0.471254 -0.14114,-1.482682 -0.59792,-1.782149 -0.3186,-0.208788 -0.6107,0.07976 -0.755648,0.350436 -0.367877,0.68707 -0.885359,1.857079 -1.677077,2.154259 -0.321056,0.120565 -0.515197,-0.24384 -0.6985,-0.444077 -0.36449,-0.398441 -0.845651,-0.783929 -1.336802,-1.015153 -0.352976,-0.166201 -0.78613,-0.159512 -1.063583,-0.471932 -0.274066,-0.308526 -0.37211,-1.47718 -0.152315,-1.831764 0.307932,-0.496993 0.854879,-0.702818 0.872236,-1.362287 0.02345,-0.887476 -0.966894,-0.877062 -1.185503,-1.609005 C 13.974756,9.462516 14.056206,7.492915 13.498676,5.672667 13.311393,5.061034 13.23841,4.098374 12.484792,3.979333 v -0.254 C 15.550403,4.106333 21.0926,4.148497 21.62879,0 21.13815,0.127592 20.80355,0.517652 20.35879,0.747268 19.467253,1.207685 18.484442,1.571413 17.480126,1.678601 13.99279,2.05088 10.295397,1.109726 6.8967917,2.2109 c -1.303697,0.422487 -2.578184,0.903563 -3.456499,2.033355 -1.503968,1.934549 -1.912443,4.692566 -0.860459,6.928443 0.297942,0.633222 0.693826,1.113282 1.180956,1.610699 0.176056,0.179832 0.587451,0.477858 0.544102,0.766572 -0.09965,0.663871 -1.045557,1.507659 -1.376985,2.114635 -0.764422,1.399878 -1.092302,3.607985 -0.686545,5.163396 0.494512,1.895687 1.322569,3.499104 2.760167,4.864439 0.440013,0.417915 1.426295,0.938446 1.004401,1.650746 -0.237067,0.400135 -0.602742,0.32131 -0.986198,0.20193 -0.945388,-0.294386 -1.869397,-0.416814 -2.864273,-0.291422 -0.469256,0.05918 -0.882811,0.351366 -1.35466697,0.347641 -0.534653,0.639318 -1.323492,1.573699 -0.312928,2.267881 1.09457097,0.751925 2.57591597,0.419524 3.74836297,0.156972 0.424519,-0.095 1.101683,-0.724069 1.520275,-0.422994 0.400642,0.28812 0.77453,1.156462 0.729572,1.638804 -0.06655,0.71357 -0.542713,1.43174 -0.755904,2.11667 -0.342815,1.10109 -0.334264,2.46152 0.0072,3.556 0.301244,0.96581 1.292606,1.94251 2.245614,1.07277 1.377611,-1.25714 1.181439,-4.09477 0.785114,-5.72944 -0.13843,-0.57082 -0.808567,-1.82287 -0.498433,-2.333494 1.103207,-1.816778 3.1539183,-0.130218 4.8077973,-0.102362 0.912622,0.01541 2.049272,-0.316061 1.934888,-1.458807 -0.179409,-1.791885 -2.983654,-1.417066 -4.136221,-1.167469 -0.322496,0.06985 -0.689102,0.305986 -1.0160003,0.296249 -0.54864,-0.01634 -1.249172,-0.807889 -1.614594,-1.175512 -0.671914,-0.675725 -0.119041,-1.697398 0.05707,-2.525268 0.446786,-2.100326 0.397764,-4.300051 0.600794,-6.434667 0.05275,-0.554905 -0.184488,-1.721866 0.17416,-2.17441 0.224874,-0.283718 0.719243,-0.196257 1.0365743,-0.196257 0.781388,0 1.621112,-0.02582 2.370666,-0.254 M 1.2246577,28.701902 c 0.01347,-0.932434 2.153073,-0.775547 2.708808,-0.636355 0.219202,0.05495 0.727541,0.177208 0.732705,0.47388 0.0054,0.305392 -0.516382,0.394292 -0.732705,0.445854 -0.474345,0.11303 -2.721957,0.626618 -2.708808,-0.283379 M 12.484792,3.979333 12.221672,3.961063 c -1.871218,0.526034 -3.2240383,1.72776 -3.7834303,3.658922 -0.242147,0.835914 -0.399119,1.761744 -0.501312,2.624667 -0.04674,0.395054 0.06723,0.908219 -0.18144,1.250696 -0.255863,0.352213 -1.055455,0.541951 -1.451356,0.724492 -0.26924,0.124122 -0.631444,0.404114 -0.931334,0.410972 -0.495638,0.01135 -0.929724,-0.743712 -1.136819,-1.11616 -0.733306,-1.319107 -0.790753,-2.906607 -0.304377,-4.318 0.848276,-2.461684 3.557778,-3.189563 5.843863,-3.409019 0.7949353,-0.07628 1.8599953,-0.200979 2.7093253,-0.0623 m -5.5033253,21.25132 c -0.685123,-0.372449 -0.920327,-1.221401 -1.291082,-1.862667 -1.11633,-1.930569 -1.349502,-4.469976 -0.869103,-6.604 0.160612,-0.713401 0.283633,-1.62941 0.869272,-2.149941 0.29083,-0.258487 0.817626,0.03708 1.1292,0.141224 0.248835,0.08323 0.662178,0.130895 0.823891,0.358818 0.180509,0.254423 0.08788,0.681566 0.08695,0.972566 -0.0025,0.761915 0.02701,1.525524 -0.03412,2.286 -0.07417,0.923629 -0.07078,1.883325 -0.183219,2.794 -0.165269,1.338326 -0.122004,2.768261 -0.531791,4.064 m 0.169364,7.535334 c 0.61993,1.06732 0.551858,2.3762 0.41021,3.556 -0.07281,0.6066 -0.166878,1.24813 -0.833543,1.43933 -0.65532,-1.10377 -0.559816,-2.25848 -0.297095,-3.47133 0.114723,-0.52973 0.24384,-1.20342 0.720428,-1.524 m 0.507967,-19.727326 c 0.02946,0.233172 0.177123,0.669798 -0.05114,0.84311 -0.205063,0.155533 -0.943272,0.02828 -0.886884,-0.316822 0.04894,-0.298789 0.696384,-0.456692 0.938022,-0.526288 m -0.508,14.647334 c 0.344763,0.145034 1.072558,0.481922 1.262719,0.815678 0.183134,0.321564 -0.519938,1.077807 -0.839385,1.077807 -1.112859,8.5e-5 -0.635762,-1.397762 -0.423334,-1.893485 m 5.1646603,-15.155334 -0.0025,1.498346 -1.013545,0.279654 H 9.0134087 c -0.07933,-0.427398 -0.228092,-1.21175 0.06282,-1.585045 0.534839,-0.686308 2.5043553,-0.298958 3.2391773,-0.192955 M 11.214739,5.249327 c 0.247058,0.864278 0.440098,1.649307 0.585894,2.54 0.133519,0.815933 0.69723,2.576746 0.371432,3.358473 -0.104563,0.250952 -0.503428,0.101007 -0.703326,0.08712 -0.453898,-0.03141 -2.1277583,0.204385 -2.3671103,-0.170603 -0.216578,-0.339429 0.09906,-1.120902 0.15367,-1.496992 0.196342,-1.35238 0.565658,-3.662595 1.9594403,-4.318 m -0.169274,22.859999 c 0.383371,-0.121581 0.774107,-0.219456 1.177713,-0.239691 0.282025,-0.01414 0.572855,-0.05343 0.854372,-0.02752 0.313097,0.02887 1.609344,0.370332 0.988568,0.871982 -0.637117,0.514858 -2.772918,0.197866 -3.020653,-0.604774 m 1.439331,-10.498663 c 0.569384,0.188976 0.450766,1.376172 0.338667,1.862667 -0.755904,-0.371856 -0.663871,-1.215644 -0.338667,-1.862667 m 2.031996,-5.08 c 0.643129,0.07188 0.701549,0.546946 0.08467,0.762 l -0.08467,-0.762 m 0.338667,4.656667 c 0.625433,0.03209 2.324778,0.805857 1.979592,1.675638 -0.140801,0.354922 -1.4594,1.154514 -1.824821,0.858689 -0.434763,-0.351959 -0.193887,-2.034625 -0.154771,-2.534327 m 0.113877,4.148751 c -0.02506,-0.69342 1.334431,-0.938699 1.833457,-1.224703 0.208703,-0.11955 0.489119,-0.37846 0.749808,-0.278046 0.517398,0.199306 0.754972,1.695535 0.772583,2.179998 0.03497,0.959273 -0.459571,3.58504 -2.029121,2.731177 -1.031579,-0.561171 -1.288458,-2.348315 -1.326727,-3.408426 M 27.70324,4.487334 c -0.0855,4.236974 0.60739,8.458708 0.61425,12.700001 0.001,0.909912 -0.0693,2.077212 0.12556,2.963248 0.0853,0.387943 0.46262,0.769197 0.85404,0.445178 0.28431,-0.235374 0.27406,-0.704512 0.31394,-1.03776 0.12023,-1.004908 0.0913,-2.037672 0.16662,-3.048 0.23944,-3.210306 0.3689,-6.430349 0.57938,-9.652 C 30.43113,5.724314 30.67614,3.719915 30.06002,2.714245 29.67072,2.078737 28.72626,2.149941 28.25611,2.642785 27.83904,3.079919 27.715,3.904996 27.70324,4.487333 m 2.56159,18.965334 c -0.30904,-0.135128 -0.59208,-0.399034 -0.93134,-0.453475 -0.23249,-0.03725 -0.54119,0.01168 -0.76191,0.08932 -1.86496,0.656251 -0.13691,3.678089 1.41689,2.17043 0.19922,-0.193294 0.31759,-0.429938 0.35002,-0.705612 0.0434,-0.368808 -0.0448,-0.734907 -0.0737,-1.100667"
       id="path138"
       sodipodi:nodetypes="cscscssccccsscccccsccccccccscccccccccccsscccsscccccccccccccccsscscssccccccccsccssccccccsscscccccscscccccccccccccscccscccccscscccccccccscccscscccsssccccccccssc" />
  </g>
</svg>
