<?xml version="1.0" encoding="UTF-8" standalone="no"?>
<!-- Created with Inkscape (http://www.inkscape.org/) -->

<svg
   width="28.004314mm"
   height="35.437386mm"
   viewBox="0 0 28.004314 35.437386"
   version="1.1"
   id="svg5"
   inkscape:version="1.1.1 (c3084ef, 2021-09-22)"
   sodipodi:docname="amiticia.svg"
   xmlns:inkscape="http://www.inkscape.org/namespaces/inkscape"
   xmlns:sodipodi="http://sodipodi.sourceforge.net/DTD/sodipodi-0.dtd"
   xmlns="http://www.w3.org/2000/svg"
   xmlns:svg="http://www.w3.org/2000/svg">
  <sodipodi:namedview
     id="namedview7"
     pagecolor="#ffffff"
     bordercolor="#666666"
     borderopacity="1.0"
     inkscape:pageshadow="2"
     inkscape:pageopacity="0.0"
     inkscape:pagecheckerboard="0"
     inkscape:document-units="mm"
     showgrid="false"
     inkscape:zoom="1.2810466"
     inkscape:cx="-32.005081"
     inkscape:cy="247.06361"
     inkscape:window-width="1312"
     inkscape:window-height="969"
     inkscape:window-x="72"
     inkscape:window-y="671"
     inkscape:window-maximized="0"
     inkscape:current-layer="layer1" />
  <defs
     id="defs2" />
  <g
     inkscape:label="Layer 1"
     inkscape:groupmode="layer"
     id="layer1">
    <path
       style="fill:#000000;stroke:none;stroke-width:0.0846667"
       d="m 8.4438002,27.008661 c 0.202861,0.768096 -0.491914,1.693672 -0.673947,2.455333 -0.33401,1.397898 -0.214715,3.544189 0.459571,4.826 1.060873,2.016963 3.1584898,1.127879 3.6452388,-0.762 0.415798,-1.614627 0.294301,-3.08041 -0.247566,-4.656666 -0.233764,-0.680127 -0.654727,-1.335701 -0.81263,-2.032 2.250948,0.799253 4.882981,1.42113 7.281334,0.895435 0.956394,-0.20972 2.145369,-0.516213 2.373122,-1.657435 0.197951,-0.991616 -0.931164,-1.085596 -1.11125,-1.792732 -0.107781,-0.42291 0.195834,-1.001014 0.246549,-1.424601 0.141309,-1.180931 -0.353399,-3.531108 0.954532,-4.245949 0.720598,-0.393784 0.998559,0.912707 0.986452,1.367282 -0.04318,1.62196 -0.753364,5.072973 1.799929,5.142061 2.914396,0.07891 2.319612,-3.758861 2.842514,-5.477087 0.218355,-0.71755 1.101684,-0.578273 1.631864,-0.828124 0.19897,-0.09373 0.2601,-0.30243 0.0691,-0.447294 -0.53281,-0.40403 -1.356105,0.268478 -1.9188,0.234442 -0.559223,-0.03387 -0.90407,-0.685885 -1.439333,-0.835068 -0.651933,-0.181694 -1.402927,0.435441 -1.013968,1.110065 0.35052,0.607991 1.127929,0.704511 1.520444,1.273725 0.655405,0.950384 0.199898,3.866473 -1.183809,3.972899 -0.590042,0.0453 -0.832612,-0.414105 -0.845397,-0.928285 -0.04276,-1.712976 0.221488,-3.327993 -0.709676,-4.909397 -1.01363,-1.721696 -2.824988,-0.160274 -3.101256,1.184063 -0.118957,0.578782 -0.246719,1.18618 -0.254,1.778 -0.01211,0.987383 -0.215392,1.905932 -0.339005,2.878667 -0.449326,0.01693 -1.569805,0.12827 -1.897465,-0.219541 -0.430615,-0.456946 -0.01118,-1.85911 0.07163,-2.405126 0.340868,-2.246206 1.393359,-4.653449 1.22555,-6.942666 -0.05122,-0.698246 -0.308017,-1.564894 -0.755989,-2.109047 -0.221996,-0.269663 -0.996188,-0.748199 -0.996865,-1.108286 -8.47e-4,-0.426889 0.979424,-1.159595 1.223687,-1.524 C 17.981853,9.06407 18.106398,7.728962 17.874581,6.857996 17.629047,5.935383 16.929362,5.218087 16.063815,4.855545 15.073299,4.440593 13.761728,4.197177 13.693148,2.878663 c 2.645664,0 5.652093,0.882734 8.212667,-0.02074 C 22.729706,2.567263 24.698969,0.725509 23.260482,0 22.65249,1.749298 20.20537,1.651085 18.603815,1.605111 16.504081,1.544741 14.418572,1.29032 12.338481,1.008719 10.883738,0.811869 9.4372082,0.518753 8.0204802,1.090509 c -3.396183,1.370499 -5.799498,6.260337 -3.177743,9.406889 0.536058,0.643382 1.500666,1.003639 2.24641,1.355937 -0.493776,0.903054 -1.543888,1.498007 -2.055842,2.455333 -1.216686,2.275078 -1.483344,5.547529 -0.441503,7.958666 0.385496,0.892133 1.12566,1.473539 1.566012,2.286 -1.687382,-0.0047 -2.992282,-0.27051 -4.656668,0.219879 -0.70820198,0.208704 -1.59692298,0.894673 -1.49277498,1.727454 0.139319,1.11396 1.14123898,1.477603 2.08544198,1.683428 2.359466,0.514519 4.216739,-0.299043 6.350001,-1.175428 m -7.068175,-0.423424 c -0.209736,-0.72881 0.568486,-1.119547 1.141494,-1.280329 1.34598,-0.377783 2.814218,-0.378037 4.148667,0.01338 0.391668,0.114893 1.373886,0.238168 1.446022,0.75328 0.05918,0.422994 -1.224619,0.813985 -1.530689,0.955632 -1.166343,0.53975 -2.630941,0.785284 -3.894667,0.478367 -0.520717,-0.126492 -1.145362,-0.345271 -1.310827,-0.920327 M 13.185142,2.709328 c -0.169249,1.163998 -1.252475,2.429256 -1.688169,3.556 -0.631106,1.63195 -0.596731,3.272197 -0.597832,4.995333 -0.443992,-0.0541 -0.812461,-0.198374 -1.2699998,-0.133096 -0.586232,0.08374 -1.276519,0.426551 -1.862667,0.365676 -0.511132,-0.05309 -1.178983,-0.430446 -1.608666,-0.703242 C 3.3986052,9.038585 4.1954542,5.105988 6.5844432,3.430604 8.5384652,2.060274 10.975257,2.298864 13.185142,2.709328 M 10.9838,12.022662 c 0.394547,0.928963 0.318262,1.926251 0.542036,2.878667 0.646261,2.750481 1.197102,4.910666 -0.03996,7.619999 -0.489712,1.072473 -1.319106,2.985093 -2.7880728,2.694855 -1.289643,-0.254677 -1.997202,-1.615778 -2.52349,-2.694855 -1.437954,-2.948347 -0.844864,-7.611617 1.462108,-9.953413 0.865124,-0.878247 2.267628,-0.08704 3.3473818,-0.545253 m -2.8786768,18.457323 0.08467,0.08467 -0.08467,-0.08467 m 0.02819,-0.338666 c 0,-0.06548 0.04216,-0.01356 0.02828,0.02822 l -0.02828,-0.02822 m 0.420539,0.931333 c -0.09855,-1.054058 0.06909,-2.490893 0.456438,-3.471333 0.106342,-0.268986 0.174075,-0.926761 0.545085,-0.955717 0.409871,-0.032 0.6782638,0.57514 0.8321878,0.87105 0.487257,0.936752 0.833882,2.25403 0.948944,3.302 0.104394,0.950443 0.149437,2.184595 -0.414104,3.011746 -0.262128,0.384649 -0.807128,0.80893 -1.2920138,0.576791 -1.05283,-0.50397 -0.984758,-2.353157 -1.076537,-3.334537 M 9.2904562,11.59932 10.475789,11.429987 c -0.09457,0.566419 -0.6486308,0.396578 -1.1006668,0.423333 l -0.08467,-0.08467 V 11.599317 M 10.81442,26.331311 c 0.0091,-0.762593 0.486325,-0.72644 1.100666,-0.95631 0.993225,-0.371602 2.836927,-1.058587 3.894667,-0.760307 0.587841,0.165693 0.907204,0.813478 1.524001,0.930741 0.517059,0.09838 1.237826,-0.47371 1.674029,-0.226229 0.493099,0.279908 0.134874,1.029885 -0.168148,1.305983 -0.649478,0.591735 -1.709759,0.489373 -2.521881,0.493014 -0.769367,0.0035 -1.521376,-0.07696 -2.286001,-0.183219 -1.092877,-0.151807 -2.135971,-0.399965 -3.217333,-0.603673 m 4.910667,-2.370667 -3.132667,0.331978 -1.439334,0.514689 c 0.221742,-0.751671 0.901108,-1.500124 1.28143,-2.201333 0.588857,-1.085681 1.159849,-2.736511 1.218777,-3.979333 0.08729,-1.841923 -0.44704,-3.553629 -0.770974,-5.334 -0.2656,-1.460415 -0.29227,-3.004735 -0.289899,-4.487333 0.0014,-0.830326 0.04834,-1.721697 0.1905,-2.54 0.04547,-0.261704 0.06274,-0.681482 0.280585,-0.866817 0.356786,-0.303615 1.026753,0.41783 1.391582,0.536533 1.511977,0.491913 2.84353,1.123441 2.410545,3.039617 -0.161798,0.716196 -0.87122,1.912959 -1.648545,2.072386 -0.510286,0.104648 -2.186771,-0.343408 -2.252557,0.552027 -0.0337,0.458385 0.577342,0.522816 0.89789,0.560916 0.773091,0.09195 1.585976,-0.487171 1.823297,0.540004 0.833543,3.607308 0.03937,7.608147 0.03937,11.260666 m -3.979313,7.28135 0.08467,0.08467 -0.08467,-0.08467 m 2.793999,-19.811998 c -0.08568,0.495046 -0.506137,0.493183 -0.931333,0.423333 0.08416,-0.504359 0.506053,-0.423249 0.931333,-0.423333 m 2.286079,13.292665 c 0.169672,4.24e-4 0.339005,8.5e-5 0.508423,0.01135 1.363133,0.09085 -0.01177,0.93582 -0.508423,-0.01135 M 25.004494,7.281325 c 0.09864,2.052743 0.0602,4.127161 0.187113,6.180666 0.03404,0.550926 0.02862,1.817624 0.77851,1.909149 0.960713,0.117179 0.799931,-1.611122 0.747353,-2.163149 -0.165777,-1.741847 -0.01372,-3.745568 0.10668,-5.503333 0.0635,-0.9282 0.364993,-2.117597 -0.164592,-2.962063 -0.410464,-0.654388 -1.081447,-0.550164 -1.444075,0.08348 -0.344085,0.601048 -0.24367,1.775544 -0.210989,2.455248 m 0.605198,17.187004 c 0.388366,1.035558 1.805851,0.381762 1.397932,-0.577596 -0.357632,-0.840909 -1.725507,-0.295826 -1.397932,0.577596"
       id="path39"
       sodipodi:nodetypes="cccccccccccscscccssccccscccccsccccccccccsccsccsccccscsccccccscscccccsccccccccccsscccccccccccccccccccccscccscccsccccccccccccccsccccccccc" />
  </g>
</svg>
