<?xml version="1.0" encoding="UTF-8" standalone="no"?>
<!-- Created with Inkscape (http://www.inkscape.org/) -->

<svg
   width="21.722363mm"
   height="37.163185mm"
   viewBox="0 0 21.722363 37.163185"
   version="1.1"
   id="svg5"
   inkscape:version="1.1.1 (c3084ef, 2021-09-22)"
   sodipodi:docname="baruthia.svg"
   xmlns:inkscape="http://www.inkscape.org/namespaces/inkscape"
   xmlns:sodipodi="http://sodipodi.sourceforge.net/DTD/sodipodi-0.dtd"
   xmlns="http://www.w3.org/2000/svg"
   xmlns:svg="http://www.w3.org/2000/svg">
  <sodipodi:namedview
     id="namedview7"
     pagecolor="#ffffff"
     bordercolor="#666666"
     borderopacity="1.0"
     inkscape:pageshadow="2"
     inkscape:pageopacity="0.0"
     inkscape:pagecheckerboard="0"
     inkscape:document-units="mm"
     showgrid="false"
     inkscape:zoom="2.5620932"
     inkscape:cx="40.982116"
     inkscape:cy="36.493599"
     inkscape:window-width="1312"
     inkscape:window-height="969"
     inkscape:window-x="1698"
     inkscape:window-y="226"
     inkscape:window-maximized="0"
     inkscape:current-layer="layer1" />
  <defs
     id="defs2" />
  <g
     inkscape:label="Layer 1"
     inkscape:groupmode="layer"
     id="layer1">
    <path
       style="fill:#000000;stroke:none;stroke-width:0.0846667"
       d="m 0.02323599,26.558652 c 0.221946,1.38176 1.57442801,2.350262 2.92609701,1.759035 0.446109,-0.195072 1.024721,-0.891879 1.524,-0.845313 0.579967,0.05419 1.336803,0.943949 1.675131,1.373548 0.677587,0.860383 -0.388875,1.652998 -0.747015,2.454063 -0.747437,1.671812 -0.745405,5.009781 1.357885,5.765371 0.787738,0.283 1.511808,-0.088 2.109046,-0.60103 1.34747,-1.15764 1.524339,-3.448545 1.15062,-5.079674 -0.139615,-0.609532 -0.627464,-1.644523 -0.184742,-2.193713 0.893148,-1.108118 1.787906,-0.437304 2.939711,-0.526542 0.807974,-0.06257 1.482683,-0.625941 2.02836,-1.174497 2.72017,-2.73431 3.631099,-7.721685 1.920155,-11.260582 -0.511048,-1.056979 -1.101513,-1.96105 -1.846157,-2.871047 -0.28304,-0.345864 -0.835998,-0.691219 -0.807466,-1.192954 0.01998,-0.350774 0.297265,-0.692489 0.421894,-1.016 0.32766,-0.850646 0.643128,-1.7053555 0.707644,-2.6250045 0.03615,-0.51452 0.07231,-1.098381 -0.0097,-1.608329 -0.04953,-0.30861 -0.26907,-0.708998 -0.126068,-1.012359 0.367368,-0.779357 2.072386,-0.867071 1.748028,-2.035556 -0.398563,-1.435862 -1.774904,0.395478 -2.487205,-0.203877 C 13.939067,3.3406795 13.769903,2.6757925 13.48864,2.2593165 13.023651,1.5708075 12.31787,0.98830045 11.585334,0.59671745 9.929169,-0.28864155 7.624373,-0.17349555 6.082,0.84047245 5.041531,1.5244105 4.345825,2.4344925 3.456995,3.2707445 2.86255,3.8300535 1.937262,3.9493485 1.521819,4.7146505 c -0.65193301,1.200997 0.95427,0.944457 1.390769,1.451864 0.233087,0.270933 0.168825,0.597323 0.245872,0.918803 0.138007,0.575564 0.385149,1.163066 0.645414,1.693333 0.186521,0.3799 0.611039,0.68343 0.702733,1.100667 0.120227,0.5469465 -0.189568,1.3616935 -0.1916,1.9473335 -0.0034,0.946827 0.01405,1.935226 0.102108,2.878666 0.04267,0.457624 0.213021,1.166877 0.07044,1.607397 -0.241469,0.745914 -1.561422,0.385318 -1.601131,1.270932 -0.03793,0.84565 1.33604,0.572516 1.705187,1.106 0.529505,0.765302 0.208364,2.51223 0.121412,3.381672 -0.05622,0.562187 -0.08145,1.722967 -0.667936,2.013543 -0.409024,0.202607 -1.067308,-0.07375 -1.519089,-0.03293 -1.265801,0.1143 -2.72851001,1.101259 -2.50276401,2.506726 M 1.73538,26.715799 C 1.569035,26.230998 2.571548,25.94584 2.723948,26.33065 2.907082,26.79293 1.907905,27.21855 1.73538,26.715799 M 4.837479,6.9160225 c -0.05732,-0.383455 -0.138007,-1.101852 0.180594,-1.389464 0.315637,-0.284988 1.387771,-0.382524 1.441365,0.207856 0.06206,0.682583 -1.386755,2.755477 -1.621959,1.181608 m 2.76852,7.1966695 c 0.978832,0.495469 1.367452,1.271608 2.624667,1.075436 0.70104,-0.10939 1.989413,-1.414611 2.606887,-0.879094 0.793496,0.688086 1.192361,1.867577 1.40462,2.851658 0.458893,2.127927 0.545507,4.463204 0.151553,6.604 -0.190584,1.035728 -0.438319,2.522729 -1.538393,2.986363 -0.21463,0.09042 -0.515536,0.103632 -0.533654,-0.201676 -0.02676,-0.451442 0.316738,-0.985689 0.404791,-1.43002 0.150283,-0.757766 -0.4191,-2.07137 -1.225804,-2.216235 -1.652185,-0.296672 -2.558965,1.380829 -2.476585,2.808902 0.02777,0.48133 0.622639,1.452626 -0.07264,1.726523 -0.270933,0.106764 -0.5461,-0.0298 -0.741849,-0.214969 C 7.70083,26.742335 6.383163,25.762741 6.177084,25.111739 5.997845,24.545743 6.615319,24.016237 6.774915,23.510692 7.035011,22.687055 7.307723,21.841066 7.348701,20.970692 7.381721,20.271176 7.209679,19.347039 7.499154,18.693921 7.801837,18.011253 9.163193,18.50359 9.326345,17.667676 9.469855,16.932769 8.155913,16.946655 7.798959,16.662005 7.312041,16.273724 7.362079,14.619676 7.606003,14.112692 M 6.498645,2.7594425 c -0.07688,-0.534246 1.085088,-0.818388 1.446022,-0.920157 1.222925,-0.344593 3.860969,0.208026 3.808984,1.943608 -0.01702,0.566082 -0.653796,0.453644 -1.014984,0.350097 -1.06807,-0.30607 -1.896025,-0.877994 -3.048,-0.962745 -0.288798,-0.02125 -1.136735,-0.02684 -1.192022,-0.410803 m 0.03971,31.5885435 c -0.156972,-0.726415 0.09059,-1.626769 0.393276,-2.285933 0.446956,-0.973353 0.962322,-0.294496 1.124797,0.423266 0.179917,0.794639 0.22479,1.877644 -0.17272,2.619707 -0.508931,0.95003 -1.226397,-0.20686 -1.345353,-0.75704 m 0.8647,-21.521591 c -0.181779,-0.392346 -0.05105,-1.081532 -0.05105,-1.507745 0,-1.239774 0.19304,-2.5289925 0.52087,-3.7253325 0.110744,-0.40403 0.234103,-1.015831 0.531537,-1.324187 0.568283,-0.58928 2.371175,0.182372 3.09626,0.257556 0.323342,0.03353 0.659892,0.08179 0.831511,0.394293 0.48912,0.890524 0.149014,2.520188 -0.009,3.4663375 -0.05563,0.332909 -0.100161,0.905849 -0.418508,1.098211 -0.518075,0.313098 -1.629748,-0.198289 -2.266696,-0.07832 -1.007702,0.189653 -1.226566,0.834898 -1.848612,1.478449 -0.133096,0.137584 -0.304122,0.11828 -0.386334,-0.05927 m 3.081609,0.185658 c 0.12065,1.259163 -1.496822,0.123783 0,0 M 11.07733,25.542652 H 10.908 c -0.275505,-0.606552 0.33418,-0.618998 0.169334,0 m 7.826165,-13.716009 c 0.324358,2.732616 0.640504,5.547275 0.640504,8.297334 0,0.605197 -0.150368,2.420027 0.685207,2.579031 1.146048,0.218186 1.001014,-2.376085 1.067731,-3.002365 0.242994,-2.278973 0.130218,-4.573694 0.286682,-6.858 0.07264,-1.06189 0.364067,-2.587414 -0.208026,-3.5543915 -0.482262,-0.815171 -1.730841,-0.790025 -2.235624,0.0063 -0.395986,0.624925 -0.320548,1.8238895 -0.236474,2.5321265 m 0.173398,16.255916 c 0.361357,1.649603 2.91084,0.787824 2.487253,-0.846497 -0.45483,-1.754717 -2.858601,-0.848784 -2.487253,0.846497"
       id="path39"
       sodipodi:nodetypes="cccsssccccccsccccsscsccccsccccccscscccccccccccsccsccccscscccccscccccsccscsccsccsccccccccccccscccsccccc" />
  </g>
</svg>
