<?xml version="1.0" encoding="UTF-8" standalone="no"?>
<!-- Created with Inkscape (http://www.inkscape.org/) -->

<svg
   width="47.567627mm"
   height="43.259319mm"
   viewBox="0 0 47.567627 43.259319"
   version="1.1"
   id="svg5"
   inkscape:version="1.1.1 (c3084ef, 2021-09-22)"
   sodipodi:docname="bavaria n.svg"
   xmlns:inkscape="http://www.inkscape.org/namespaces/inkscape"
   xmlns:sodipodi="http://sodipodi.sourceforge.net/DTD/sodipodi-0.dtd"
   xmlns="http://www.w3.org/2000/svg"
   xmlns:svg="http://www.w3.org/2000/svg">
  <sodipodi:namedview
     id="namedview7"
     pagecolor="#ffffff"
     bordercolor="#666666"
     borderopacity="1.0"
     inkscape:pageshadow="2"
     inkscape:pageopacity="0.0"
     inkscape:pagecheckerboard="0"
     inkscape:document-units="mm"
     showgrid="false"
     inkscape:zoom="0.64052329"
     inkscape:cx="31.22447"
     inkscape:cy="569.06596"
     inkscape:window-width="1312"
     inkscape:window-height="969"
     inkscape:window-x="1930"
     inkscape:window-y="242"
     inkscape:window-maximized="0"
     inkscape:current-layer="layer1" />
  <defs
     id="defs2" />
  <g
     inkscape:label="Layer 1"
     inkscape:groupmode="layer"
     id="layer1">
    <path
       style="fill:#000000;stroke-width:0.352778"
       d="m 16.899165,42.425617 c -2.743973,-0.73573 -5.731879,-2.06251 -8.1920446,-3.63768 -0.938692,-0.60102 -0.981958,-0.59427 -1.940278,0.30256 -1.08658,1.01687 -2.852814,1.98485 -4.465691,2.44742 -0.800923,0.2297 -1.212234,0.163 -1.696304,-0.27508 -0.789107,-0.71413 -0.802069,-1.11516 -0.06246,-1.93242 0.543031,-0.60005 0.634493,-0.60287 1.57289,-0.0485 1.207542,0.71331 2.254472,0.29225 3.516042,-1.41412 0.785035,-1.06181 0.788173,-1.10312 0.164482,-2.16497 -2.257109,-3.8428 -2.446958,-4.42937 -2.448035,-7.56371 -0.0015,-4.26072 0.809054,-5.9711 4.454938,-9.40088 1.542752,-1.45131 2.9505806,-2.63875 3.1285086,-2.63875 0.582067,0 0.339595,-0.93445 -0.420624,-1.62102 -1.1386706,-1.02835 -2.7836486,-4.5569696 -2.7836486,-5.9711576 0,-3.422402 3.7376606,-6.313952 9.1025276,-7.041949 1.028821,-0.139609 4.600696,-0.0582 7.9375,0.180916 6.514133,0.466797 12.387089,0.118043 14.2875,-0.84843497 1.555337,-0.790985 2.539139,-1.014658 2.539139,-0.577287 0,1.24461097 -6.802939,2.82122797 -12.244155,2.83764597 l -3.807234,0.01149 -0.621131,1.311428 -0.62113,1.311429 1.780942,1.542512 c 2.122851,1.838648 2.851739,3.1158076 3.199444,5.6060776 0.352019,2.52117 -0.116385,3.93968 -1.988477,6.0219 l -1.584287,1.76211 1.243974,1.02539 c 0.684186,0.56396 1.718541,1.7737 2.298568,2.68831 0.898983,1.41754 1.054597,2.00969 1.054597,4.01296 0,2.79009 -0.912241,4.42522 -3.179849,5.69969 -1.778675,0.99967 -1.784308,1.45077 -0.01812,1.45077 2.559371,0 3.992414,-0.97719 5.379043,-3.66796 0.556658,-1.08019 0.691169,-1.94978 0.627553,-4.05694 -0.143013,-4.73701 -0.06395,-4.7029 2.155546,0.92986 0.859215,2.18058 1.74649,3.96652 1.971714,3.96875 0.225227,0.002 0.756123,-0.71195 1.179766,-1.58708 0.646381,-1.33524 0.708181,-1.76925 0.384249,-2.69848 -1.161598,-3.33216 0.384916,-5.81643 2.812175,-4.5174 0.923742,0.49437 0.858799,1.3761 -0.271025,3.67976 -0.906427,1.84817 -0.93249,2.0451 -0.529166,3.99781 0.749638,3.62939 0.612179,4.37188 -1.178031,6.36302 -1.29854,1.44429 -2.135639,1.98779 -4.416185,2.86726 -6.79976,2.62226 -12.701769,3.15206 -18.323229,1.6448 z m 12.876389,-1.96193 c 3.9428,-0.38631 6.851153,-1.45248 8.66249,-3.17557 1.269186,-1.20735 1.391677,-1.48393 1.391677,-3.14238 0,-2.38129 -0.786289,-2.45279 -1.570538,-0.14282 -0.3129,0.92163 -0.797268,1.9775 -1.076368,2.34637 -0.476391,0.62962 -0.55336,0.56483 -1.25724,-1.05833 -0.412379,-0.95095 -0.889346,-2.0862 -1.059921,-2.52276 -0.462364,-1.18335 -1.100716,-0.95085 -2.153249,0.78425 -1.356858,2.23677 -3.2495,3.12902 -6.066762,2.86004 -2.697038,-0.25749 -3.150849,-0.2576 -7.277033,-0.002 0,0 -1.983082,10e-4 -2.886681,-0.20535 -0.464708,-0.0775 -1.053684,-0.59234 -1.053684,-0.59234 -0.672093,-0.51567 -0.492648,-1.17753 -0.236109,-1.63594 0.688544,-1.23036 1.818885,-1.31074 5.297201,-0.37668 3.087269,0.82905 3.360642,0.84926 4.457148,0.32963 1.6537,-0.78369 3.035469,-3.83266 2.808309,-6.19675 -0.206308,-2.14709 -1.761312,-5.37018 -2.879639,-5.96869 -0.696952,-0.373 -1.177115,-0.3728 -2.636055,0.001 -2.118444,0.54294 -3.352499,0.14933 -4.002156,-1.27652 -0.33723,-0.74013 -0.319597,-0.97482 0.09339,-1.24303 1.079189,-0.70086 2.297501,-0.77576 3.804387,-0.23389 1.544124,0.55526 1.55839,0.55303 2.422764,-0.37965 1.521488,-1.64171 1.940817,-3.1297 1.783421,-6.32849 -0.129328,-2.6283596 -0.242294,-3.0167296 -1.154383,-3.9687486 -1.590332,-1.659948 -2.100215,-1.417356 -3.697309,1.7591086 -0.778277,1.5478 -1.415049,3.03044 -1.415049,3.29464 0,0.26421 0.413476,0.66877 0.918835,0.89902 0.8488,0.38674 0.880627,0.47845 0.417562,1.20316 -0.275701,0.43148 -1.146102,1.102 -1.934224,1.49006 -1.151533,0.56699 -1.628375,1.12125 -2.428033,2.82222 -0.547294,1.16417 -2.131448,4.49792 -3.520342,7.40833 -1.388892,2.91042 -2.744859,5.90437 -3.013259,6.65323 l -0.488,1.36156 1.407758,1.2131 c 1.972974,1.70017 6.018012,3.69829 8.110537,4.00635 2.519575,0.37094 6.552925,0.37784 10.230555,0.0175 z m -8.995833,-5.32297 c 0,-1.09999 -3.962133,-1.3432 -4.168117,-0.25585 -0.100976,0.53303 0.175707,0.61736 2.025583,0.61736 1.22767,0 2.142534,-0.15437 2.142534,-0.36151 z m -8.28364,-9.80278 c 2.121948,-4.20414 3.65671,-7.64308 3.481571,-7.80116 -0.172265,-0.15549 -0.854122,-0.46357 -1.515237,-0.68462 -1.056859,-0.35338 -1.376397,-0.29921 -2.645833,0.44859 -3.5376546,2.08395 -5.1461586,4.16613 -5.8870176,7.62063 -0.307697,1.43475 -0.270058,2.30102 0.189784,4.36792 0.555326,2.49609 1.74392,4.4808 2.312306,3.86109 0.148305,-0.1617 1.9772966,-3.6773 4.0644266,-7.81245 z m 28.163821,1.43304 c 0.09469,-0.33955 0.274839,-0.97455 0.400322,-1.41111 0.181046,-0.62986 0.08606,-0.79375 -0.460029,-0.79375 -0.41546,0 -0.772481,0.31456 -0.900899,0.79375 -0.351533,1.31173 -0.251524,2.02847 0.28304,2.02847 0.277968,0 0.58287,-0.27781 0.677566,-0.61736 z m -18.866846,-6.0806 c 0.390339,-0.004 0.399059,-0.10737 0.045,-0.53398 -0.550668,-0.66352 -2.469444,-0.7092 -2.469444,-0.0588 0,0.7197 0.437364,1.00144 1.225751,0.78959 0.39299,-0.1056 0.932402,-0.19416 1.198695,-0.19681 z m -4.662848,-4.78253 c 0.292514,-0.76228 -0.04958,-0.98877 -1.096558,-0.72599 -1.394073,0.34989 -1.081382,0.97805 0.612004,1.22945 0.15161,0.0225 0.36966,-0.20405 0.484554,-0.50346 z m 2.943957,-0.69034 c 0,-0.29105 -0.238125,-0.52917 -0.529166,-0.52917 -0.291042,0 -0.529167,0.23812 -0.529167,0.52917 0,0.29104 0.238125,0.52916 0.529167,0.52916 0.291041,0 0.529166,-0.23812 0.529166,-0.52916 z m -4.107317,-1.17476 2.066293,-0.58913 1.905391,-3.31906 C 20.986497,8.3090774 21.789917,6.7614964 21.72391,6.6954894 21.6579,6.6294794 20.386583,6.4725764 18.898754,6.3468084 16.830833,6.1720054 16.19361,5.9934744 16.19361,5.5889074 c 0,-0.446939 0.515409,-0.498484 3.314579,-0.331483 3.260768,0.19454 3.329495,0.182182 4.233334,-0.761222 0.505314,-0.527435 0.918754,-1.09183 0.918754,-1.25421 0,-0.162381 -1.716731,-0.213869 -3.814957,-0.114417 -5.193061,0.246141 -8.040828,1.519084 -9.447729,4.223104 -0.696633,1.338908 -0.602935,4.0685476 0.200407,5.8383476 0.780153,1.71872 1.10936,1.78305 4.36885,0.85372 z m 29.591391,25.283 c -0.661172,-0.66118 -0.524227,-1.63527 0.291254,-2.0717 0.977483,-0.52313 1.812773,0.17319 1.670981,1.39298 -0.118597,1.02023 -1.234676,1.40628 -1.962235,0.67872 z m 0.144375,-10.59118 c -0.120347,-0.44938 -0.220984,-4.80606 -0.223633,-9.68151 -0.0039,-7.15412 0.09007,-8.94319 0.486974,-9.2725896 0.380866,-0.31609 0.627909,-0.27203 1.095269,0.19533 0.531016,0.5310096 0.583125,1.2208096 0.433967,5.7448096 -0.190515,5.77833 -0.896426,13.10662 -1.304573,13.54313 -0.148053,0.15834 -0.367658,-0.0798 -0.488004,-0.52917 z"
       id="path3497"
       sodipodi:nodetypes="cssssscsscssssssssscccssscsssssssscssssssscccssssssssccsssssscsssssscssssssscssccsssssssssssssssssssssssssssssssssscssssssssssssssssssssss" />
  </g>
</svg>
