<?xml version="1.0" encoding="UTF-8" standalone="no"?>
<!-- Created with Inkscape (http://www.inkscape.org/) -->

<svg
   width="24.961634mm"
   height="36.860802mm"
   viewBox="0 0 24.961634 36.860802"
   version="1.1"
   id="svg5"
   inkscape:version="1.1.1 (c3084ef, 2021-09-22)"
   sodipodi:docname="bavaria.svg"
   xmlns:inkscape="http://www.inkscape.org/namespaces/inkscape"
   xmlns:sodipodi="http://sodipodi.sourceforge.net/DTD/sodipodi-0.dtd"
   xmlns="http://www.w3.org/2000/svg"
   xmlns:svg="http://www.w3.org/2000/svg">
  <sodipodi:namedview
     id="namedview7"
     pagecolor="#ffffff"
     bordercolor="#666666"
     borderopacity="1.0"
     inkscape:pageshadow="2"
     inkscape:pageopacity="0.0"
     inkscape:pagecheckerboard="0"
     inkscape:document-units="mm"
     showgrid="false"
     inkscape:zoom="1.8116734"
     inkscape:cx="-96.043801"
     inkscape:cy="170.28456"
     inkscape:window-width="1312"
     inkscape:window-height="969"
     inkscape:window-x="72"
     inkscape:window-y="671"
     inkscape:window-maximized="0"
     inkscape:current-layer="layer1" />
  <defs
     id="defs2" />
  <g
     inkscape:label="Layer 1"
     inkscape:groupmode="layer"
     id="layer1">
    <path
       style="fill:#000000;stroke:none;stroke-width:0.0846667"
       d="m 10.006163,17.740757 c 0.369654,-0.03683 1.346369,-0.329438 0.854371,-0.881549 -0.512233,-0.574887 -1.4158807,-0.293794 -1.2522197,-1.404451 0.168233,-1.142069 1.4893707,-1.358477 1.4832747,-2.709333 -0.0059,-1.329013 -1.3109777,-1.244262 -1.6621757,-2.20472 -0.283802,-0.7758863 0.0171,-2.5399163 0.307086,-3.2986143 0.117518,-0.307594 0.3448477,-0.67039 0.6933357,-0.739224 1.020317,-0.201676 2.600621,0.531706 3.640327,0.678688 0.705866,0.09982 2.038181,-0.201253 2.643886,0.123359 0.836084,0.448225 0.03421,2.9898343 -0.546523,3.4342493 -0.347895,0.266277 -0.865463,0.01092 -1.250696,-0.04445 -1.133348,-0.163068 -3.682069,0.205402 -3.036655,1.965706 0.477097,1.301242 2.64939,1.060535 3.713988,0.829141 0.34434,-0.07493 0.839809,-0.417999 1.180762,-0.244009 0.717126,0.366014 1.027091,1.750568 1.188974,2.463207 0.382947,1.685459 0.28829,3.065526 -0.05224,4.741334 -0.214206,1.054184 -0.417406,2.06375 -1.248664,2.841498 -1.69545,1.586145 -4.757843,0.62086 -4.955624,-1.825498 -0.05715,-0.707898 0.03717,-1.57099 0.38354,-2.201334 0.235458,-0.428413 0.724238,-0.865039 0.808143,-1.354582 0.08771,-0.511641 -0.38989,-0.582253 -0.774954,-0.487849 -0.845651,0.207348 -1.235456,1.382352 -1.524084,2.096431 -1.1436777,2.829137 1.2457,5.624238 4.055194,5.908718 5.221563,0.528743 6.93801,-6.114458 5.515949,-10.057385 -0.276098,-0.765556 -0.572686,-1.56972 -1.131909,-2.177203 -0.333502,-0.362119 -1.127083,-0.921173 -1.092877,-1.463463 0.05317,-0.844635 0.758359,-1.69291 0.93963,-2.5400003 0.159428,-0.74549 -0.06325,-1.97883 0.279316,-2.617047 0.434763,-0.810006 1.591225,-1.110065 1.339511,-2.208954 -0.446617,0.11938 -1.239689,0.563457 -1.689693,0.385488 -0.701209,-0.277284 -1.145032,-1.677586 -1.64829,-2.233676 -0.875877,-0.967825 -2.160609,-1.54711402 -3.350684,-2.03090002 -2.228934,-0.906018 -5.0562077,-0.463211 -7.1119987,0.68470002 -0.696299,0.388789 -1.124628,1.097449 -1.77927,1.500378 -1.23588,0.760645 -2.485822,1.099989 -3.540362,2.20963 -0.48969595,0.515282 -1.85118595,2.433575 -1.22118995,3.18152 0.472753,0.561255 1.26585095,-0.513249 1.53013795,-0.810514 0.129303,-0.145373 0.413411,-0.445177 0.605731,-0.213953 0.186267,0.224028 0.07489,0.709592 0.03789,0.967994 -0.09556,0.667343 -0.09099,1.277874 3.98e-4,1.947334 0.08729,0.6394873 0.178655,1.2918443 0.502446,1.8626663 0.218474,0.385149 0.706239,0.79773 0.701328,1.27 -0.009,0.857589 -0.714104,1.95597 -0.955133,2.794 -0.416569,1.448393 -0.408424,3.201416 -0.0057,4.656667 0.372051,1.344253 1.184004,2.766399 2.050991,3.857498 0.312505,0.393192 1.289304,1.115145 1.2827,1.640586 -0.0074,0.584539 -1.310894,-0.07628 -1.580642,-0.164084 -1.497034,-0.487341 -3.48692895,-0.0171 -3.293119,1.947252 0.151452,1.535001 2.409876,1.762761 3.547119,1.461851 0.403606,-0.10676 0.945727,-0.50072 1.354667,-0.4434 0.573193,0.0803 1.236048,0.81407 1.540594,1.27093 0.372449,0.55872 -5.08e-4,1.12429 -0.142409,1.69003 -0.253407,1.01031 -0.458724,2.18359 -0.227838,3.21734 0.453051,2.02908 2.9907647,2.65395 3.8268487,0.508 0.567012,-1.45547 0.391667,-2.87677 -0.11574,-4.318 -0.169248,-0.48074 -0.9827257,-1.43722 -0.8398077,-1.93481 0.1384297,-0.48175 1.3584757,-0.18448 1.7156847,-0.13335 1.363472,0.19525 4.941062,0.24486 4.463711,-2.080509 -0.33147,-1.614848 -3.459565,-1.429004 -4.548378,-0.884767 -0.534754,0.267293 -1.027176,0.741934 -1.602316,0.914061 -0.3679617,0.110154 -0.7240697,-0.09279 -1.0190477,-0.299974 -0.817542,-0.574294 -0.214884,-1.418251 0.0086,-2.184654 0.199136,-0.682836 0.53213,-1.323509 0.649055,-2.032 0.263482,-1.597406 0.0845,-3.234267 0.3550917,-4.826 m -7.7332837,9.974912 c -0.257345,-0.769795 1.745826,-0.568289 1.919901,-0.0567 0.2413,0.70908 -1.759661,0.53602 -1.919901,0.0567 m 2.568617,-13.530925 c 0.670221,0.03437 2.01041,0.473371 2.228681,1.184487 0.14588,0.475572 0.05122,1.056724 -0.451951,1.248494 -0.304461,0.115994 -1.105408,0.09483 -1.033187,0.613834 0.09754,0.700024 1.329351,0.378206 1.660652,0.943779 0.238421,0.406993 0.191516,0.894757 0.244602,1.343406 0.147997,1.248834 0.238421,2.552108 0.150283,3.81 -0.02625,0.374142 -0.12065,1.29921 -0.465074,1.52036 -0.307425,0.197442 -0.600117,-0.104987 -0.757936,-0.338752 -0.430699,-0.637794 -0.957834,-1.312248 -1.245955,-2.028274 -0.764794,-1.900598 -1.374478,-3.922692 -1.06663,-6.011334 0.117771,-0.798999 0.516466,-1.522222 0.736515,-2.286 M 4.1925363,8.7660677 c -0.07197,-0.758867 -0.273643,-2.775966 0.484124,-3.21801 0.783166,-0.456947 2.242735,-0.0784 3.043428,0.158411 0.335364,0.09923 0.83676,0.269833 0.861568,0.690203 0.02447,0.414951 -0.364236,1.037166 -0.499872,1.438063 -0.422995,1.249765 -0.40005,2.9000873 -1.80103,3.3389153 -0.416221,0.130386 -0.9906,0.645498 -1.412748,0.310472 -0.541358,-0.429598 -0.613833,-2.0680683 -0.67547,-2.7180543 m 1.580733,4.3101273 c 0.01025,-0.698076 1.251035,-1.10473 1.251035,-0.161798 0,0.695452 -1.260517,0.810938 -1.251035,0.161798 m 1.523497,14.401204 c 1.171364,-0.309032 1.795272,1.715181 0.677418,0.82212 -0.113368,-0.0906 -0.223774,-0.18957 -0.32749,-0.29109 -0.167471,-0.16383 -0.262213,-0.31707 -0.349928,-0.53103 M 7.7761373,2.5677057 c -0.262467,-0.74549 1.950381,-1.067477 2.3992837,-1.140121 1.628986,-0.263568 3.581992,0.225467 4.840393,1.265258 0.479891,0.396579 1.000845,0.847006 1.114383,1.500802 0.150791,0.868595 -1.316906,0.384048 -1.721443,0.297603 -1.655149,-0.353653 -3.260936,-0.919734 -4.9106657,-1.289304 -0.367284,-0.08221 -1.588347,-0.254762 -1.721951,-0.634238 M 8.3500923,34.33207 c -0.03048,-0.33704 -0.212259,-1.84028 0.388112,-1.83004 0.567436,0.01 0.784522,1.67505 0.816949,2.08737 0.03107,0.39472 -0.192193,1.39817 -0.786045,0.95185 -0.344086,-0.25867 -0.383456,-0.81519 -0.419016,-1.20918 m 1.203622,-21.528926 c -0.08958,-0.224959 0.2043,-0.470577 0.312081,-0.200152 0.08966,0.22496 -0.204301,0.470578 -0.312081,0.200152 m 2.2203947,14.838935 c -0.157819,-0.876808 2.789597,-1.383708 2.873756,-0.41741 0.07214,0.8277 -1.69562,0.76793 -2.186432,0.76031 -0.254254,-0.004 -0.630005,-0.0244 -0.687324,-0.3429 M 13.37051,12.383194 c -0.212006,-0.702649 1.271693,-0.919396 1.478449,-0.30624 0.245195,0.727033 -1.3208,0.828802 -1.478449,0.30624 m 8.440649,13.146808 c 0.310642,2.162727 3.345261,1.585637 3.032001,-0.508 -0.288039,-1.924643 -3.322154,-1.511978 -3.032001,0.508 m 0.353737,-12.784667 c 0.244602,1.18237 0.20574,2.3622 0.339767,3.556 0.136737,1.218014 0.364744,2.495888 0.370671,3.725333 0.0032,0.665396 -0.239861,2.307336 0.517313,2.662767 0.375666,0.176361 0.7609,-0.107781 0.879856,-0.462703 0.26289,-0.784606 0.205486,-1.802892 0.211328,-2.623736 0.01643,-2.296414 0.05105,-4.655735 0.268648,-6.942328 0.128441,-1.350179 0.457541,-3.2090363 -0.125561,-4.4869953 -0.51816,-1.135549 -1.830324,-0.906102 -2.299039,0.16908 -0.465497,1.067985 -0.396324,3.2744833 -0.162983,4.4025823 m 1.387783,13.46186 0.08467,0.08467 -0.08467,-0.08467 m 0,-4.572 0.169333,0.169333 h -0.169333 v -0.169333"
       id="path39"
       sodipodi:nodetypes="cccccccccccscccscccsscsscccsccscscssccssscsccccsccssccsccssccscccscccccsccccssccccscscccsccscccccccccccscccsccccccccccccsssccccccccccccc" />
  </g>
</svg>
