<?xml version="1.0" encoding="UTF-8" standalone="no"?>
<!-- Created with Inkscape (http://www.inkscape.org/) -->

<svg
   width="45.423237mm"
   height="37.66621mm"
   viewBox="0 0 45.423237 37.66621"
   version="1.1"
   id="svg5"
   inkscape:version="1.1.1 (c3084ef, 2021-09-22)"
   sodipodi:docname="bubis.svg"
   xmlns:inkscape="http://www.inkscape.org/namespaces/inkscape"
   xmlns:sodipodi="http://sodipodi.sourceforge.net/DTD/sodipodi-0.dtd"
   xmlns="http://www.w3.org/2000/svg"
   xmlns:svg="http://www.w3.org/2000/svg">
  <sodipodi:namedview
     id="namedview7"
     pagecolor="#ffffff"
     bordercolor="#666666"
     borderopacity="1.0"
     inkscape:pageshadow="2"
     inkscape:pageopacity="0.0"
     inkscape:pagecheckerboard="0"
     inkscape:document-units="mm"
     showgrid="false"
     inkscape:zoom="1"
     inkscape:cx="288"
     inkscape:cy="290.5"
     inkscape:window-width="1312"
     inkscape:window-height="969"
     inkscape:window-x="1800"
     inkscape:window-y="135"
     inkscape:window-maximized="0"
     inkscape:current-layer="layer1" />
  <defs
     id="defs2" />
  <g
     inkscape:label="Layer 1"
     inkscape:groupmode="layer"
     id="layer1">
    <path
       style="fill:#000000;stroke:none;stroke-width:0.0846667"
       d="m 0.00449935,28.038984 c 0.07157,0.788247 0.738133,1.232747 1.39086205,1.526032 1.686534,0.757767 3.169157,0.251206 4.825999,-0.265853 0.538311,-0.167979 1.40843,-0.616881 1.93819,-0.253153 0.667596,0.458385 0.22843,1.214797 -0.0024,1.786974 -0.691303,1.713908 -1.224449,3.372274 -0.488611,5.164667 0.537972,1.310589 1.997879,2.259711 3.2928546,1.236751 1.580728,-1.248638 1.976878,-3.556355 1.301328,-5.385418 -0.23859,-0.645922 -1.985858,-2.380742 -1.05546,-2.970699 0.44527,-0.282363 1.14411,0.312674 1.5334,0.501565 1.14182,0.554059 2.22648,1.162304 3.556,0.953601 1.08323,-0.170095 2.79485,-1.109811 2.14656,-2.4638 -0.85378,-1.782826 -3.55837,-1.964775 -5.19422,-1.363557 -0.75429,0.277284 -2.330026,1.220724 -2.693246,-0.07586 -0.2424,-0.865547 1.142746,-2.056045 1.463636,-2.793915 0.78951,-1.815931 1.69663,-3.48742 2.20675,-5.418667 0.34349,-1.300395 0.28744,-3.264238 1.26864,-4.289213 0.82711,-0.863854 1.0773,0.769535 1.8145,0.467614 0.38557,-0.157819 0.52493,-0.652865 0.65481,-1.004401 0.26526,-0.717888 0.63203,-1.395984 0.89958,-2.116666 0.11125,-0.29972 0.38879,-0.763524 0.20845,-1.080093 -0.2275,-0.3993721 -0.72136,-0.10287 -0.91669,0.157904 -0.36626,0.489119 -1.56802,2.897462 -2.40038,1.75751 -0.33164,-0.454237 0.0233,-1.143085 0.18449,-1.597321 0.40699,-1.1464711 0.92083,-3.5512591 2.13546,-4.0740751 1.12988,-0.486326 2.70688,0.565573 3.42189,1.368044 1.69062,1.897464 2.47379,5.2702451 1.1524,7.6163591 -0.17001,0.301921 -0.41555,0.577342 -0.76497,0.654981 -1.3688,0.304123 -5.00075,-0.439674 -4.8867,2.054691 0.0965,2.112348 3.18634,1.524254 4.29438,0.902631 0.40783,-0.228769 0.86478,-0.675894 1.35466,-0.693166 0.41665,-0.01473 0.79799,0.396579 0.99788,0.722207 0.7377,1.201335 0.97333,4.310125 0.11938,5.499692 -0.71204,0.99187 -1.89458,1.339173 -2.68876,2.212255 -0.88552,0.973582 -1.77055,2.919984 -0.45923,3.936238 0.79951,0.619591 1.88824,0.242232 2.53873,-0.389128 1.25874,-1.221824 1.59478,-2.95385 2.0845,-4.57073 0.16069,-0.53069 0.69621,-1.577763 1.3865,-1.464479 0.83896,0.137668 0.58597,1.474131 0.53128,2.057146 -0.1491,1.589532 -0.007,3.554645 1.50105,4.446439 2.40818,1.424094 3.09593,-1.892977 4.48768,-2.844884 0.46194,-0.315976 2.51841,-0.874861 2.21361,-1.745234 -0.19846,-0.566759 -1.06875,0.124036 -1.45195,-0.03878 -0.42825,-0.181948 -0.69732,-0.60308 -1.10067,-0.82169 -0.68317,-0.370416 -1.7316,0.06536 -1.7421,0.91948 -0.0101,0.819828 0.90703,1.448393 0.44069,2.286 -0.98704,1.772751 -2.46245,0.82296 -2.54262,-0.846666 -0.0686,-1.428242 0.60579,-2.818215 1.02065,-4.148667 0.18839,-0.604096 0.25417,-1.326726 0.60969,-1.862666 0.62086,-0.935906 1.6333,-1.6118 2.36711,-2.455334 0.85014,-0.977307 1.45279,-2.093891 2.07729,-3.217333 0.68064,-1.224365 1.78613,-3.029458 1.61993,-4.487333 -0.0272,-0.238506 -0.14309,-0.462958 -0.24629,-0.676995 -1.06155,-2.2006561 -3.3672,0.343831 -4.11548,1.439079 -0.94539,1.383708 -1.66116,3.118189 -2.31106,4.656582 -0.62594,1.481498 -0.92643,3.550836 -1.89179,4.826 -0.3302,0.436288 -0.97884,1.425871 -1.61036,0.875708 -0.37533,-0.326983 -0.26357,-0.94378 -0.28296,-1.383708 -0.0307,-0.69452 -0.20591,-1.506474 -0.54161,-2.116582 -0.46,-0.835998 -1.66489,-1.477602 -1.80552,-2.455418 -0.12251,-0.852 0.70875,-2.196676 0.93735,-3.048 0.75167,-2.799164 0.31707,-5.4238311 -2.22758,-7.1920941 -3.45711,-2.402332 -8.75996,-1.458637 -11.889236,1.181947 -0.48658,0.410548 -2.2862536,2.6530301 -2.7105186,1.268391 -0.818811,-2.671826 1.428411,-4.996519 3.9317546,-5.450925 4.93674,-0.896112 10.05924,1.196848 14.98599,0.256202 1.95834,-0.373804 3.80095,-0.726525 5.50334,-1.838791 0.40233,-0.262805 1.57708,-0.96257501 1.26001,-1.58961701 -0.37965,-0.750654 -2.29896,0.22623 -2.86868,0.363559 -2.95478,0.71187701 -5.8801,0.74430501 -8.89,0.54779301 -4.92768,-0.32164801 -12.8691616,-1.96316601 -15.0173236,4.240869 -0.434848,1.255861 -0.267123,2.450507 0.0033,3.725333 0.136313,0.642705 0.503343,1.2991261 0.348573,1.9714631 -0.138176,0.600541 -0.504275,1.163659 -0.693505,1.75387 -0.552027,1.721782 -0.975275,3.417316 -0.797983,5.249334 0.161713,1.67132 0.426381,3.54948 1.155954,5.079999 0.410294,0.860722 1.61036,2.029037 1.321138,3.047916 -0.144018,0.507238 -0.717465,0.795866 -1.221486,0.668697 -1.201081,-0.303276 -2.371471,-0.842433 -3.640666,-0.877316 -0.542764,-0.01499 -1.076461,0.214037 -1.601021,0.332825 -0.736084,0.166624 -1.81988505,0.742865 -1.73717405,1.653878 m 1.68498205,0.169334 c -0.07912,-0.450512 0.35416,-0.762085 0.721952,-0.907373 0.701464,-0.277029 3.357812,-0.493945 3.503185,0.568706 0.07383,0.539073 -0.56465,0.73025 -0.963253,0.845481 -0.81931,0.236898 -3.027984,0.824992 -3.261884,-0.506814 m 4.814088,-12.615338 c 0,-0.06545 0.04216,-0.01355 0.02828,0.02819 l -0.02828,-0.02819 m 0.75794,2.201333 c -0.1535,-1.301157 0.140378,-2.581741 0.547201,-3.81 0.144441,-0.436033 0.318939,-1.075182 0.707813,-1.351957 0.236474,-0.168402 0.556768,-0.233596 0.837523,-0.153501 0.397933,0.113538 0.7224596,0.409871 1.1006656,0.568113 0.723221,0.302684 1.954871,0.276437 2.104221,1.276012 0.12353,0.827447 -0.32309,1.827022 -0.5174,2.624666 -0.45051,1.849713 -0.88214,3.633047 -1.55778,5.418667 -0.210905,0.55753 -0.6076526,2.33282 -1.4671036,2.132584 -0.655828,-0.152739 -0.755819,-1.011513 -0.917871,-1.539917 -0.514604,-1.678263 -0.63373,-3.440176 -0.837269,-5.164667 m 0.314537,10.16 0.08467,0.08467 -0.08467,-0.08467 m 0.800517,5.926667 c -0.01795,-0.785783 0.243417,-3.421803 1.39954,-3.27897 0.8676636,0.107188 0.9996586,2.185924 1.0159996,2.855637 0.02167,0.885029 0.103632,2.122932 -0.701548,2.724683 -1.2490866,0.933569 -1.6967196,-1.548587 -1.7139916,-2.30135 M 9.4897294,11.27498 c -0.23224,-0.631613 0.310134,-1.261449 0.7254236,-1.6692031 1.038689,-1.019726 2.144519,-1.845564 3.372189,-2.629324 0.31445,-0.200744 1.64135,-0.912114 1.89289,-0.331216 0.28872,0.666666 -0.66649,1.48971 -0.93937,2.005076 -0.46736,0.88282 -0.86851,1.7706341 -1.21201,2.7093331 -0.19465,0.531961 -0.39183,1.077214 -1.01159,1.214628 -0.51131,0.113454 -1.06342,-0.219456 -1.52392,-0.391583 C 10.289491,11.994308 9.6994494,11.84521 9.4897294,11.27498 m 3.6386326,16.932064 c -0.1999,-0.656336 0.59063,-0.792396 1.05156,-0.879856 0.88257,-0.167302 2.86681,-0.299382 3.1794,0.888746 0.15037,0.571669 -0.37084,1.066122 -0.89332,1.136904 -0.81948,0.110913 -3.05705,-0.225044 -3.33764,-1.145794 m 5.06815,-9.9927 c -0.31852,-1.185502 2.25044,-1.726099 2.54364,-0.754972 0.3484,1.153837 -2.22284,1.948688 -2.54364,0.754972 m 2.99892,10.671298 c -0.10769,-0.784352 0.59284,-1.704001 1.13707,-2.192613 0.35425,-0.317923 0.93193,-0.342815 1.02388,0.245703 0.10905,0.698246 -0.54695,1.914398 -1.05198,2.350939 -0.42681,0.368808 -1.02684,0.19448 -1.10897,-0.404029 m 10.59535,-10.329315 c 0,-1.847511 0.9829,-3.999569 1.79468,-5.648537 0.2413,-0.49022 0.95733,-1.806194 1.63991,-1.097872 0.42969,0.445939 -0.0113,1.363133 -0.20032,1.835742 -0.51807,1.295062 -1.19414,2.616031 -1.90898,3.81 -0.35357,0.59055 -0.5803,1.091862 -1.32529,1.100667 m 4.21615,11.175983 c 0.46651,1.834303 3.89924,1.399794 3.27575,-0.677334 -0.54745,-1.823804 -3.71,-1.030308 -3.27575,0.677334 m 2.62857,-4.661656 c 0.12878,0.412834 0.62221,0.352975 0.84396,0.06604 0.45423,-0.587756 0.75107,-1.406737 1.02099,-2.093045 1.19524,-3.038771 2.38963,-6.098116 3.78265,-9.059333 0.5246,-1.115229 1.5345,-2.653284 0.97739,-3.894666 -0.24629,-0.5488101 -1.00008,-2.1218321 -1.78443,-1.6300881 -0.43392,0.272034 -0.47269,0.757852 -0.59521,1.206754 -0.23351,0.8557261 -0.5472,1.6796171 -0.7741,2.5400001 -0.83939,3.182197 -1.83388,6.306735 -2.67386,9.482667 -0.21489,0.81263 -0.40124,1.635421 -0.59859,2.455333 -0.0671,0.278976 -0.28889,0.637455 -0.1988,0.926338 m 2.21498,-4.65168 0.0847,0.08467 -0.0847,-0.08467"
       id="path39"
       sodipodi:nodetypes="ccsscccssscccccsccssscscsccscsccscsccsssssscscsssccscsccscsscsccscccccsscscsccccccccccccccscscccccccccccscccccsccsccccccccccccccccccccsccsccscssscccccccc" />
  </g>
</svg>
