<?xml version="1.0" encoding="UTF-8" standalone="no"?>
<!-- Created with Inkscape (http://www.inkscape.org/) -->

<svg
   width="42.417717mm"
   height="36.556713mm"
   viewBox="0 0 42.417717 36.556713"
   version="1.1"
   id="svg5"
   inkscape:version="1.1.1 (c3084ef, 2021-09-22)"
   sodipodi:docname="burggraf.svg"
   xmlns:inkscape="http://www.inkscape.org/namespaces/inkscape"
   xmlns:sodipodi="http://sodipodi.sourceforge.net/DTD/sodipodi-0.dtd"
   xmlns="http://www.w3.org/2000/svg"
   xmlns:svg="http://www.w3.org/2000/svg">
  <sodipodi:namedview
     id="namedview7"
     pagecolor="#ffffff"
     bordercolor="#666666"
     borderopacity="1.0"
     inkscape:pageshadow="2"
     inkscape:pageopacity="0.0"
     inkscape:pagecheckerboard="0"
     inkscape:document-units="mm"
     showgrid="false"
     inkscape:zoom="3.6233469"
     inkscape:cx="54.093634"
     inkscape:cy="171.5265"
     inkscape:window-width="1312"
     inkscape:window-height="969"
     inkscape:window-x="1818"
     inkscape:window-y="86"
     inkscape:window-maximized="0"
     inkscape:current-layer="layer1" />
  <defs
     id="defs2" />
  <g
     inkscape:label="Layer 1"
     inkscape:groupmode="layer"
     id="layer1">
    <path
       style="fill:#000000;stroke:none;stroke-width:0.0846667"
       d="m 15.185833,1.6911638 c -1.756241,0.17009 -3.781383,-0.0143 -5.5033331,0.44483 -3.777065,1.00711 -7.877624,4.59732 -7.245139,8.8685002 0.191093,1.29049 0.830174,2.34391 1.911139,3.09406 0.401684,0.27872 1.774105,0.5566 1.629664,1.2236 -0.09906,0.45771 -0.684581,0.58581 -1.036998,0.76996 -0.905814,0.47303 -1.647097,0.98747 -2.352048,1.73567 -2.78980101,2.96079 -3.6094163,7.8922 -1.039063,11.28217 1.695788,2.23653 4.694385,3.01261 7.370445,2.1223 1.069255,-0.35573 2.0868641,-0.74215 3.1326661,-1.17649 0.324951,-0.13487 0.813816,-0.60824 1.098296,-0.15096 0.182372,0.2932 0.216408,1.29588 -0.108288,1.50357 -0.685377,0.43837 -1.956901,6.6e-4 -2.768008,0.2657 -1.1053231,0.36119 -2.3978441,1.49565 -2.7847711,2.61376 -0.239437,0.69184 -0.108627,1.63161 0.597916,1.99594 0.270764,0.13965 0.619337,0.1859 0.916855,0.23799 1.1911761,0.20856 2.5844501,-0.55328 3.4624441,-1.30417 0.441113,-0.37729 0.687832,-1.12541 1.363641,-1.14025 0.853355,-0.0187 1.755225,0.56355 2.539915,0.84281 1.57607,0.56092 3.133175,1.00554 4.826,0.8871 0.867918,-0.0607 1.951144,-0.71452 2.709334,-1.12072 3.829473,-2.05164 5.983054,-5.95588 5.296831,-10.30471 -0.182033,-1.15367 -0.764455,-2.45313 -1.512231,-3.35068 -0.368808,-0.44264 -1.349164,-1.00796 -1.470068,-1.56329 -0.11176,-0.5135 0.48658,-1.02734 0.717042,-1.43603 0.587756,-1.0425 1.022858,-2.21505 1.267799,-3.38666 0.639318,-3.0574 -0.05622,-6.6289802 -2.863342,-8.4641302 -1.246039,-0.81458 -2.712297,-0.8421 -4.130971,-1.02074 -0.415121,-0.0523 -0.849806,-0.06193 -1.291004,-0.04906 -0.578273,0.0169 -1.031064,0.101971 -1.602141,0.177841 -2.811695,0.37371 -5.617972,1.3699 -7.789249,3.27778 -0.7049341,0.61942 -1.4341681,1.29913 -1.9989801,2.0502002 -0.383455,0.50995 -0.801878,1.28939 -1.325033,1.65634 -0.424095,0.29743 -0.859875,-0.008 -1.26238,-0.17298 -1.342788,-0.54864 -1.798481,-2.3866602 -1.664504,-3.7205902 0.235898,-2.34865 2.989114,-3.08644 4.803944,-3.77029 3.7212691,-1.40225 7.4225571,-0.39827 11.1836201,-0.0261 1.883918,0.18644 3.811524,0.0399 5.672667,-0.17204 1.959017,-0.2231 3.697986,-0.94259 5.187611,-2.26856 0.427228,-0.38032 1.198626,-0.85505 1.282954,-1.46802998 0.07408,-0.53908 -0.365083,-0.81026 -0.846328,-0.60766 -0.916009,0.38566 -1.720511,1.26220998 -2.660904,1.70272998 -3.253571,1.52409 -6.824387,0.54272 -10.244667,0.2678 -0.901869,-0.0725 -2.501151,-0.217523 -3.471333,-0.34654 M 5.7031659,17.354495 c 0.525696,0.86521 0.314537,1.73626 1.221571,2.45601 1.422908,1.12911 3.3833651,-0.003 3.3983511,-1.77868 0.0093,-1.10845 -0.5001261,-1.78384 -1.4871701,-2.27575 -0.262975,-0.13107 -1.113028,-0.16341 -1.206416,-0.46829 -0.13572,-0.44298 0.770128,-0.44036 1.012868,-0.44798 0.966385,-0.0306 2.0891501,-0.34577 2.9841611,-0.72432 0.588941,-0.24917 1.030055,-0.71916 1.696635,-0.74032 0.134705,0.7283 -0.163406,1.24773 -0.243078,1.94733 -0.151892,1.33341 -0.274235,2.99085 -0.119718,4.318 0.200829,1.72618 0.04741,3.53289 0.135212,5.24933 0.04581,0.89417 0.392007,1.80332 0.154856,2.70934 -0.196342,0.75032 -0.906611,0.9238 -1.535938,1.20845 -1.477688,0.66844 -3.3718501,1.13893 -4.9953341,0.78494 -4.186233,-0.91279 -6.34720601,-6.593 -3.933732,-10.20276 0.654643,-0.97908 1.838791,-1.63804 2.917732,-2.0353 m 1.947334,0.08465 c 0.195326,0.013 0.349673,0.0448 0.532214,0.11811 1.446107,0.58081 -0.346032,1.71119 -0.57387,0.47438 -0.03539,-0.19244 0.01803,-0.40123 0.04166,-0.59249 m 19.3040001,8.382 c -1.028531,-5.9e-4 -2.223178,-0.0542 -3.023786,-0.77758 -0.302006,-0.27297 -0.957072,-1.2479 -1.441704,-0.979 -1.732957,0.96164 -0.169079,2.78858 -0.706797,4.29658 -0.123105,0.34536 -0.46863,1.47015 -0.930148,1.47015 -0.382947,0 -0.505375,-1.01837 -0.571839,-1.30082 -0.286004,-1.21505 -0.612055,-2.78909 -1.707811,-3.56083 -1.359831,-0.95775 -1.947164,1.06765 -3.132582,1.19017 -0.361273,-1.62087 -0.166963,-3.32868 -0.14478,-4.99534 0.03175,-2.38591 -0.06909,-4.72677 0.06375,-7.112 0.04724,-0.84853 0.378714,-1.65159 0.617389,-2.45533 0.104818,-0.35298 0.301244,-0.81263 0.149691,-1.17611 -0.157057,-0.3766 -0.55372,-0.34518 -0.840994,-0.13834 -1.590379,1.14503 -3.005751,1.68698 -4.840393,2.35923 -0.392261,0.14368 -1.8436171,0.41521 -1.8615661,-0.28439 -0.01126,-0.43934 0.512064,-0.83126 0.796544,-1.09898 0.9308251,-0.87613 1.9950001,-1.5896102 3.0970221,-2.2255402 3.946652,-2.27762 11.440414,-3.37829 13.512969,1.9714602 0.697823,1.80137 0.363897,4.35559 -0.294386,6.0993 -0.197358,0.52273 -0.288205,1.42867 -0.861907,1.69528 -0.951484,0.44213 -2.214372,-0.54161 -3.212676,-0.41732 -1.183217,0.14724 -2.38269,1.12657 -3.185838,1.95047 -0.315637,0.32376 -0.739902,0.84666 -0.560408,1.33265 0.682074,1.84649 3.595878,1.16163 4.846912,0.56854 0.486664,-0.23072 0.959104,-0.64254 1.52273,-0.64229 1.026584,3.4e-4 1.881378,1.64838 2.229951,2.45204 0.252053,0.58106 0.475403,1.1397 0.480653,1.778 m -17.6837341,8.04518 c 0.119464,-0.71662 1.6864751,-0.62668 2.1910041,-0.47755 0.258487,0.0764 0.673269,0.20984 0.626787,0.55406 -0.129879,0.96134 -2.9883951,0.94584 -2.8177911,-0.0765 m 5.5356961,-2.37284 c -0.144188,-0.50158 0.230378,-1.32886 0.290491,-1.86234 0.05148,-0.45737 0.08882,-1.00542 0.242485,-1.43933 0.353314,-0.99772 1.743033,-2.02642 2.451778,-0.76192 0.675894,1.20599 0.459824,2.53238 0.715941,3.80992 0.08035,0.40094 0.361442,0.99118 0.827447,1.02338 0.5715,0.0395 1.139021,-0.55017 1.527218,-0.88907 0.702902,-0.6137 1.329351,-1.25335 1.846156,-2.03288 0.382694,-0.57726 0.445432,-1.61883 1.19888,-1.8636 0.271696,-0.0883 0.567098,-0.009 0.846244,-0.0294 0.729403,-0.0533 2.083223,-0.74083 2.460244,0.1513 0.244009,0.57726 -0.349081,1.8807 -0.551773,2.45491 -0.279231,0.79104 -0.710692,1.74146 -1.337649,2.32383 -1.957578,1.81829 -5.329851,1.55209 -7.605691,0.60514 -0.785283,-0.32678 -2.637197,-0.5347 -2.911771,-1.48996 m 5.304941,-10.5828 c 0.06274,-0.48692 1.640078,-0.82279 1.544489,-0.17619 -0.07501,0.50774 -1.628986,0.83235 -1.544489,0.17619 m 10.822416,3.89438 c -0.07019,0.5135 -0.444161,0.89069 -0.414189,1.43933 0.04504,0.82449 0.753364,1.55889 0.949028,2.37067 0.351621,1.45855 0.32402,2.93216 0.51706,4.40267 0.07095,0.53998 0.04555,2.66068 1.064768,2.25778 1.060788,-0.41934 0.861906,-1.69773 0.776393,-2.59645 -0.122682,-1.2892 0.06646,-2.60282 -0.02201,-3.89467 -0.05097,-0.74489 -0.369062,-1.7316 -0.08602,-2.45406 0.228431,-0.58318 0.843026,-0.66717 1.363642,-0.83947 0.739055,-0.24452 2.077212,-0.6875 2.62128,-1.23859 0.710099,-0.71942 0.216238,-1.34366 -0.670645,-1.30522 -0.489627,0.0212 -0.829649,0.33968 -1.273302,0.50884 -0.698669,0.26636 -1.430867,0.36517 -2.116667,0.67183 -0.0026,-0.95055 -0.168402,-1.8536 0.110406,-2.79366 0.414866,-1.39878 1.485984,-2.69257 2.04216,-4.06434 0.480144,-1.18448 0.887984,-2.52848 0.975529,-3.81 0.07315,-1.07069 0.382101,-2.70603 6.77e-4,-3.7253302 -0.829902,-2.21751 -3.052826,-0.76556 -3.854958,0.6846102 -1.882563,3.40343 -0.894842,7.82083 -1.406482,11.5073 -0.133266,0.96004 -1.431798,1.28838 -1.639062,2.20134 -0.153755,0.67742 0.611208,0.67708 1.062397,0.67742 m -1.016,-22.7753402 h 0.169333 v 0.16934 h -0.169333 v -0.16934 m 3.861068,15.2258602 c -0.206248,-0.45618 0.02066,-1.11785 0.03234,-1.59452 0.03548,-1.44831 0.176276,-2.79934 0.344254,-4.23334 0.03827,-0.32698 0.445855,-1.5322902 0.924645,-0.81966 0.220557,0.32817 0.08704,1.03226 0.08704,1.41233 0,1.39598 -0.277029,2.87841 -0.6223,4.23333 -0.04902,0.19237 -0.469138,1.65845 -0.765979,1.00186 m 5.516116,11.69816 c 0.470493,1.86072 2.584789,0.60833 2.173647,-0.84667 -0.416814,-1.47481 -2.47633,-0.35044 -2.173647,0.84667 M 41.855833,8.1257348 c -1.551009,0.35594 -1.252728,1.9107602 -1.36906,3.1326702 -0.299974,3.15205 -0.540681,6.38903 -0.493861,9.56733 0.0086,0.58073 0.07552,1.20168 -0.01871,1.778 -0.104902,0.64195 -0.542459,1.55042 0.283972,1.96943 0.464481,0.23546 0.983573,-0.13953 1.218099,-0.53771 0.424773,-0.72111 0.23114,-1.96563 0.287359,-2.78638 0.201168,-2.93828 0.131657,-5.87909 0.444923,-8.80534 0.146643,-1.36948 0.52849,-3.2064902 -0.352721,-4.3180002"
       id="path28"
       sodipodi:nodetypes="ccsccccsscccsccsccccssccccccccscccscccccccsccscscccccccccsccccccccccscccscsccccccccccccsccccscccccccscscscscccccccsccsscccccccscscccccccccccsccssccccccccccccc" />
  </g>
</svg>
