<?xml version="1.0" encoding="UTF-8" standalone="no"?>
<!-- Created with Inkscape (http://www.inkscape.org/) -->

<svg
   width="38.910015mm"
   height="35.100624mm"
   viewBox="0 0 38.910015 35.100624"
   version="1.1"
   id="svg5"
   inkscape:version="1.1.1 (c3084ef, 2021-09-22)"
   sodipodi:docname="franko alemannia.svg"
   xmlns:inkscape="http://www.inkscape.org/namespaces/inkscape"
   xmlns:sodipodi="http://sodipodi.sourceforge.net/DTD/sodipodi-0.dtd"
   xmlns="http://www.w3.org/2000/svg"
   xmlns:svg="http://www.w3.org/2000/svg">
  <sodipodi:namedview
     id="namedview7"
     pagecolor="#ffffff"
     bordercolor="#666666"
     borderopacity="1.0"
     inkscape:pageshadow="2"
     inkscape:pageopacity="0.0"
     inkscape:pagecheckerboard="0"
     inkscape:document-units="mm"
     showgrid="false"
     inkscape:zoom="1.8116734"
     inkscape:cx="82.244403"
     inkscape:cy="118.39882"
     inkscape:window-width="1312"
     inkscape:window-height="969"
     inkscape:window-x="1809"
     inkscape:window-y="216"
     inkscape:window-maximized="0"
     inkscape:current-layer="layer1" />
  <defs
     id="defs2" />
  <g
     inkscape:label="Layer 1"
     inkscape:groupmode="layer"
     id="layer1">
    <path
       style="fill:#000000;stroke:none;stroke-width:0.0846667"
       d="m 21.068001,33.135876 c 1.249511,-0.053 2.420705,0.1129 3.410543,-0.86437 0.557445,-0.55043 0.958088,-1.1668 1.337991,-1.84488 0.12293,-0.21954 0.32554,-0.59783 0.63119,-0.56642 0.34518,0.0355 0.56337,0.5417 0.71331,0.79646 0.49818,0.84611 0.7377,1.61452 0.97392,2.56263 0.13454,0.53977 0.63686,0.84744 1.14563,0.53106 0.58953,-0.36659 0.78917,-1.03578 1.04791,-1.63048 0.27627,-0.63518 0.74016,-1.17168 0.89789,-1.86267 0.23098,-1.01134 0.0499,-2.14715 0.4274,-3.13258 0.30074,-0.78512 1.46143,-1.04437 1.93252,-1.79256 0.35357,-0.56151 0.68478,-1.88181 -0.17162,-2.22005 -1.05486,-0.41664 -0.68826,1.61849 -1.35043,1.86995 -0.36644,0.13911 -0.47515,-0.42875 -0.54323,-0.65151 -0.20658,-0.67623 -1.17822,-1.45788 -1.83396,-0.7913 -1.47041,1.49462 0.82829,2.89713 0.6273,4.34738 -0.07,0.50512 0.0732,1.34443 -0.52909,1.59707 -0.48471,0.20337 -0.8244,-0.58276 -0.9508,-0.91973 -0.32724,-0.87224 -0.52553,-1.88536 -0.94471,-2.70807 -0.15884,-0.31182 -0.41571,-0.70756 -0.8117,-0.71484 -0.80713,-0.0149 -1.10896,1.3948 -1.28532,1.98357 -0.448823,1.49843 -1.244944,3.52866 -2.946405,3.94138 -0.775208,0.18805 -1.766655,-0.40663 -1.411478,-1.30232 0.181271,-0.4572 0.605028,-0.81153 0.877993,-1.21412 0.495893,-0.73143 0.822875,-1.53162 1.125305,-2.35627 0.168063,-0.45822 0.50546,-1.17924 0.02388,-1.5792 -1.050714,-0.87266 -1.537547,1.89069 -1.803908,2.41147 -0.185928,0.36348 -0.569384,0.99196 -0.940816,0.4324 -0.385826,-0.58124 -0.361358,-1.68995 -0.425704,-2.36534 -0.07967,-0.83642 -0.305986,-1.71052 -0.322326,-2.54 -0.01609,-0.81584 0.187706,-1.71213 0.244432,-2.54 0.05283,-0.77012 -0.08822,-1.80992 0.408009,-2.45033 0.359156,-0.46355 0.95377,-0.34553 1.462278,-0.48972 0.929725,-0.26356 1.771142,-0.91457 2.027343,-1.88595 0.230971,-0.87545 -0.132164,-1.65184 -1.014645,-1.93328 -0.575141,-0.18347 -1.644819,-0.40047 -1.578525,-1.19938 0.135551,-1.63246 1.221655,-3.4222304 1.848188,-4.9106704 0.214376,-0.50944 0.714587,-1.40039 0.2159,-1.87435 -0.823468,-0.78266 -2.738035,0.0241 -3.494024,0.56244 -1.281006,0.91228 -2.633895,2.01744 -3.505877,3.35153 -0.726525,1.1115004 -1.087797,2.8328604 -2.217759,3.6492204 -0.84946,0.61375 -1.386924,-0.63729 -1.568534,-1.28617 -0.310473,-1.10939 -0.225976,-2.3034504 0.137075,-3.3833704 0.292862,-0.87122 0.336635,-1.67691 0.955887,-2.4439 3.049693,-3.77774 8.368792,-1.51901 12.257701,-1.21649 0.82652,0.0643 1.63821,-0.033 2.4533,-0.14995 1.90534,-0.27322 3.93048,-1.08568 5.50333,-2.18812 0.5119,-0.3589 1.53636,-1.1469 0.995,-1.85319 -0.60612,-0.7907 -2.02463,0.14859 -2.68503,0.38329 -2.26873,0.80628 -4.92904,0.0968 -7.28133,0.13555 -1.956901,0.0322 -4.056211,-0.35755 -6.011333,-0.0142 -0.513758,0.0902 -0.961729,0.37532 -1.442636,0.54999 -2.91575,1.05918 -5.952151,3.05334 -6.577499,6.37041 -0.221911,1.17686 -0.357124,2.8276104 0.037,3.9793304 0.241639,0.70646 1.33731,1.87562 1.073658,2.62458 -0.212852,0.60469 -1.197186,1.29388 -1.658789,1.74938 -1.0883053,1.07409 -2.2618703,2.30124 -2.9679903,3.67699 -1.102783,2.14859 -1.726438,4.56769 -0.954786,6.93505 0.258318,0.79273 0.64135,1.63745 1.038606,2.37067 0.161036,0.29735 0.512742,0.65328 0.464905,1.016 -0.195072,1.48 -2.628815,2.17405 -3.829135,2.01605 -1.177103,-0.15494 -2.679852,-1.13906 -2.708029,-2.43939 -0.0076,-0.35255 0.0027,-0.87071 0.295876,-1.12242 0.459334,-0.39446 0.946946,0.30293 1.311808,0.50867 1.041544,0.58717 2.345199,0.009 2.292029,-1.24891 -0.01251,-0.29532 0.04123,-0.63593 -0.0679,-0.91694 -0.620378,-1.59826 -2.998131,-1.71095 -4.119719,-0.68411 -0.47790103,0.43756 -0.57395503,0.87384 -0.82125803,1.43137 -0.81545,1.83837 -0.656184,3.24299 0.85719103,4.73802 1.771777,1.75033 4.33473,1.76516 6.431331,0.69112 0.606805,-0.31087 0.961559,-1.34632 1.693079,-1.34637 0.7177193,-5e-5 1.5394093,0.99161 2.2003173,1.27953 1.142831,0.49785 2.746925,0.57525 3.980603,0.50036 0.872152,-0.053 1.849713,-0.4527 2.624582,-0.83771 0.471001,-0.23404 0.868172,-0.69795 1.439334,-0.60227 0.508254,0.0851 1.034457,0.70157 1.354751,1.081 m -7.958755,-17.27182 c 1.012952,0.29387 0.141563,1.98069 -0.1281,2.62466 -0.854541,2.04055 -1.49623,4.27271 -1.954361,6.43467 -0.14605,0.68902 -0.484886,2.47074 -1.1021063,2.87596 -0.376343,0.24705 -0.646091,-0.18712 -0.694436,-0.50538 -0.135551,-0.8934 -0.431546,-1.79154 -0.219287,-2.70925 0.286597,-1.23918 0.503005,-2.55066 0.9983903,-3.72533 0.774954,-1.83777 1.951566,-3.38963 3.0999,-4.99533 m -2.410921,13.88522 c -0.21463,-0.82965 0.96647,-2.31547 1.228683,-3.13259 0.621961,-1.93793 1.23444,-3.96231 1.73736,-5.92666 0.290237,-1.13361 0.484208,-2.67759 1.206161,-3.62966 0.600879,-0.7924 1.881971,-0.20888 2.641346,0.0483 0.399119,0.13513 0.768604,0.15249 0.910421,0.61925 0.226652,0.746 -0.480399,2.15384 -0.557361,2.96207 -0.216408,2.27203 -0.21844,4.48725 0,6.77333 0.07908,0.82796 0.85852,2.41029 0.384725,3.12174 -0.256624,0.38537 -0.68563,0.51853 -1.076536,0.71667 -1.650916,0.83693 -3.671316,0.68889 -5.200227,-0.36532 -0.457877,-0.31579 -1.121833,-0.59705 -1.274572,-1.18717 m 4.949651,-14.90155 c -0.07231,-1.28084 3.200146,-1.59461 3.294973,-0.33833 0.112861,1.49471 -0.855641,1.61993 -2.023703,1.20616 -0.431884,-0.15299 -1.23808,-0.27813 -1.27127,-0.86783 m 1.154348,-2.96461 c -0.07264,-0.47277 0.402505,-0.86351 0.649393,-1.20455 0.730165,-1.0084604 1.359408,-1.9654504 2.276009,-2.8231204 0.197189,-0.18458 1.197864,-1.25925 1.43908,-0.68504 0.127846,0.30412 -0.08382,0.86876 -0.193294,1.15832 -0.158327,0.41885 -0.445601,0.77335 -0.609346,1.18534 -0.30751,0.7734304 -0.359326,2.0695004 -1.111843,2.5693804 -0.425704,0.28287 -2.342557,0.49919 -2.449999,-0.20033 m 4.147305,3.63728 c -0.384472,-0.95216 0.898228,-2.07577 1.387432,-0.92269 0.337905,0.79654 -1.035473,1.79425 -1.387432,0.92269 m 14.511626,16.68433 c -0.35255,0.59342 -0.64813,1.14432 -0.47261,1.86267 0.24502,1.00264 1.50283,1.31164 2.29904,0.76762 0.70002,-0.47835 1.33544,-2.26625 0.35704,-2.78557 -0.69859,-0.37074 -1.51359,-0.0139 -2.18347,0.15528 m -0.3654,-21.67466 c 0.14952,0.50757 0.0305,0.7708 0.0533,1.27 0.06,1.31605 0.17263,2.65269 0.2308,3.97933 0.029,0.66108 0.28236,1.28448 0.32775,1.94733 0.1419,2.07146 0.0923,4.18796 0.0923,6.26534 0,1.10032 -0.0146,2.20175 3.3e-4,3.302 0.006,0.45119 0.11295,1.0248 0.59394,1.20675 0.4379,0.16569 0.81847,-0.22039 0.90644,-0.62848 0.25019,-1.1601 0.16773,-2.57844 0.32792,-3.76809 0.45229,-3.35983 0.48454,-6.73515 0.81043,-10.10285 0.15832,-1.63644 0.69164,-3.51799 0.36931,-5.1643304 -0.20786,-1.06146 -1.4246,-1.43586 -2.33104,-1.03276 -1.10803,0.49259 -1.74236,1.50046 -1.38142,2.7257604"
       id="path39"
       sodipodi:nodetypes="cccsccsccssscccsccscsssssssssscscccccscscsscscccscscccscscccscccscsssssscscccccscsccccsscsccscccccscccccscccccccccccccscscccccccc" />
  </g>
</svg>
