<?xml version="1.0" encoding="UTF-8" standalone="no"?>
<!-- Created with Inkscape (http://www.inkscape.org/) -->

<svg
   width="30.972612mm"
   height="36.422123mm"
   viewBox="0 0 30.972612 36.422123"
   version="1.1"
   id="svg5"
   inkscape:version="1.1.1 (c3084ef, 2021-09-22)"
   sodipodi:docname="frankonia czernowitz.svg"
   xmlns:inkscape="http://www.inkscape.org/namespaces/inkscape"
   xmlns:sodipodi="http://sodipodi.sourceforge.net/DTD/sodipodi-0.dtd"
   xmlns="http://www.w3.org/2000/svg"
   xmlns:svg="http://www.w3.org/2000/svg">
  <sodipodi:namedview
     id="namedview7"
     pagecolor="#ffffff"
     bordercolor="#666666"
     borderopacity="1.0"
     inkscape:pageshadow="2"
     inkscape:pageopacity="0.0"
     inkscape:pagecheckerboard="0"
     inkscape:document-units="mm"
     showgrid="false"
     inkscape:zoom="1.2810466"
     inkscape:cx="-109.28564"
     inkscape:cy="250.18606"
     inkscape:window-width="1312"
     inkscape:window-height="969"
     inkscape:window-x="2079"
     inkscape:window-y="215"
     inkscape:window-maximized="0"
     inkscape:current-layer="layer1" />
  <defs
     id="defs2" />
  <g
     inkscape:label="Layer 1"
     inkscape:groupmode="layer"
     id="layer1">
    <path
       style="fill:#000000;stroke:none;stroke-width:0.0846667"
       d="m 18.34329,29.557667 c 0.38139,0.999448 0.79327,1.909333 1.19705,2.85285 0.25408,0.59375 0.48714,1.31838 0.77687,1.888094 0.19982,0.392972 0.65702,0.648267 1.0563,0.360875 0.45085,-0.324511 0.56905,-0.972152 0.74084,-1.461152 0.35128,-0.999583 0.57378,-2.005305 0.76174,-3.048 0.0773,-0.428922 0.0286,-0.948013 0.18669,-1.354328 0.21658,-0.556768 0.83422,-0.614088 1.29185,-0.87774 0.7758,-0.446786 1.35204,-1.09347 1.35466,-2.001266 -0.74278,0.07679 -1.00042,0.937091 -1.69333,1.008634 -0.77639,0.08018 -1.72796,-2.107438 -2.59808,-0.658706 -0.56591,0.942086 0.52908,1.392936 0.8321,2.108708 0.3694,0.872659 -0.0437,3.218942 -0.85869,3.722031 -0.70561,-1.694857 -1.59588,-3.37058 -2.59884,-4.910667 -0.29853,-0.4583 -0.97722,-1.485646 -1.56185,-0.728641 -0.41588,0.538565 0.14318,1.26492 0.18856,1.829308 0.0729,0.907119 -0.27339,2.05298 -0.62831,2.878667 -0.72263,1.681031 -1.88756,3.242699 -3.86622,3.379089 -0.44416,0.03061 -1.52544,0.187824 -1.74472,-0.349183 -0.11151,-0.273007 0.14943,-0.599871 0.26974,-0.828573 0.4048,-0.769637 0.96275,-1.400539 1.32004,-2.201333 0.81814,-1.833711 1.34002,-3.975608 1.21209,-6.011334 -0.0667,-1.061974 -0.12378,-2.154851 -0.12581,-3.217333 -6.8e-4,-0.355092 -0.12252,-0.857504 0.0807,-1.172803 0.725,-1.124881 2.70806,2.305474 3.34162,0.2402 0.25172,-0.820336 -0.83379,-1.37812 -1.47497,-1.528318 -0.56973,-0.13352 -1.66269,0.300651 -2.07349,-0.115824 -0.5279,-0.535263 -0.55271,-2.122086 -0.65888,-2.841922 -0.17594,-1.19363 -1.04902,-3.230964 -0.52062,-4.397078 0.20718,-0.45737 0.72915,-0.40513 1.13632,-0.32004 0.96977,0.202776 1.86859,0.762338 2.52442,1.500124 0.19778,0.222504 0.47058,0.531537 0.48108,0.846328 0.0124,0.371686 -0.32656,0.688848 -0.45915,1.016 -0.29964,0.73914 -0.009,1.590463 0.75565,1.865206 1.4594,0.524256 1.96782,-1.81974 1.63932,-2.79654 -0.50496,-1.501309 -2.21852,-2.564214 -3.67132,-2.968498 -0.55143,-0.1535 -1.9619,0.01854 -2.28329,-0.522139 -0.46923,-0.7894318 0.90932,-2.2534028 1.34349,-2.7779978 0.13394,-0.161883 0.55575,-0.739479 0.15079,-0.864785 -0.23673,-0.07332 -0.54314,0.173312 -0.73499,0.282278 -0.60994,0.346456 -1.23394,0.583015 -1.86267,0.885529 -1.8294801,0.880279 -4.0032101,1.25095 -6.0113341,0.920581 -0.889567,-0.146389 -1.944082,-0.565574 -2.309122,-1.474301 -0.881406,-2.194137 1.248681,-3.253571 2.986455,-3.470995 4.0390211,-0.505375 8.2230811,1.379898 12.2766711,0.224198 1.55118,-0.442299 3.39581,-1.009481 4.26762,-2.510537 0.243,-0.418422 0.66311,-1.38277604 0.25333,-1.82253404 -0.33274,-0.356955 -0.83152,0.08805 -1.08552,0.316399 -1.17652,1.05765604 -2.3368,1.34763904 -3.85876,1.52781004 -3.47388,0.411226 -7.01066,0.01651 -10.4986741,0.243078 -2.333921,0.151553 -4.562856,1.051475 -5.439901,3.375914 -0.142765,0.378376 -0.193971,0.785368 -0.236948,1.185334 -0.389196,3.6222088 4.585157,3.5713238 6.946853,3.2976818 0.77317,-0.08958 1.5447401,-0.3329098 2.2860001,-0.5599008 0.24164,-0.07391 0.64423,-0.225637 0.66776,0.178477 0.0981,1.6875758 -1.9114301,2.0692538 -3.0384301,2.7012058 -1.075437,0.60308 -2.065444,1.658958 -2.853521,2.595202 -2.666272,3.16755 -2.124727,8.39978 -1.174945,12.107334 0.217831,0.850307 0.34174,1.82753 0.71131,2.624666 0.481753,1.039148 0.929725,2.199056 1.716109,3.048 0.332147,0.358564 1.293197,0.993233 1.293197,1.522696 0,0.373745 -0.59351,0.660172 -0.877484,0.800803 -1.710775,0.847133 -3.866557,0.02637 -5.245997,-1.064471 -0.775166,-0.612987 -1.45042501,-1.567934 -1.253998,-2.612391 0.109779,-0.583717 0.730834,-0.496104 1.165995,-0.677849 0.558004,-0.233062 0.901057,-0.683794 1.007576,-1.270788 0.172965,-0.953177 -0.463846,-1.914736 -1.515576,-1.765808 -2.07236001,0.293624 -1.92538701,4.018509 -1.45416601,5.406475 0.70614501,2.079921 3.35142801,3.097547 5.34883301,3.287624 1.14664,0.109126 2.332817,-0.226441 3.386667,-0.633756 0.38489,-0.148776 0.74083,-0.543153 1.1494301,-0.603512 0.56151,-0.08297 1.29524,0.283277 1.89857,0.283007 1.21996,-5.51e-4 2.82186,-0.686021 3.72407,-1.491336 0.79298,-0.707754 1.40021,-1.688541 1.71848,-2.704694 0.17102,-0.545913 0.21175,-1.504696 0.82279,-1.693333 M 11.1466,12.37035 c 0,1.548722 -0.0731,3.115733 0.1088,4.656666 0.1049,0.888238 0.48015,2.360168 0.21472,3.217334 -0.27246,0.879856 -1.6179001,1.707726 -2.1949901,2.455672 -0.20582,0.2667 -0.58818,0.714248 -0.44441,1.086188 0.16467,0.426212 0.53721,-0.06409 0.65845,-0.240284 0.39937,-0.580644 2.0987201,-2.909231 2.1995601,-1.015576 0.14621,2.747264 0.0849,5.785019 -0.53256,8.466666 -0.12133,0.526745 -0.90449,2.546748 -1.6873201,2.190098 -0.34011,-0.154973 -0.60283,-0.701116 -0.79358,-1.004764 -0.64211,-1.021961 -0.961307,-2.159847 -1.338581,-3.302 -1.324356,-4.008459 -1.883241,-9.579441 0.326559,-13.377334 0.694692,-1.193969 1.937262,-3.099562 3.4833521,-3.132666 M 27.71703,7.5443252 c 0.0626,4.7306648 0.29489,9.6188948 0.90745,14.3090048 0.15359,1.175597 0.17222,2.49809 0.45246,3.640328 0.0814,0.331978 0.36161,1.034288 0.82965,0.696468 0.39142,-0.282533 0.28601,-0.967232 0.30091,-1.373801 0.0425,-1.160696 0.15875,-2.30522 0.15875,-3.471334 0,-3.591052 0.25645,-7.156873 0.13462,-10.752666 -0.0476,-1.4058898 0.23833,-3.2019238 -0.44569,-4.4869948 -0.42951,-0.807043 -1.50842,-0.941663 -2.0353,-0.15494 -0.28939,0.432054 -0.30954,1.088983 -0.30285,1.593935 m 0.83171,22.3520098 c 0.32571,1.681725 2.76987,1.183589 2.38235,-0.508 -0.35848,-1.564471 -2.69113,-1.086274 -2.38235,0.508"
       id="path21"
       sodipodi:nodetypes="cssscscccscccccccsccscssccccccssccccsccsscsccsccscssscccssssscsssscssssscccccscccccsccsccccscsccccccc" />
  </g>
</svg>
