<?xml version="1.0" encoding="UTF-8" standalone="no"?>
<!-- Created with Inkscape (http://www.inkscape.org/) -->

<svg
   width="39.834278mm"
   height="38.375023mm"
   viewBox="0 0 39.834278 38.375023"
   version="1.1"
   id="svg5"
   inkscape:version="1.1.1 (c3084ef, 2021-09-22)"
   sodipodi:docname="frankonia.svg"
   xmlns:inkscape="http://www.inkscape.org/namespaces/inkscape"
   xmlns:sodipodi="http://sodipodi.sourceforge.net/DTD/sodipodi-0.dtd"
   xmlns="http://www.w3.org/2000/svg"
   xmlns:svg="http://www.w3.org/2000/svg">
  <sodipodi:namedview
     id="namedview7"
     pagecolor="#ffffff"
     bordercolor="#666666"
     borderopacity="1.0"
     inkscape:pageshadow="2"
     inkscape:pageopacity="0.0"
     inkscape:pagecheckerboard="0"
     inkscape:document-units="mm"
     showgrid="false"
     inkscape:zoom="1.8116734"
     inkscape:cx="143.51372"
     inkscape:cy="194.01951"
     inkscape:window-width="1312"
     inkscape:window-height="969"
     inkscape:window-x="1696"
     inkscape:window-y="252"
     inkscape:window-maximized="0"
     inkscape:current-layer="layer1" />
  <defs
     id="defs2" />
  <g
     inkscape:label="Layer 1"
     inkscape:groupmode="layer"
     id="layer1">
    <path
       style="fill:#000000;stroke:none;stroke-width:0.0846667"
       d="m 39.818572,3.4534183 c -0.18078,-1.53543 -2.21137,-2.71195804 -3.23915,-1.011428 -0.36222,0.599356 -0.3668,1.514348 -0.45613,2.19346 -0.15219,1.156885 -0.3375,2.317919 -0.51186,3.471333 -0.69598,4.6040887 -1.26234,9.2055537 -1.97997,13.8006677 -0.23673,1.515618 -0.477008,3.0469 -0.631278,4.572001 -0.0541,0.534839 -0.21937,1.364318 0.0329,1.861396 0.367708,0.724662 1.425618,0.834052 1.949268,0.233257 0.6722,-0.771229 0.80592,-2.379218 0.95334,-3.361352 0.78353,-5.220123 2.05026,-10.36828 2.81393,-15.5819687 0.20282,-1.384639 0.53158,-2.77385 0.78917,-4.148667 0.12179,-0.649987 0.3586,-1.358985 0.27974,-2.028699 m -3.31879,-2.71263504 c -0.29598,-0.906611 -1.06817,-0.80535 -1.80283,-0.605452 -1.45889,0.396833 -2.972468,1.01887904 -4.487328,1.14782604 -2.06494,0.175769 -4.1209,-0.09025 -6.18067,-0.09025 -2.91439,0 -5.73549,0.523155 -8.294367,1.954445 -1.830578,1.023959 -4.05511,3.186261 -3.172714,5.467435 0.93328,2.4124927 5.733201,1.9591027 6.202591,-0.592666 0.33427,-1.816862 -2.144687,-0.383032 -2.778841,-0.0685 -0.201168,0.09974 -0.446701,0.225383 -0.677333,0.221404 -1.277874,-0.02227 -0.633137,-1.527641 -0.0834,-1.971718 0.312759,-0.252645 0.673862,-0.451527 1.01473,-0.663278 0.4434,-0.275421 0.943441,-0.502921 1.439334,-0.668444 4.72897,-1.579033 10.11563,0.727202 14.90133,-0.767757 1.310978,-0.409448 4.552168,-1.42511 3.919488,-3.36304504 M 35.150162,30.374119 c -0.6136,-1.956224 -3.686738,-0.905765 -3.107118,1.016 0.63577,2.107861 3.718018,0.931756 3.107118,-1.016 M 18.610774,17.928109 c -0.20998,-1.661584 0.52815,-3.397843 0.96723,-4.995334 0.16256,-0.591566 0.2744,-1.403435 0.98018,-1.572853 0.47642,-0.114385 0.90399,0.09449 1.26899,0.379053 1.26221,0.984165 0.836,2.792561 0.24638,4.072467 -0.20659,0.448394 -0.59225,0.838623 -0.62205,1.354666 -0.0565,0.977139 1.18898,0.750909 1.73127,0.474642 0.48615,-0.247735 0.7631,-0.721106 1.06417,-1.151975 1.24917,-1.787652 1.44077,-4.577165 -0.23224,-6.204543 -0.53484,-0.5201917 -1.07764,-0.7555657 -1.76327,-1.0082107 -0.29608,-0.109135 -0.77504,-0.172043 -0.9133,-0.501142 -0.11997,-0.285665 0.12014,-0.617982 0.27771,-0.837438 0.44831,-0.624501 2.67377,-3.128349 0.80493,-3.214032 -2.39209,-0.109643 -2.76539,3.428069 -4.23664,4.710431 -0.66497,0.5796277 -1.563032,0.9317567 -2.282614,1.4601607 -1.279059,0.939123 -2.452285,2.134786 -3.50647,3.316309 -3.0125243,3.376846 -4.0652693,8.469377 -4.0652693,12.861799 0,1.676824 0.491405,3.425106 1.242314,4.910667 0.232663,0.460248 1.1082863,1.633813 0.8917933,2.115397 -0.269155,0.598763 -1.1194623,0.887138 -1.6744523,1.125728 -1.608159,0.691388 -2.696633,0.811192 -4.402667,0.650494 -0.797221,-0.0751 -1.834134,-0.308864 -2.139188,-1.183555 -0.154178,-0.442214 0.102362,-0.70121 0.530522,-0.768858 0.75692,-0.119804 1.636945,-0.09364 1.762336,-1.092624 0.127932,-1.019725 -0.69723,-1.78418 -1.67767,-1.854962 -1.528148,-0.110236 -2.99499802,1.634152 -2.85326602,3.125047 0.187621,1.972649 1.20099602,3.409612 3.10726602,4.055195 1.580642,0.535348 4.224867,0.02151 5.672667,-0.750147 1.07061,-0.570568 2.1937133,-1.644226 3.3866663,-1.914144 0.800524,-0.181102 2.001436,0.466598 2.878667,0.479891 1.480058,0.02235 3.197695,-0.740071 4.402665,-1.538563 1.41436,-0.937175 2.50317,-2.098548 3.73296,-3.246797 0.33553,-0.313352 0.82651,-1.172634 1.26534,-1.289474 0.46008,-0.122513 0.61688,0.683684 0.6742,0.986706 0.16485,0.871558 0.44763,3.359743 1.86284,2.774611 0.8172,-0.337905 1.23486,-1.254252 1.54846,-2.012611 0.57675,-1.395053 1.08314,-2.863851 1.71281,-4.233334 0.30616,-0.666073 0.98891,-1.091438 1.40411,-1.693334 0.45204,-0.65532 1.03192,-1.61798 0.24156,-2.259414 -0.70358,-0.570992 -1.25747,0.03607 -1.86656,0.350689 -0.66862,0.34544 -1.71323,-0.274489 -2.12107,0.646599 -0.38854,0.877486 0.13978,2.017861 -0.0405,2.95546 -0.0571,0.296926 -0.22005,0.883412 -0.55457,0.986705 -0.29329,0.09068 -0.48345,-0.353314 -0.55042,-0.563372 -0.22741,-0.713909 -0.18356,-1.803484 -0.89018,-2.260431 -0.40827,-0.263906 -0.91483,-0.01465 -1.25434,0.257472 -0.77038,0.617389 -1.34061,1.537039 -1.99906,2.271353 -1.79502,2.001859 -3.34485,3.836077 -5.705607,5.192691 -0.544492,0.312844 -2.114635,1.044957 -2.672588,0.506646 -0.287105,-0.276945 -0.127508,-0.615866 0.06951,-0.88773 0.71755,-0.9906 1.149773,-1.937766 1.65227,-3.048001 0.794427,-1.755224 1.345695,-3.695784 1.704765,-5.588 0.25053,-1.320292 0.26831,-2.782401 0.68021,-4.06273 0.28558,-0.887646 1.80196,-0.437388 1.88925,-1.440858 0.0743,-0.854964 -1.06595,-0.88629 -1.63008,-0.846412 m -1.693451,-4.910655 c -0.01084,1.309286 -0.776055,2.450339 -0.916602,3.725334 -0.05334,0.483616 0.08382,1.592411 -0.202268,1.980946 -0.447972,0.608669 -1.771396,-0.135636 -2.031408,0.982388 -0.26526,1.141052 1.556428,0.471254 1.719665,1.105662 0.115655,0.449664 -0.126153,0.986451 -0.169333,1.434338 -0.123275,1.280837 -0.284396,2.573613 -0.657014,3.81 -0.479552,1.591226 -0.883158,3.187362 -1.478026,4.741334 -0.137752,0.359833 -0.540258,1.653794 -1.132247,1.133941 -0.246973,-0.216916 -0.324358,-0.745829 -0.422825,-1.049274 -0.327745,-1.009227 -0.596816,-2.069847 -0.611378,-3.132667 -0.05122,-3.740066 0.507915,-8.268548 2.67208,-11.430001 0.687408,-1.004232 1.861142,-3.257635 3.229356,-3.302001"
       id="path39"
       sodipodi:nodetypes="cssscscsssscccsscccccssccccscccccccccccccccccssscscccccccccccsssccsscssccccscccsssccccccccssccccc" />
  </g>
</svg>
