<?xml version="1.0" encoding="UTF-8" standalone="no"?>
<!-- Created with Inkscape (http://www.inkscape.org/) -->

<svg
   width="44.464046mm"
   height="36.121914mm"
   viewBox="0 0 44.464046 36.121914"
   version="1.1"
   id="svg5"
   inkscape:version="1.1.1 (c3084ef, 2021-09-22)"
   sodipodi:docname="franko palatia.svg"
   xmlns:inkscape="http://www.inkscape.org/namespaces/inkscape"
   xmlns:sodipodi="http://sodipodi.sourceforge.net/DTD/sodipodi-0.dtd"
   xmlns="http://www.w3.org/2000/svg"
   xmlns:svg="http://www.w3.org/2000/svg">
  <sodipodi:namedview
     id="namedview7"
     pagecolor="#ffffff"
     bordercolor="#666666"
     borderopacity="1.0"
     inkscape:pageshadow="2"
     inkscape:pageopacity="0.0"
     inkscape:pagecheckerboard="0"
     inkscape:document-units="mm"
     showgrid="false"
     inkscape:zoom="1.8116734"
     inkscape:cx="-90.524043"
     inkscape:cy="124.47056"
     inkscape:window-width="1312"
     inkscape:window-height="969"
     inkscape:window-x="1752"
     inkscape:window-y="203"
     inkscape:window-maximized="0"
     inkscape:current-layer="layer1" />
  <defs
     id="defs2" />
  <g
     inkscape:label="Layer 1"
     inkscape:groupmode="layer"
     id="layer1">
    <path
       style="fill:#000000;stroke:none;stroke-width:0.0836709"
       d="m 15.625458,27.048119 c 0.0036,1.03459 0.5814,2.497326 0.920379,2.593798 1.096479,0.155296 2.740975,-2.257859 4.131251,-3.275047 0.304813,-0.223066 0.860472,-0.285652 1.223689,-0.406473 0.173446,0.676814 0.143492,1.560797 0.04813,2.259114 -0.09813,0.718817 -0.270599,1.474998 0.212521,1.895766 1.074147,0.93552 2.418844,-1.082066 3.408842,-1.10449 0.285314,-0.0065 0.319873,0.441113 0.417679,0.629875 0.172783,0.333428 0.530556,0.716332 0.886164,0.857334 1.894977,0.751448 2.975419,-1.691282 2.975419,-3.115193 -0.697736,-0.09714 -1.706471,1.22151 -2.222806,0.785836 -0.821899,-0.693464 0.797301,-2.034959 1.051081,-2.626931 1.159174,-2.703658 2.03094,-5.568466 2.927559,-8.366756 0.358523,-1.119181 1.037018,-2.109008 1.504653,-3.179494 0.183743,-0.42053 0.245073,-1.03526 -0.273525,-1.255733 -0.374839,-0.159393 -0.967565,0.217963 -1.220089,0.471988 -0.722492,0.726598 -1.191471,1.547326 -1.433362,2.540834 -0.295029,1.211555 -0.833451,2.332494 -1.220011,3.514178 -0.600582,1.836074 -0.968652,3.785272 -1.95195,5.486469 -0.391332,0.676897 -1.353719,2.266727 -2.257948,2.250747 -1.625643,-0.0287 -0.332176,-2.454152 -0.05633,-3.135316 1.148798,-2.836026 1.891795,-5.79078 3.311608,-8.534433 0.355351,-0.686603 0.98314,-2.095705 -0.334351,-2.153354 -1.662366,-0.07279 -1.757504,1.845781 -2.057049,2.990064 -0.345221,1.31882 -0.898951,2.562254 -1.339815,3.848861 -0.552564,1.612673 -0.951002,3.417203 -2.242551,4.628423 -0.164996,0.154791 -0.619498,0.57984 -0.860638,0.513823 -0.255195,-0.06978 -0.208424,-0.590884 -0.245155,-0.791276 -0.118646,-0.647695 -0.826251,-1.350364 -1.536951,-1.028984 -0.56779,0.256702 -1.240504,1.219754 -0.967822,1.86561 0.131448,0.311172 0.699155,0.697062 0.700745,1.014844 0.003,0.577497 -1.12345,1.369442 -1.658609,1.3302 -1.305098,-0.09563 -0.01472,-3.044868 -1.673752,-2.652702 -0.793033,0.187423 -1.21281,1.330367 -1.722868,1.885272 -1.007816,1.096424 -2.724241,2.107085 -4.2174323,2.103906 0.4739133,-0.953012 1.3067733,-1.789889 1.8210983,-2.76114 0.892266,-1.685132 1.522057,-3.547562 2.110348,-5.354938 0.319204,-0.980706 0.332005,-2.087086 0.609792,-3.095823 0.09405,-0.341378 0.021,-0.778977 0.275194,-1.061115 0.530474,-0.588792 2.239034,-0.371415 2.964962,-0.469226 1.964844,-0.264818 5.073891,-2.12934 5.184248,-4.326623 0.03884,-0.773453 0.127601,-1.713412 -0.19663,-2.426456 C 22.301557,8.6905554 21.822538,8.3247459 21.270228,7.8135171 20.75264,7.3345009 20.299478,6.8546486 19.641658,6.5612977 16.198182,5.025519 13.103781,7.8948452 9.7542667,8.0012746 6.9078672,8.0916391 5.973933,5.458683 7.695127,3.4057331 9.0755289,1.7591738 12.277531,1.564304 14.119379,2.434314 c 1.189214,0.5617664 2.165486,1.5121005 3.346752,2.0818163 1.001624,0.4830324 2.061985,0.8951113 3.095907,1.3142185 1.240083,0.5025274 2.463434,0.4528269 3.765103,0.4779281 0.476005,0.00909 1.128114,-0.028026 1.65951,-0.081144 1.1747,-0.088971 4.47775,-0.7668566 6.121973,-1.7462251 C 32.57191,4.2050445 34.512317,3.3931024 33.637785,2.6188953 33.189648,2.2222112 32.410422,2.6383043 31.955417,2.8329251 30.639527,3.3958636 29.195196,3.7485364 27.757734,3.7842632 25.094825,3.8503665 22.624939,3.3101002 20.146947,2.3427813 19.376756,2.0421521 18.695758,1.50624 17.932764,1.1734802 16.160865,0.40061208 13.455283,-0.27553213 11.52558,0.11320254 8.4313463,0.73655107 5.0230969,2.1841413 3.6031842,5.2100163 2.6332386,7.2769379 2.4849988,10.456349 5.3335996,10.815047 c 0.4078956,0.05138 0.7674288,0.09656 1.1717272,9.2e-4 0.024597,0.62728 -0.6491188,1.381825 -1.0323322,1.854983 -0.7382283,0.911428 -1.3509503,1.969195 -1.9074455,2.997929 -1.9556725,3.615169 -1.9567438,8.098758 0.4614118,11.477138 0.5457352,0.762409 1.3211134,1.781604 2.143682,2.24489 C 5.2485063,30.089316 3.9261042,30.364644 3.412214,28.972552 3.2447055,28.518805 3.352959,27.595245 2.8883673,27.314195 c -0.4676614,-0.282975 -1.2004258,0.289 -1.5706369,0.552981 -0.55109843,0.393086 -1.39486078,1.092574 -1.31206809,1.85808 0.0403399,0.373039 0.40445656,0.668271 0.65019008,0.921551 0.73901501,0.761715 2.41876631,1.643966 3.52091261,1.479804 1.4692614,-0.218841 2.6119552,-1.18396 4.0019795,-1.593755 0.415175,-0.122402 0.8341152,0.04997 1.2550635,0.01492 1.128805,-0.094 2.275431,-0.396667 3.255635,-0.979569 0.554152,-0.329495 1.207705,-0.738144 1.666725,-1.192142 0.437766,-0.432914 0.735718,-1.003215 1.269287,-1.327941 M 13.868364,8.8078772 c 0.175625,0.5954021 -0.11647,0.948745 -0.253523,1.5060768 -0.326651,1.328359 -0.854363,2.653874 -1.312043,3.946757 -0.313933,0.886995 -0.331002,1.921251 -0.567624,2.830586 -0.638074,2.452646 -1.170806,4.951058 -1.6525,7.446711 -0.2950893,1.010962 -0.6287623,2.15417 -1.3476874,3.145189 -0.2112993,0.29127 -0.5446975,0.811189 -0.9745983,0.713462 C 7.338185,28.30077 6.9153956,27.765362 6.6443859,27.452265 5.6465264,26.299448 5.302137,24.411999 5.0623359,22.94826 4.4667667,19.313178 6.1403524,16.07888 8.3775446,13.319078 10.012809,11.301773 11.467176,9.8215505 13.868364,8.8078772 m 1.149048,5.6644358 c -0.152867,-0.516919 0.368099,-1.940046 0.559873,-2.445168 0.421282,-1.109476 0.479655,-2.2511958 1.292936,-3.2013629 1.202016,-1.404416 2.902794,-0.2103486 3.367669,1.1534874 0.632803,1.8567415 -0.23294,3.9535335 -1.983167,4.7638025 -0.771948,0.357359 -1.581715,0.319707 -2.378261,0.195456 -0.302136,-0.04719 -0.755047,-0.114546 -0.85905,-0.466215 m 4.79155,10.818732 c -1.124119,-0.303308 0.105843,-1.44893 0.0671,-0.338449 -0.004,0.114629 -0.04091,0.22817 -0.0671,0.338449 M 35.120914,32.0684 c -0.319705,-0.275293 -0.693289,-0.950409 -1.171389,-0.954015 -1.316394,-0.0099 -2.195185,2.097546 -2.426453,3.129458 -0.06364,0.283872 -0.246249,0.627858 -0.198468,0.920051 0.145756,0.891856 1.099851,1.196234 1.791144,0.763563 0.68986,-0.431762 1.04019,-1.203725 1.308942,-1.934626 0.229845,-0.625172 0.535497,-1.284055 0.696224,-1.924431 m -1.427738,-3.515445 c 0.352337,0.794539 1.516285,0.584859 1.989107,0.04786 0.826415,-0.938536 1.060173,-2.782733 1.498942,-3.953623 0.766339,-2.045 1.577723,-4.137185 2.220227,-6.21716 0.407727,-1.319825 0.777734,-2.823127 1.137186,-4.150901 0.374424,-1.382829 0.74114,-2.615649 1.205938,-3.965177 0.224152,-0.6507925 0.299624,-1.3537951 0.512402,-2.0081022 0.490809,-1.5099244 1.023292,-3.0109803 1.731899,-4.4345573 0.255954,-0.514074 0.706017,-1.2857711 0.333007,-1.8332298 -0.872932,-1.28091774 -3.157651,0.4402763 -3.439705,1.4985458 -0.74609,2.7993777 -1.329201,5.6572412 -2.120059,8.4507625 -0.993842,3.510244 -2.411975,6.851558 -3.322064,10.375192 -0.352426,1.364254 -0.870935,2.853595 -1.347187,4.183544 -0.193191,0.539342 -0.651131,1.439642 -0.399693,2.006847"
       id="path39"
       sodipodi:nodetypes="cccccscscccccccccccccccssccccccccsccscscsccccccccccccccccscscccscsccsssscccccscccscscccccccsccccccsscsscccsccscccscccc" />
  </g>
</svg>
