<?xml version="1.0" encoding="UTF-8" standalone="no"?>
<!-- Created with Inkscape (http://www.inkscape.org/) -->

<svg
   width="42.591232mm"
   height="37.118477mm"
   viewBox="0 0 42.591232 37.118477"
   version="1.1"
   id="svg5"
   inkscape:version="1.1.1 (c3084ef, 2021-09-22)"
   sodipodi:docname="germania.svg"
   xmlns:inkscape="http://www.inkscape.org/namespaces/inkscape"
   xmlns:sodipodi="http://sodipodi.sourceforge.net/DTD/sodipodi-0.dtd"
   xmlns="http://www.w3.org/2000/svg"
   xmlns:svg="http://www.w3.org/2000/svg">
  <sodipodi:namedview
     id="namedview7"
     pagecolor="#ffffff"
     bordercolor="#666666"
     borderopacity="1.0"
     inkscape:pageshadow="2"
     inkscape:pageopacity="0.0"
     inkscape:pagecheckerboard="0"
     inkscape:document-units="mm"
     showgrid="false"
     inkscape:zoom="1.2810466"
     inkscape:cx="92.892796"
     inkscape:cy="240.81872"
     inkscape:window-width="1312"
     inkscape:window-height="969"
     inkscape:window-x="1819"
     inkscape:window-y="122"
     inkscape:window-maximized="0"
     inkscape:current-layer="layer1" />
  <defs
     id="defs2" />
  <g
     inkscape:label="Layer 1"
     inkscape:groupmode="layer"
     id="layer1">
    <path
       style="fill:#000000;stroke:none;stroke-width:0.0846667"
       d="M 20.445903,5.915279 C 19.953058,6.135666 19.353872,6.609207 18.837236,6.699377 18.119771,6.824599 17.246519,6.340475 16.515337,6.274435 14.760621,6.116108 13.416368,6.752293 12.064241,7.813929 c -0.937175,0.735838 -1.987296,1.642702 -2.5985886,2.67335 -0.210735,0.35543 -0.526203,1.149011 -1.042416,1.110657 -0.88138,-0.06553 -1.464733,-2.091436 -1.411817,-2.803991 0.147828,-1.992714 1.796796,-3.78968 3.6978166,-4.335949 0.705104,-0.202607 1.400048,-0.0668 2.116667,-0.06672 1.438994,8.5e-5 2.810679,0.0042 4.230031,0.212598 2.998809,0.440182 6.106584,0.737785 9.111408,0.986536 1.54601,0.127931 2.9392,0.568028 4.52323,0.212005 2.56862,-0.577173 3.88298,-3.07831 2.12522,-5.21648199 -0.37457,-0.455676 -1.28253,-0.965708 -1.60427,-0.169334 -0.23613,0.58436999 0.41648,1.01786299 0.37643,1.60400999 -0.0895,1.309116 -1.87359,1.870372 -2.92938,1.790446 C 23.842645,3.44665 19.124933,2.313725 14.265236,2.26809 12.926487,2.25548 11.431697,1.994447 10.116569,2.28502 7.8093184,2.794968 6.1321564,5.012726 5.5230814,7.185273 c -0.443831,1.583097 0.07458,3.351868 1.019624,4.656328 0.369062,0.509524 1.130977,0.85962 1.251119,1.524338 0.139192,0.770806 -0.689864,1.913552 -0.842772,2.709334 -0.364913,1.898819 -0.197781,4.408169 0.629158,6.180666 0.616881,1.322155 1.508083,2.184485 2.7903586,2.83718 0.551434,0.28067 1.618065,0.356277 1.565572,1.22682 -0.04047,0.670645 -0.447802,1.373293 -0.59834,2.032 -0.435356,1.905254 -0.66294,4.541892 -1.9590166,6.071497 -1.29921,1.533378 -4.406291,1.593078 -5.866215,0.269681 -1.949408,-1.767095 -1.34819,-4.4852 0.423333,-6.168458 0.568563,-0.540173 1.334051,-0.709507 1.92168,-1.197525 0.314621,-0.261366 0.339175,-0.88536 -0.147405,-0.965878 -0.774319,-0.12827 -1.715499,0.425704 -2.366941,0.763863 -2.68384003,1.393021 -4.42617,5.075132 -2.57403603,7.83082 1.63408303,2.431275 5.45067103,2.515725 7.99270303,1.695675 0.974174,-0.31425 2.0597696,-0.841592 2.6653056,-1.699011 1.422654,-2.014364 1.734058,-4.783379 2.418588,-7.105362 0.137838,-0.467529 0.112946,-0.996442 0.326221,-1.442551 0.500465,-1.047072 1.980015,-1.064598 2.971885,-1.305983 0.358394,-0.08729 0.824314,-0.375581 1.176358,-0.151892 1.241044,0.788839 -0.700278,2.545503 -1.212257,3.080851 -0.364829,0.381423 -0.68961,0.798406 -1.065107,1.16967 -1.642194,1.623991 -4.034112,5.146158 -1.762082,7.260248 1.34239,1.24901 3.215301,0.0528 3.897291,-1.247645 1.280837,-2.442329 0.680551,-5.762921 2.619671,-7.877302 0.314283,-0.342731 1.246548,-1.695873 1.764369,-1.613239 0.840656,0.134112 0.0243,2.30141 -0.06011,2.801874 -0.334349,1.98247 -1.324525,3.978504 -1.377527,6.011333 -0.02227,0.852789 -0.0309,1.774389 0.845482,2.214919 1.188974,0.59767 2.747094,-0.20193 3.725251,-0.875086 2.84708,-1.959381 3.70247,-4.807271 5.22173,-7.689832 0.44687,-0.847937 2.00177,-0.90568 2.17128,-1.862667 0.12556,-0.709168 -0.85353,-0.564981 -1.11252,-1.025229 -0.48802,-0.867325 -0.0308,-1.918631 -0.79282,-2.784686 -1.22149,-1.388364 -2.73431,-0.42181 -2.93446,1.185248 -0.0888,0.713148 -0.1784,1.50004 0.0414,2.201334 0.17475,0.55736 0.72991,0.957495 0.70696,1.584536 -0.0199,0.542629 -0.47159,1.07061 -0.68842,1.54813 -0.67251,1.481244 -1.36644,2.984729 -2.52849,4.148667 -0.423501,0.42418 -1.737189,2.055842 -2.447373,1.823991 -0.925322,-0.302082 -0.05063,-2.312069 0.07645,-2.924658 0.386334,-1.861989 0.760476,-3.76555 1.282192,-5.588 0.3048,-1.064598 0.898401,-2.442718 0.864191,-3.556 -0.0271,-0.882734 -1.004399,-1.211918 -1.722457,-0.884089 -0.580305,0.264837 -0.945896,0.814239 -1.39429,1.238673 -0.223774,0.211752 -0.574633,0.435356 -0.763524,0.058 -0.20701,-0.413681 0.006,-0.932011 0.105918,-1.343914 0.223943,-0.923375 1.032594,-3.252385 0.315976,-4.03098 -0.544492,-0.591566 -1.438826,-0.399711 -1.922357,0.168148 -0.491406,0.577088 -0.598678,1.502664 -0.948098,2.169499 -0.436372,0.832781 -1.069763,1.483614 -1.743625,2.118783 -0.426212,0.401659 -1.650746,1.733127 -2.234946,0.918803 -0.265091,-0.369655 0.01058,-0.963168 0.131826,-1.344253 0.293878,-0.924475 0.207349,-2.350516 1.256115,-2.799165 0.725,-0.310134 2.062226,0.301583 2.332397,-0.841586 0.315976,-1.337225 -1.782826,-0.681143 -2.098971,-1.527217 -0.165862,-0.443992 0.151299,-1.15443 0.235627,-1.605365 0.275505,-1.472607 0.676741,-3.177794 1.432983,-4.487333 0.274405,-0.475319 0.722884,-1.457114 1.399964,-1.317583 0.215561,0.04445 0.41021,0.177969 0.56515,0.329438 0.502497,0.491321 2.062395,2.176949 2.638044,0.645753 C 23.55613,9.295169 21.304843,8.485163 20.911228,7.685656 20.575609,7.003835 21.140082,6.52132 20.4459,5.915276 M 8.7319254,19.54661 c -0.13225,-1.416473 -0.042,-2.72542 0.448818,-4.064 0.178138,-0.485902 0.341799,-1.081193 0.8515766,-1.324441 0.359918,-0.171704 0.807466,0.03454 1.18491,0.05114 0.754211,0.03302 2.106507,-0.328761 2.449237,-1.097619 0.211244,-0.47371 -0.358732,-0.766233 -0.755904,-0.709083 -0.615188,0.08856 -2.2225,1.056047 -2.107353,-0.391329 0.01168,-0.147744 0.04911,-0.286851 0.106087,-0.423334 0.693505,-1.660482 2.436114,-3.346619 4.287266,-3.485811 0.579036,-0.04352 1.996356,-0.190669 2.146808,0.608415 0.11811,0.627126 -0.665564,1.50876 -0.939292,2.03073 -0.698669,1.331976 -1.07823,2.702136 -1.459399,4.148666 -0.170434,0.646938 -0.198628,1.615948 -0.690711,2.105322 -0.70341,0.699346 -1.899412,-0.200237 -2.526622,0.788077 -0.807043,1.271608 2.08915,1.01456 1.900004,2.186601 -0.142409,0.882904 -0.474556,1.748113 -0.660823,2.624667 -0.08602,0.40496 -0.112691,0.841417 -0.488442,1.096687 -0.542375,0.368469 -1.26365,-0.135128 -1.684189,-0.471424 C 9.6724024,22.323 8.8679844,21.003893 8.7319254,19.546611 m 6.4167236,15.324334 c -0.308949,-1.113612 0.430191,-2.685432 1.053084,-3.555602 0.214291,-0.299364 0.985859,-1.305882 1.289812,-0.587485 0.162052,0.382863 -0.007,0.802166 -0.09271,1.180084 -0.219117,0.966292 -0.273558,2.26822 -0.798407,3.124759 -0.372194,0.607424 -1.247902,0.573489 -1.451779,-0.161756 M 29.476942,24.203261 c 0.0989,-1.135803 1.02548,-0.43688 0.95173,0.423334 -0.0994,1.158832 -1.02819,0.455252 -0.95173,-0.423334 m 4.0669,11.853353 c 0.21988,1.64022 2.44416,0.83747 2.20777,-0.592669 -0.28364,-1.715499 -2.3959,-0.810811 -2.20777,0.592669 m 0.8394,-2.879914 c 0.45703,1.664979 1.70053,0.171323 2.02573,-0.676088 1.07484,-2.800435 1.7134,-5.721943 2.6725,-8.551334 0.80637,-2.378625 1.77987,-4.672922 2.42587,-7.111999 0.31395,-1.185334 0.63915,-2.358136 0.90323,-3.556 0.14546,-0.659384 0.32503,-1.39827 -0.009,-2.03073 -0.33249,-0.628989 -0.95784,-0.556006 -1.55076,-0.434679 -1.62162,0.331809 -2.10633,1.300311 -2.53669,2.804075 -1.25358,4.379807 -1.70282,8.964337 -2.77597,13.377333 -0.33977,1.397085 -0.62366,2.821771 -0.90602,4.233334 -0.11912,0.595638 -0.41453,1.342051 -0.24875,1.946088"
       id="path39"
       sodipodi:nodetypes="cscscccsccccccccccsccccscccsccccsscsccccccsccscscccccscccssccsccccssscccscccccccccccccccccscccccccscccsccsccccccccccsccscssc" />
  </g>
</svg>
