<?xml version="1.0" encoding="UTF-8" standalone="no"?>
<!-- Created with Inkscape (http://www.inkscape.org/) -->

<svg
   width="31.964169mm"
   height="38.554062mm"
   viewBox="0 0 31.964169 38.554062"
   version="1.1"
   id="svg5"
   inkscape:version="1.1.1 (c3084ef, 2021-09-22)"
   sodipodi:docname="guestphalia.svg"
   xmlns:inkscape="http://www.inkscape.org/namespaces/inkscape"
   xmlns:sodipodi="http://sodipodi.sourceforge.net/DTD/sodipodi-0.dtd"
   xmlns="http://www.w3.org/2000/svg"
   xmlns:svg="http://www.w3.org/2000/svg">
  <sodipodi:namedview
     id="namedview7"
     pagecolor="#ffffff"
     bordercolor="#666666"
     borderopacity="1.0"
     inkscape:pageshadow="2"
     inkscape:pageopacity="0.0"
     inkscape:pagecheckerboard="0"
     inkscape:document-units="mm"
     showgrid="false"
     inkscape:zoom="2"
     inkscape:cx="108"
     inkscape:cy="103.75"
     inkscape:window-width="1312"
     inkscape:window-height="969"
     inkscape:window-x="1735"
     inkscape:window-y="173"
     inkscape:window-maximized="0"
     inkscape:current-layer="layer1" />
  <defs
     id="defs2" />
  <g
     inkscape:label="Layer 1"
     inkscape:groupmode="layer"
     id="layer1">
    <path
       style="fill:#000000;stroke:none;stroke-width:0.0846667"
       d="m 31.889716,9.1973429 c -0.4239,-1.435608 -2.791553,-1.63449 -3.298867,-0.171365 -0.538344,1.5527021 -0.10756,3.8625781 -0.115519,5.5020631 -0.01939,4.022937 0.03641,8.081772 -0.04894,12.107333 -0.02938,1.384385 -0.01,2.765552 -0.05343,4.148666 -0.01439,0.459148 -0.182541,1.376765 0.106426,1.754378 0.450333,0.588518 1.351128,0.181949 1.566012,-0.40005 0.420844,-1.139867 0.281415,-2.772833 0.369832,-3.978994 0.327364,-4.465913 0.804283,-8.908796 1.115754,-13.377333 0.0803,-1.152059 0.127906,-2.324439 0.259622,-3.471333 0.07335,-0.638641 0.284912,-1.4840371 0.0991,-2.1133651 M 30.971767,36.202707 c -0.03922,-0.628057 -0.226898,-1.380151 -0.734043,-1.795865 -1.434592,-1.176189 -3.666896,-0.249766 -3.532615,1.711198 0.0574,0.838369 0.572601,1.819487 1.431629,2.073233 1.210776,0.357632 2.919484,-0.635932 2.835029,-1.988566 M 22.802745,32.56204 c -0.493776,-0.40115 -0.568113,-1.105492 -0.73152,-1.693333 -0.204555,-0.73533 -0.537379,-1.476671 -0.790617,-2.201333 -0.197274,-0.564388 -0.681567,-1.266275 -1.356445,-1.172379 -0.828971,0.115316 -0.984419,1.615693 -1.142915,2.273045 -0.618321,2.565231 -1.88231,5.671312 -4.783837,6.344666 -0.574717,0.13335 -2.609003,0.442468 -2.970022,-0.202946 -0.141308,-0.252645 0.349589,-0.550672 0.500211,-0.685038 0.586147,-0.522647 1.150874,-1.177967 1.604772,-1.819317 1.237403,-1.748367 1.646005,-4.402751 1.697821,-6.516031 0.02167,-0.887476 -0.314029,-2.603331 0.179239,-3.374221 0.231309,-0.361526 0.666496,-0.238252 1.021249,-0.317754 0.899499,-0.201591 2.223263,-0.535008 2.491487,-1.557358 0.331808,-1.264666 -0.539158,-2.478024 -1.730757,-2.879683 -0.405384,-0.136652 -1.480312,-0.230378 -1.619334,-0.685292 -0.141394,-0.462703 0.0298,-1.046734 0.06485,-1.515025 0.113623,-1.519851 0.527558,-3.232404 1.292098,-4.571661 0.480568,-0.841841 0.973074,-0.466852 1.701716,-0.214969 2.315125,0.8001 4.16687,0.889254 6.264995,-0.493691 0.773514,-0.509778 1.971971,-1.7896841 1.23444,-2.7394751 -0.879687,-1.132924 -2.749042,0.605367 -3.858768,0.459994 -0.847852,-0.111167 -1.568704,-0.552111 -2.370667,-0.784606 -3.444833,-0.998474 -6.659034,-1.551686 -9.9060005,0.425027 -1.868424,1.137497 -2.764113,2.7794371 -3.056044,4.8713811 -0.03006,0.215392 -0.06028,1.452287 -0.535262,1.039622 -0.52451,-0.455676 -0.377021,-1.553041 -0.3418,-2.140289 0.117772,-1.965705 0.93726,-3.9429261 1.997795,-5.5879991 1.549315,-2.403264 4.0610375,-4.009983 6.9306445,-4.275497 0.760053,-0.07036 1.821688,-0.160105 2.536613,0.170349 0.713487,0.329777 0.545085,1.421722 1.274657,1.874689 0.906357,0.562695 1.798066,-0.138684 2.111418,-0.986874 0.245448,-0.664549 -0.127932,-1.355937 -0.533654,-1.859365 -0.964862,-1.19693296 -2.611375,-1.77969296 -4.119034,-1.74523396 -2.772749,0.06325 -5.9570575,0.863533 -8.4053865,2.16479396 -2.209378,1.21229 -2.794476,1.88454 -4.165984,4.425232 -1.175807,3.4843821 -0.90401,7.4562141 0.69476,9.3593141 0.774023,0.872574 1.818132,0.830918 2.640076,1.492334 0.5842,0.470154 0.731605,1.304375 1.125644,1.910927 0.200575,0.308695 0.859959,1.000252 0.851238,1.357968 -0.0105,0.432647 -0.574886,0.833628 -0.850476,1.114298 -0.640842,0.652357 -1.220555,1.391751 -1.680295,2.1844 -1.264243,2.179744 -1.449324,4.92252 -1.095333,7.366 0.147998,1.021503 0.446278,2.040297 0.909828,2.963333 0.137076,0.273135 0.512403,0.857928 0.278046,1.148588 -0.294556,0.365591 -1.40462,0.289052 -1.677586,-0.07357 -0.254423,-0.337905 0.116078,-0.812207 0.177208,-1.159679 0.10668,-0.606722 -0.02481,-1.277536 -0.383202,-1.777916 -0.775208,-1.082294 -2.605108,-1.232492 -3.55159698,-0.299127 -0.588349,0.580136 -0.756412,1.463125 -0.722969,2.246376 0.107019,2.509858 3.49800398,3.598333 5.61136798,3.371934 0.708999,-0.07595 1.419437,-0.475064 2.116667,-0.50656 0.399881,-0.01803 0.741511,0.288544 1.086273,0.451104 0.640334,0.301752 1.2622965,0.513418 1.9617275,0.625771 1.299633,0.208703 2.860548,0.301413 4.148667,-0.03768 2.071539,-0.545422 3.814657,-2.548805 4.656667,-4.412572 h 0.169333 c 0.137414,0.593937 0.385911,1.136989 0.628565,1.693333 0.164762,0.377529 0.358564,0.738801 0.554398,1.100667 0.221488,0.409194 0.423333,1.059095 0.934042,1.191514 0.615696,0.159512 1.076283,-0.674032 1.304121,-1.106848 0.655743,-1.245785 1.211241,-2.751666 2.027682,-3.890602 0.534077,-0.745067 2.071624,0.111675 2.387261,-1.108033 0.334772,-1.29413 -1.275757,-0.702479 -1.550585,-1.297093 -0.173059,-0.374396 0.31496,-1.294723 0.318093,-1.747605 0.01228,-1.736174 -1.776392,-3.640835 -3.34899,-2.026496 -0.845566,0.868003 -0.896028,2.419604 -0.600202,3.550496 0.115146,0.440267 0.493352,0.75455 0.600879,1.185334 0.09009,0.361018 -0.11557,0.757682 -0.207264,1.100666 m 1.608661,-2.540023 c -0.659638,-0.203454 -1.04902,-1.621536 -0.544915,-2.152819 0.501227,-0.52832 0.882057,0.150876 0.872575,0.628819 -0.0039,0.198374 -0.04758,0.397595 -0.08052,0.592667 -0.05453,0.323003 -0.134366,0.624163 -0.247142,0.931333 m -8.212662,-9.397947 c -0.44958,1.629071 -1.91643,-0.616627 -0.42545,-0.20083 0.155363,0.04335 0.286258,0.122852 0.42545,0.20083 m -1.354664,-9.990664 c -0.01803,0.841502 -0.540004,1.367112 -1.097365,1.946994 -0.949452,0.987721 -1.992884,2.298615 -3.305302,2.782485 -0.419777,0.154771 -1.4864085,0.743797 -1.9072865,0.380746 -0.473456,-0.408347 0.33655,-1.97341 0.56278,-2.400892 1.2423985,-2.347807 3.2738905,-2.709333 5.7471735,-2.709333 m -2.455332,6.265295 c -0.04259,0.427651 -0.13098,1.396661 -0.411311,1.722797 -0.199644,0.232325 -0.601049,0.317331 -0.858689,0.48006 -0.244094,0.154093 -0.535094,0.421386 -0.846667,0.383625 -0.4076705,-0.04945 -1.4091925,-1.069002 -1.0946555,-1.519428 0.229277,-0.328253 1.4592305,-0.461264 1.8566555,-0.640165 0.440351,-0.198289 0.866987,-0.395901 1.354667,-0.426889 m -3.4713355,16.84867 c -1.600284,-2.429002 -0.92058,-6.268551 0.298196,-8.720667 0.281602,-0.566504 1.0134605,-2.673519 1.9015295,-2.44204 0.813223,0.212005 0.384979,2.345351 0.304377,2.95004 -0.337143,2.528994 -0.219202,6.516285 -2.5041025,8.212667"
       id="path39"
       sodipodi:nodetypes="ccccccsssscccssccccsccscccssssscsccccccsscscscccccccccccsscccccccsccccccccccscscsccccccsccccccsccccccccccccccc" />
  </g>
</svg>
