<?xml version="1.0" encoding="UTF-8" standalone="no"?>
<!-- Created with Inkscape (http://www.inkscape.org/) -->

<svg
   width="30.873669mm"
   height="38.618698mm"
   viewBox="0 0 30.873669 38.618698"
   version="1.1"
   id="svg5"
   inkscape:version="1.1.1 (c3084ef, 2021-09-22)"
   sodipodi:docname="hansea.svg"
   xmlns:inkscape="http://www.inkscape.org/namespaces/inkscape"
   xmlns:sodipodi="http://sodipodi.sourceforge.net/DTD/sodipodi-0.dtd"
   xmlns="http://www.w3.org/2000/svg"
   xmlns:svg="http://www.w3.org/2000/svg">
  <sodipodi:namedview
     id="namedview7"
     pagecolor="#ffffff"
     bordercolor="#666666"
     borderopacity="1.0"
     inkscape:pageshadow="2"
     inkscape:pageopacity="0.0"
     inkscape:pagecheckerboard="0"
     inkscape:document-units="mm"
     showgrid="false"
     inkscape:zoom="0.64052329"
     inkscape:cx="-37.469364"
     inkscape:cy="503.49457"
     inkscape:window-width="1312"
     inkscape:window-height="969"
     inkscape:window-x="1732"
     inkscape:window-y="160"
     inkscape:window-maximized="0"
     inkscape:current-layer="layer1" />
  <defs
     id="defs2" />
  <g
     inkscape:label="Layer 1"
     inkscape:groupmode="layer"
     id="layer1">
    <path
       style="fill:#000000;stroke:none;stroke-width:0.0846667"
       d="m 18.512336,33.376581 0.508,0.08467 c 0.08001,0.630089 0.144865,1.227878 0.172636,1.862667 0.01795,0.410074 0.0033,1.070474 0.25146,1.411435 0.628819,0.86393 1.887474,-0.480754 2.294974,-0.989347 0.934212,-1.165902 1.697482,-2.518918 2.063412,-3.978089 0.183134,-0.730419 0.07662,-1.801791 0.420878,-2.451692 0.191177,-0.360934 0.599863,-0.509609 0.884766,-0.781304 0.361612,-0.345017 0.607738,-0.823807 0.853271,-1.254337 0.171281,-0.300397 0.414697,-0.827109 0.109051,-1.132586 -0.245449,-0.245364 -0.484124,0.115485 -0.625856,0.287528 -0.437896,0.531622 -0.688933,1.005671 -1.429258,1.014391 -0.201761,-1.562354 -1.023536,-3.145536 -2.794,-2.567855 -0.288121,0.09407 -0.591566,0.195411 -0.813647,0.411565 -0.953855,0.928708 -0.442553,2.789343 0.344509,3.629914 0.328083,0.35035 0.902462,0.44196 1.112012,0.898313 0.258572,0.563287 -0.206333,1.480651 -0.364236,2.03073 -0.124122,0.432393 -0.184997,1.22036 -0.626026,1.460373 -0.563795,0.306756 -0.547116,-0.91749 -0.579712,-1.206373 -0.131996,-1.171956 -0.481669,-2.273131 -0.848784,-3.386667 -0.113538,-0.34417 -0.295994,-1.006348 -0.756496,-1.020402 -0.522563,-0.01609 -0.556853,1.177374 -0.622385,1.528402 -0.246211,1.318938 -0.366437,2.633388 -0.851916,3.894667 -0.117856,0.306045 -0.414105,1.128844 -0.813816,1.146268 -0.364405,0.01587 -0.461941,-0.720598 -0.49911,-0.976934 -0.155279,-1.071457 -0.216662,-2.144607 -0.364067,-3.217334 -0.486664,-3.539575 -0.18288,-6.98246 0.28575,-10.498667 0.145966,-1.094824 0.08924,-2.418418 0.461772,-3.470994 0.387435,-1.094656 1.938359,-1.833457 2.819485,-2.480141 1.427057,-1.047412 2.588599,-2.299801 3.547195,-3.7855323 0.549148,-0.851238 1.095671,-1.971632 1.324271,-2.963333 0.16002,-0.694097 0.181187,-1.938528 0.725763,-2.43205 0.507576,-0.460079 1.395391,-0.672846 2.015151,-0.957919 1.068916,-0.491744 2.089742,-1.182031 2.970868,-1.957239 0.472779,-0.415883 1.067393,-0.86436198 1.185418,-1.51079198 -0.59817,-0.111421 -0.928539,0.323935 -1.439333,0.557953 -0.754973,0.346033 -1.592665,0.61815198 -2.370667,0.91550098 -1.945893,0.743543 -4.279137,0.969941 -6.349999,1.123696 -1.665309,0.123698 -3.405378,-0.584031 -5.002954,-0.967317 C 14.822817,1.4346437 13.919678,1.1883487 13.012305,1.0743877 8.8365455,0.55013172 1.8681915,0.47884172 0.36322445,5.6059167 c -0.176411,0.601049 -0.336084,1.232323 -0.360815,1.862667 -0.0867,2.210392 2.18253705,4.4320463 4.20126105,4.9242983 0.911013,0.22208 1.784011,0.218863 2.708995,0.246718 0.254338,0.0076 0.416031,0.05615 0.426106,0.341141 -0.09184,0.496323 -0.92564,2.425089 -1.167871,3.46251 -0.324527,1.389549 -0.541502,3.335424 -0.421022,4.756131 0.0674,0.795866 0.140446,2.180842 0.140446,2.180842 -1.261685,1.087909 -2.148677,2.457047 -3.037762,3.64636 -2.49946105,3.343571 -4.021903,9.155947 0.758444,11.348467 2.066798,0.94795 4.7233,-1.051239 5.538047,-2.8818 1.9014435,-4.272026 -0.03827,-8.494099 0.04047,-12.85494 0.01812,-1.001099 1.3925695,-1.926533 2.0616055,-2.541551 0.23622,-0.21717 1.344845,-1.177647 1.503431,-1.171623 0,0 -0.177708,1.220874 -0.203771,1.497447 -0.08416,0.893056 -0.15604,2.164334 -0.305477,3.217333 -0.194479,1.370076 0.02608,2.861226 0.156633,4.233334 0.194903,2.047663 0.406824,4.156117 1.162389,6.096 0.158242,0.40629 0.471424,0.719311 0.675301,1.100667 0.185843,0.347522 0.323427,0.70319 0.571923,1.014755 1.666156,2.089091 3.151717,-1.389262 3.70078,-2.708089 M 3.7198615,33.630538 c -0.228516,-1.86055 0.553127,-4.129193 1.188381,-5.842 0.116247,-0.313436 0.95377,-2.206583 1.314873,-1.265005 0.342646,0.893657 0.38709,1.909344 0.510704,2.848805 0.250782,1.90644 0.792316,4.111922 0.297016,6.0362 -0.07231,0.281017 -0.178731,0.586444 -0.30734,0.846599 -0.423333,0.856039 -1.312079,0.873201 -1.933617,0.200762 -0.666242,-0.720895 -0.953177,-1.873995 -1.070017,-2.825361 M 4.5677975,8.1458707 c -0.187367,-1.260856 0.697992,-2.491571 1.667849,-3.191425 1.535853,-1.108287 3.273891,-1.582082 5.1646665,-1.407753 1.0033,0.09254 1.964944,0.425704 2.963333,0.539411 1.024382,0.116756 2.036995,0.373465 3.048,0.562187 0.35162,0.06562 0.860806,0.05444 1.010581,0.458809 0.131487,0.354838 -0.183981,0.661924 -0.377698,0.922104 -0.456523,0.612987 -0.787146,1.285494 -1.203198,1.923204 -1.210818,1.855724 -2.213271,4.0175183 -2.905167,6.1201303 -0.353653,1.074589 -0.311997,2.602823 -1.189651,3.419263 -0.834814,0.776478 -1.66927,1.519713 -2.507809,2.286031 -0.203369,0.185843 -0.7069585,0.63149 -1.0330895,0.833594 0,0 -0.0067,-0.892299 -0.0066,-1.120221 2.54e-4,-0.7874 0.100246,-1.585807 0.162052,-2.370667 0.08712,-1.105069 0.416984,-2.135378 0.633815,-3.217334 0.1139605,-0.569044 0.2278375,-1.368806 0.6137485,-1.823381 0.526203,-0.620014 1.532551,-0.894673 2.231051,-1.284647 0.966555,-0.539666 1.673352,-1.3385803 2.194221,-2.3106383 0.269155,-0.502328 0.699177,-1.381845 0.403437,-1.946064 -0.62992,-1.201928 -2.098209,-0.233256 -2.851658,0.271357 -0.870119,0.582676 -1.644057,1.388957 -2.321052,2.183977 -0.3168225,0.372025 -0.5847075,0.970449 -0.9987275,1.2334243 -1.490049,0.946404 -4.444069,-0.3721103 -4.698069,-2.0813613 m 7.4808895,1.17271 c -0.205401,-0.586486 0.902039,-1.445514 1.298956,-1.728978 0.184997,-0.132165 0.668866,-0.345355 0.786468,-0.0095 0.195665,0.5588 -0.897805,1.495891 -1.294807,1.749468 -0.224959,0.143679 -0.655912,0.373464 -0.790617,-0.01101 m 5.506639,2.1870153 c -0.153247,-0.397256 0.300397,-1.073065 0.4699,-1.412325 0.636439,-1.2737253 1.379559,-2.4336583 2.129621,-3.6393963 0.145457,-0.233934 0.88756,-1.384893 1.201335,-0.82059 0.203539,0.36593 -0.148167,1.156378 -0.307171,1.496653 -0.593513,1.269407 -1.258739,2.459905 -2.142998,3.5526983 -0.152146,0.188045 -1.116922,1.429089 -1.350687,0.82296 m 4.313516,15.832332 c -0.138938,-0.320124 0.292862,-0.874776 0.527896,-0.453305 0.184912,0.331555 -0.351874,0.859113 -0.527896,0.453305 m 4.0487,-9.285992 c 0.330369,3.577675 0.704003,7.113778 1.254082,10.668 0.13225,0.854456 0.349335,1.689608 0.496994,2.54 0.03691,0.212598 0.120396,0.708152 0.416644,0.708152 0.387858,0 0.435526,-1.193969 0.4815,-1.470152 0.280924,-1.686306 0.432308,-3.389714 0.662347,-5.08 0.728133,-5.348816 0.679281,-10.592562 -0.190754,-15.9173333 -0.216662,-1.326388 -0.324951,-2.661582 -0.576834,-3.979334 -0.100499,-0.525949 -0.130387,-1.2065 -0.420455,-1.673944 -0.355854,-0.573363 -0.690372,0.179408 -0.818557,0.488611 -0.348064,0.83947 -0.44052,1.898057 -0.588941,2.794 -0.582761,3.5182393 -1.045549,7.3537233 -0.716026,10.9220003 m 0.778089,18.372337 c 0.212259,0.668697 1.347131,1.026448 1.977982,0.773439 0.765471,-0.307053 1.075351,-1.209735 0.850223,-1.958442 -0.249428,-0.829513 -1.532721,-1.319022 -2.275248,-0.827329 -0.599439,0.396951 -0.760306,1.359357 -0.552957,2.012332"
       id="path39"
       sodipodi:nodetypes="ccssccscccccccccsccccscscccsccscccccccccsccccccccsccscsccsccccsccsccccsccscccccsccccccsccsccccssccccccsccsccsssccccccccccssc" />
  </g>
</svg>
