<?xml version="1.0" encoding="UTF-8" standalone="no"?>
<!-- Created with Inkscape (http://www.inkscape.org/) -->

<svg
   width="28.480202mm"
   height="38.475288mm"
   viewBox="0 0 28.480202 38.475288"
   version="1.1"
   id="svg5"
   inkscape:version="1.1.1 (c3084ef, 2021-09-22)"
   sodipodi:docname="kv rhenania.svg"
   xmlns:inkscape="http://www.inkscape.org/namespaces/inkscape"
   xmlns:sodipodi="http://sodipodi.sourceforge.net/DTD/sodipodi-0.dtd"
   xmlns="http://www.w3.org/2000/svg"
   xmlns:svg="http://www.w3.org/2000/svg">
  <sodipodi:namedview
     id="namedview7"
     pagecolor="#ffffff"
     bordercolor="#666666"
     borderopacity="1.0"
     inkscape:pageshadow="2"
     inkscape:pageopacity="0.0"
     inkscape:pagecheckerboard="0"
     inkscape:document-units="mm"
     showgrid="false"
     inkscape:zoom="1.8116735"
     inkscape:cx="-119.22678"
     inkscape:cy="35.602442"
     inkscape:window-width="1608"
     inkscape:window-height="997"
     inkscape:window-x="1437"
     inkscape:window-y="150"
     inkscape:window-maximized="0"
     inkscape:current-layer="layer1" />
  <defs
     id="defs2" />
  <g
     inkscape:label="Layer 1"
     inkscape:groupmode="layer"
     id="layer1">
    <path
       style="fill:#000000;stroke:none;stroke-width:0.0846667"
       d="m 5.6705756,29.683454 c -0.11362,0.79366 -0.70889,1.407489 -1.03358,2.116659 -0.49631,1.08411 -0.7084,2.18905 -0.65642,3.38667 0.0395,0.90993 0.25746,1.81022 0.89396,2.50074 1.04083,1.12915 2.62958,1.03519 3.50825,-0.22232 1.6536304,-2.36657 0.78867,-5.17936 -0.42621,-7.443089 1.5124,0.63399 3.1554404,1.577599 4.8226104,0.64228 1.84599,-1.03555 0.34815,-3.250857 -1.26788,-3.427133 -1.45754,-0.159004 -2.8365004,0.579882 -4.1474004,1.091522 0.15477,-0.651425 0.76497,-1.00567 1.01016,-1.609937 0.84091,-2.071624 1.36051,-4.357962 1.36051,-6.60273 0,-0.588603 -0.15384,-1.384131 -0.005,-1.947333 0.20252,-0.76581 0.9024604,-1.2446 0.7477804,-2.113365 -0.13386,-0.752094 -1.0489404,-0.637286 -1.2844804,-1.199896 -0.18576,-0.443908 0.0515,-1.195324 0.0302,-1.682073 -0.0755,-1.724237 -0.0585,-3.526536 0.59749,-5.164244 0.3992904,-0.997119 1.7917204,-0.434001 2.4538104,-0.02929 1.49191,0.911775 1.92219,2.625852 2.10575,4.262205 0.10888,0.970195 -0.20177,3.251877 -1.09136,3.818974 -0.88417,0.563542 -2.01718,-0.471339 -2.5858,0.837777 -0.0836,0.192363 -0.16519,0.38244 -0.19033,0.592582 -0.13022,1.089068 0.90483,1.323848 1.76174,1.141476 0.40039,-0.08517 0.88392,-0.331978 1.05215,0.216916 0.24672,0.804757 0.0567,1.965622 -0.0218,2.790275 -0.16179,1.699853 -0.36787,4.038854 0.12692,5.672667 0.39776,1.31335 1.46456,2.742347 2.99136,2.514507 1.01134,-0.15096 1.48801,-1.144261 2.37066,-1.498507 0.12514,0.525777 -0.0466,1.000757 0.009,1.523997 0.10313,0.96435 1.3832,1.094649 1.86538,0.33494 0.60155,-0.94784 -0.15122,-2.436363 0.25451,-3.467519 0.11988,-0.304715 0.69494,-1.025906 1.08686,-0.903393 0.50318,0.15731 0.42461,0.928116 0.42461,1.326642 8e-5,1.022858 -0.30083,2.95723 1.01727,3.33823 0.77021,0.22268 1.32511,-0.24714 2.03073,-0.3749 0.0582,-0.28304 0.19922,-0.63669 0.0544,-0.91322 -0.26975,-0.515103 -1.03658,-0.445677 -1.21319,-1.118777 -0.3341,-1.273387 0.57082,-4.103539 -1.55059,-4.248319 -0.26797,-0.01829 -0.50588,0.04106 -0.7587,0.124629 -0.40259,0.133096 -0.73016,0.379053 -1.10397,0.56769 0.0919,-0.687747 0.76793,-1.19634 1.12057,-1.778 0.577,-0.951823 0.85936,-1.803062 1.04817,-2.878667 0.33249,-1.894163 0.71738,-4.152223 0.0246,-6.011334 -0.68368,-1.834726 -2.63999,-1.523915 -3.45525,-0.06054 -0.44526,0.799168 -0.44661,1.80975 -0.62179,2.685203 -0.57649,2.880953 0.063,5.820326 -0.24773,8.720667 -0.0914,0.853271 -1.29625,3.059431 -2.35594,2.850473 -0.63339,-0.124968 -0.88383,-0.757766 -0.92371,-1.326473 -0.0866,-1.23444 0.0847,-2.419434 0.15384,-3.640666 0.0737,-1.302766 -0.01,-2.960201 -0.30251,-4.233334 -0.11651,-0.506561 -0.74702,-1.099566 -0.69698,-1.608582 0.058,-0.590296 1.1005,-1.300819 1.38337,-1.866054 0.72432,-1.447292 0.72872,-4.12877 0.02,-5.581396 -0.69469,-1.423585 -1.72771,-2.691807 -3.18999,-3.350175 -0.52561,-0.236644 -1.16366,-0.204555 -1.68834,-0.450766 -0.61154,-0.28702 -0.0677,-1.147487 -1.10566,-0.910336 -0.5470304,0.124968 -0.7095904,0.682498 -1.1863504,0.904156 -0.56947,0.264752 -1.31834,0.175852 -1.92214,0.37321 -1.30869,0.427652 -2.38259,1.96486 -3.57521,0.612479 -1.21044,-1.372701 1.18519,-3.066712 2.3657,-3.240363 0.9419,-0.138599 1.90585,0.175768 2.80162,0.399119 1.9454704,0.485055 3.9870404,1.087374 6.0037104,1.087374 0.77462,0 1.57099,0.0287 2.286,-0.328761 1.21743,-0.608499 2.66523,-1.553464 3.30243,-2.803906 0.22115,-0.434001 0.51773,-1.034711 0.35475,-1.52391504 C 20.389176,0.21589196 20.311545,0.01167002 19.843525,0.0021944 19.494518,-0.03416416 19.054236,0.38979696 18.886426,0.64286596 18.265986,1.578602 17.333044,2.3700461 16.512986,2.6015017 15.793446,2.7568639 13.732256,2.488092 12.697206,2.360332 9.8264156,2.006086 6.0725656,0.81380996 3.3983356,2.388272 c -2.051573,1.207854 -2.84329098,3.469979 -1.33984,5.448723 0.377012,0.496232 1.68708,0.829988 1.64865,1.526794 -0.022,0.399458 -0.3524,0.724662 -0.46045,1.100328 -0.26929,0.936329 -0.30312,2.171701 -0.16514,3.132667 0.10887,0.758275 0.49185,1.438656 0.84242,2.113365 0.13388,0.257641 0.43616,0.540597 0.41999,0.849038 -0.0174,0.332909 -0.43408,0.607822 -0.63108,0.847598 -0.49608,0.603927 -0.970453,1.225804 -1.260326,1.961726 -0.891277,2.262632 -0.601582,4.753103 0.716926,6.751321 0.38745,0.587248 1.07638,0.940139 1.39981,1.53162 -0.89917,-0.134705 -1.67783,-0.694267 -2.624668,-0.666327 -1.57374998,0.04631 -2.69053098,1.744472 -1.33996898,2.921509 1.36036498,1.185579 3.66606698,0.688 5.06529698,-0.22318 m -0.9307,-1.185332 c -0.12831,0.748122 -1.939271,0.997292 -2.52066,0.650412 -0.739877,-0.44137 0.284531,-0.788165 0.657995,-0.812126 0.228995,-0.01465 0.451105,0.0091 0.677335,0.0414 0.39587,0.05673 0.78488,0.11701 1.18533,0.120312 m -0.99176,-5.67267 c -0.19958,-1.625093 0.3728,-3.852165 1.64074,-4.957319 0.56046,-0.488526 2.35423,0.286258 2.4582,0.97807 0.28812,1.916599 -0.38853,4.154932 -0.73312,6.011249 -0.12245,0.659638 -0.0319,1.76259 -0.61415,2.216658 -0.60102,0.46863 -1.07249,-0.244094 -1.35591,-0.692658 -0.74151,-1.173565 -1.22509,-2.166282 -1.39576,-3.556 m 4.03976,-14.308668 -0.66643,4.656667 -0.062,1.914313 -1.47291,0.879687 c -0.71244,-1.596898 -1.00149,-3.179657 -0.7861,-4.910667 0.067,-0.538395 0.17156,-1.319953 0.57437,-1.726099 0.46884,-0.472694 1.76431,-0.760815 2.41306,-0.813901 m -0.93129,22.606001 c 0.64474,1.37156 0.87859,2.8504 0.3518,4.318 -0.15541,0.43296 -0.37665,1.57296 -1.09571,1.16893 -0.40215,-0.22596 -0.49481,-0.8451 -0.54987,-1.2536 -0.14649,-1.08698 0.0988,-2.01781 0.4183,-3.048 0.16367,-0.52764 0.28305,-1.03657 0.87548,-1.18533 M 6.5173056,7.924116 8.3799756,7.07745 c -0.1342,0.657436 -1.25386,0.975021 -1.86267,0.846666 m 0.84667,8.212667 c 0.14334,0.609516 -0.0194,0.994665 -0.67734,0.762001 0.0965,-0.404453 0.29417,-0.608331 0.67734,-0.762001 m 1.43924,12.869331 c 0.79044,-0.19702 1.4508404,-0.519007 2.2860004,-0.427482 0.27008,0.02955 0.67183,0.04606 0.77884,0.355012 0.15147,0.43696 -0.36415,0.63254 -0.69418,0.66776 -0.89738,0.0957 -1.5663304,-0.0522 -2.3706604,-0.42595 v -0.16934 m 0.5927,-12.954001 0.42334,0.08467 c 0.0552,0.446871 0.10608,0.782575 -0.33867,1.016001 l -0.08467,-1.100667 m 2.0979204,1.434766 c -0.0416,-0.541866 0.74456,-0.604435 0.81619,-0.08103 0.0626,0.457285 -0.77953,0.560155 -0.81619,0.08103 m 9.24799,4.830567 c -0.27855,-0.367708 -0.24071,-1.14698 -0.25273,-1.608667 -0.0373,-1.432052 0.18567,-2.895939 0.38616,-4.318001 0.0537,-0.381254 0.0619,-1.698244 0.62857,-1.71433 0.52222,-0.0149 0.59114,1.436031 0.64982,1.798997 0.29125,1.800014 -0.51495,4.3053 -1.41182,5.842001 m 5.04174,-4.064001 c 0.16197,2.026412 0.36322,4.064424 0.37626,6.096001 0.004,0.585385 -0.0809,1.794425 0.67784,1.936072 1.13733,0.212429 0.86385,-1.791462 0.92456,-2.444072 0.17247,-1.854285 0.13894,-3.73778 0.35594,-5.584699 0.12124,-1.031832 0.5284,-2.067137 0.28685,-3.132667 -0.2551,-1.125135 -1.80907,-1.508929 -2.44805,-0.511217 -0.52942,0.826516 -0.24884,2.697396 -0.1734,3.640582 m 0.18745,10.414001 c 0.32309,1.718314 2.15096,1.129364 1.86292,-0.42291 -0.1899,-1.023366 -2.06586,-0.656082 -1.86292,0.42291"
       id="path762"
       sodipodi:nodetypes="ccsssccsccsccccccccccccsscccssscccssssccsscsscccccscscssccccscscccccsscsssccccccscccccccscscscccccssccssssccccccccccccccccccsccscccccccssccccsc" />
  </g>
</svg>
