<?xml version="1.0" encoding="UTF-8" standalone="no"?>
<!-- Created with Inkscape (http://www.inkscape.org/) -->

<svg
   width="36.34053mm"
   height="52.310658mm"
   viewBox="0 0 36.34053 52.310658"
   version="1.1"
   id="svg5"
   inkscape:version="1.1.1 (c3084ef, 2021-09-22)"
   sodipodi:docname="onoldia altdorf.svg"
   xmlns:inkscape="http://www.inkscape.org/namespaces/inkscape"
   xmlns:sodipodi="http://sodipodi.sourceforge.net/DTD/sodipodi-0.dtd"
   xmlns="http://www.w3.org/2000/svg"
   xmlns:svg="http://www.w3.org/2000/svg">
  <sodipodi:namedview
     id="namedview7"
     pagecolor="#ffffff"
     bordercolor="#666666"
     borderopacity="1.0"
     inkscape:pageshadow="2"
     inkscape:pageopacity="0.0"
     inkscape:pagecheckerboard="0"
     inkscape:document-units="mm"
     showgrid="false"
     inkscape:zoom="2.8284271"
     inkscape:cx="185.96908"
     inkscape:cy="135.58772"
     inkscape:window-width="1920"
     inkscape:window-height="1147"
     inkscape:window-x="1680"
     inkscape:window-y="25"
     inkscape:window-maximized="1"
     inkscape:current-layer="layer1" />
  <defs
     id="defs2" />
  <g
     inkscape:label="Layer 1"
     inkscape:groupmode="layer"
     id="layer1">
    <path
       style="fill:#000000;stroke-width:0.264583"
       d="M 16.32174,50.524712 C 13.20449,43.753734 13.10412,38.945156 15.9871,34.492507 c 1.16432,-1.798233 1.21041,-1.939822 0.91775,-2.819358 l -0.30814,-0.926041 -1.69902,0.09005 c -1.99773,0.105883 -3.48525,-0.243716 -4.78237,-1.123966 L 9.17784,29.077001 8.29309,29.674261 C 5.89623,31.292279 2.58238,31.30241 0.73182,29.697391 L 0,29.062663 1.05833,28.599846 c 1.61788,-0.707509 4.97585,-0.661112 6.38339,0.0882 0.60044,0.319651 1.1532,0.519705 1.22834,0.444563 C 8.74516,29.057469 8.40983,28.40628 7.9248,27.685523 7.43235,26.953741 6.96491,25.85485 6.86626,25.197014 6.52721,22.936032 7.78229,19.480427 9.48578,17.984743 c 0.72101,-0.633054 0.93755,-1.040316 0.99796,-1.876924 0.0701,-0.970474 -0.0502,-1.203102 -1.31179,-2.537036 -1.82057,-1.924984 -2.41189,-3.259494 -2.41926,-5.4598938 -0.005,-1.458886 0.11417,-1.923338 0.75013,-2.926137 0.41577,-0.6556 1.1982,-1.556546 1.73874,-2.002103 1.68726,-1.390779 3.15849,-1.709682 9.01469,-1.954012 3.26256,-0.136119 5.84967,-0.37550103 6.74688,-0.62427703 2.94119,-0.815534 2.88999,-0.8173 1.89655,0.06541 -1.74325,1.54896103 -5.0033,1.98782403 -9.05579,1.21907903 -2.96091,-0.561673 -4.34276,-0.343294 -6.3626,1.0055 -0.87883,0.586862 -1.91665,1.548712 -2.30625,2.137444 -0.61152,0.924064 -0.70837,1.344387 -0.70837,3.07412 0,1.649504 0.1347,2.2953328 0.76201,3.6535038 1.17743,2.549211 1.3356,2.538129 1.85679,-0.130102 0.79126,-4.0508978 2.36644,-6.5072368 4.37349,-6.8200418 0.51987,-0.08102 1.54313,-0.336001 2.27392,-0.566619 1.32566,-0.418346 1.33236,-0.41746 2.92628,0.387152 1.80462,0.910967 3.23034,2.351009 4.17163,4.213534 0.61461,1.2161358 1.40426,3.7784548 1.55538,5.0470628 0.0397,0.333186 0.15485,0.571311 0.25591,0.529167 0.10106,-0.04214 0.62165,0.340092 1.15688,0.849415 1.10289,1.049519 2.22481,3.213888 2.22867,4.29948 0.005,1.261742 0.44395,0.794288 1.06287,-1.130551 0.41701,-1.296908 0.55166,-2.195965 0.44578,-2.976562 l -0.15169,-1.118408 1.17489,-0.03286 c 0.6462,-0.01807 1.1749,0.05876 1.1749,0.170733 0,0.982279 -3.16537,6.873587 -3.69315,6.873587 -0.11116,0 -0.26874,-0.734802 -0.35017,-1.632893 -0.12182,-1.343423 -0.33308,-1.894542 -1.19172,-3.108854 -0.574,-0.811779 -1.20256,-1.475961 -1.39678,-1.475961 -0.23863,0 -0.45581,0.686287 -0.66981,2.116666 -0.34631,2.314681 -0.74008,3.544601 -1.81226,5.660443 -0.74666,1.473464 -0.70459,2.091696 0.27404,4.027269 0.34904,0.69034 0.35291,0.691073 1.74208,0.330729 1.6759,-0.434727 3.41688,-0.459896 4.84881,-0.0701 1.03633,0.282106 3.30588,1.547034 3.30682,1.843048 10e-4,0.297381 -2.034,1.284356 -3.17808,1.541414 -1.66479,0.374053 -3.36934,-0.06532 -5.18345,-1.336103 l -1.51905,-1.064101 -1.34224,0.619119 c -1.50526,0.694317 -5.18088,4.123693 -5.18088,4.833798 0,0.248864 0.36803,0.987396 0.81785,1.641181 1.25985,1.831126 2.32414,4.392851 2.67493,6.43848 0.37221,2.170591 0.0384,4.35061 -0.97134,6.343211 -0.74759,1.4753 -2.99363,4.248909 -3.44072,4.248909 -0.17891,0 -0.6953,-0.803672 -1.14752,-1.785938 z m 2.50597,-2.365433 c 1.29578,-2.765343 1.40123,-6.276528 0.32824,-10.929879 -0.28521,-1.236927 -0.62682,-2.422819 -0.75913,-2.635314 -0.36713,-0.589648 -1.12266,0.224465 -2.02894,2.186281 -0.72123,1.561233 -0.75706,1.816825 -0.74904,5.343824 0.009,3.77842 0.057,4.034928 1.44751,7.672917 0.29665,0.776111 0.31244,0.78199 0.71064,0.264584 0.22399,-0.291042 0.69681,-1.147128 1.05072,-1.902413 z m 0.50278,-17.253178 c 1.31539,-0.99578 3.83476,-2.455891 5.35255,-3.102105 0.18293,-0.07788 -1.42551,-2.464661 -1.66429,-2.469662 -0.32353,-0.0068 -2.41751,2.005906 -3.2623,3.135648 -0.33905,0.453422 -1.13431,1.127882 -1.76723,1.498798 -1.09603,0.642319 -1.13784,0.71147 -0.879,1.453965 0.14946,0.428763 0.32491,0.779571 0.38988,0.779571 0.065,0 0.88864,-0.583298 1.83039,-1.296215 z m -3.47713,-0.451884 c 0.31004,-0.118976 0.41852,-0.530429 0.41852,-1.5875 0,-0.784794 -0.10612,-1.426901 -0.23583,-1.426901 -0.1297,0 -0.88266,-0.646843 -1.67325,-1.437426 l -1.43742,-1.437425 -0.49479,0.837611 c -0.27214,0.460686 -0.94692,1.328112 -1.49952,1.92761 -0.94461,1.024784 -0.97715,1.114827 -0.54394,1.505045 1.57117,1.415219 4.06919,2.155082 5.46623,1.618986 z m 2.44093,-1.038329 c 0.99834,-0.585067 1.68175,-1.330015 1.68175,-1.833181 0,-0.08606 -0.35127,0.02516 -0.78061,0.24719 -0.42933,0.222017 -1.08418,0.403669 -1.45521,0.403669 -0.37102,0 -0.67622,0.148828 -0.67821,0.330729 -0.002,0.181901 -0.0754,0.59862 -0.16315,0.926042 -0.20322,0.758314 -0.008,0.74789 1.39543,-0.07445 z m 13.64326,0.170239 c 0.10316,-0.09164 -0.23374,-0.455301 -0.74866,-0.808128 -0.76071,-0.521248 -1.36086,-0.663792 -3.20145,-0.760399 -2.50717,-0.131593 -2.68034,0.08495 -0.82489,1.031528 1.73625,0.885767 4.08509,1.149919 4.775,0.536999 z M 7.68109,29.145781 C 6.94762,28.591272 5.29856,28.189219 4.14963,28.284787 L 3.175,28.365857 4.10104,28.96018 c 0.70184,0.450432 1.3104,0.592526 2.51354,0.586898 1.46338,-0.0069 1.54677,-0.03822 1.06651,-0.401297 z m 3.53689,-3.396856 c 0.45131,-0.857229 0.82056,-1.735793 0.82056,-1.952364 0,-0.216571 -0.29765,-1.218938 -0.66146,-2.227482 -0.3638,-1.008544 -0.66145,-2.176782 -0.66145,-2.596083 0,-1.095048 -0.40065,-1.18807 -1.06977,-0.248379 -0.71349,1.002003 -1.31245,2.92126 -1.30862,4.193187 0.003,0.92528 0.48521,2.835545 1.09626,4.340968 0.3725,0.917684 0.61405,0.713304 1.78448,-1.509847 z m 8.25534,1.388639 c 0.6403,-0.457279 1.19271,-0.852914 1.22757,-0.879187 0.0349,-0.02627 0.13562,-0.408908 0.2239,-0.850298 0.35772,-1.788604 -2.19836,-1.151261 -3.06808,0.765007 -0.28318,0.623941 -0.51749,1.283266 -0.52069,1.465168 -0.0102,0.579022 0.93574,0.35743 2.1373,-0.50069 z M 17.4356,24.136448 c 0.46108,-0.703695 2.27394,-1.706732 3.1049,-1.717905 0.49848,-0.0067 0.7497,0.737843 0.75485,2.237135 l 0.004,1.05232 0.69266,-0.692658 0.69266,-0.692659 -0.60842,-1.81487 c -0.33463,-0.998179 -0.7973,-2.638476 -1.02815,-3.645106 0,0 -0.36593,-2.14159 -0.53548,-2.118204 -1.21023,0.152009 -2.96147,0.266119 -2.96147,0.266119 -0.45018,0.02923 -2.59783,-0.016 -3.08309,-0.05108 l -0.15702,1.217795 c -0.0896,0.653709 -0.34894,1.930478 -0.57635,2.837265 -0.41262,1.645291 -0.41201,1.651401 0.2955,2.951339 0.38994,0.716449 1.07444,1.745989 1.5211,2.287868 l 0.81211,0.985234 0.30379,-1.196435 c 0.16708,-0.658041 0.51305,-1.515812 0.76881,-1.906159 z m 6.77014,-3.95844 c 0.65946,-2.578464 0.68106,-2.980194 0.13593,-2.527776 -0.22139,0.183736 -0.39688,0.212386 -0.39688,0.06479 0,-0.145521 0.1786,-0.412803 0.39688,-0.59396 0.28016,-0.232513 0.39687,-0.848167 0.39687,-2.093475 0,-3.162021 -1.12397,-6.2319728 -3.27325,-8.9403608 -0.90623,-1.14198 -1.2389,-1.378678 -1.95227,-1.389063 -1.02864,-0.01498 -1.04378,0.103039 -0.22471,1.751681 0.8306,1.671855 2.00749,5.4410888 2.19971,7.0449848 0.0666,0.55574 -0.12514,0.870017 0.15,1.08783 0.14719,0.116527 0.58497,0.317681 0.68581,0.388309 0.45597,0.319374 0.67183,0.733858 -0.0571,1.190819 -0.36706,0.230116 -0.4582,0.283165 -0.33155,1.207143 0.27255,1.988476 1.26814,5.361884 1.51082,5.119202 0.12478,-0.12478 0.46663,-1.164338 0.75968,-2.310128 z M 13.19321,19.597679 c 0.0925,-0.675154 0.18193,-1.737425 0.24425,-2.29573 0.0175,-0.15713 0.0618,-0.405406 -0.0258,-0.447462 -0.58958,-0.282966 -0.59443,-0.29605 -1.62002,0.349807 -0.56071,0.353104 -0.37138,-2.877947 0.10678,-2.406427 0.61661,0.608058 0.83665,0.911659 1.45214,0.415227 0.20872,-0.168339 0.18873,-1.226325 0.27983,-1.877516 0.31966,-2.28498 1.223,-5.2823888 2.01417,-6.4900728 0.75121,-1.146694 0.20589,-0.835725 -0.74643,0.425659 -2.07216,2.7446318 -2.84033,5.0210888 -2.83273,8.3946928 0.005,2.38146 0.42159,5.159376 0.77305,5.159376 0.10258,0 0.26223,-0.552399 0.35477,-1.227554 z m 5.92294,-3.951955 c 0.47294,-0.192357 0.85989,-0.474878 0.85989,-0.627824 0,-0.612171 -4.92592,-0.0723 -5.33681,0.584909 -0.44357,0.709465 2.76253,0.740198 4.47692,0.04292 z m -1.05834,-1.094019 c 2.17255,-0.142159 2.18282,-0.146268 2.18282,-0.873425 0,-2.005677 -2.2522,-7.5804398 -2.96633,-7.3423988 -0.55134,0.183781 -1.86702,4.3247548 -2.45031,7.7120778 -0.16941,0.983837 -0.15066,1.019755 0.437,0.837256 0.33771,-0.104873 1.59628,-0.254953 2.79682,-0.33351 z m 17.13495,14.485604 c -0.17481,-0.550788 0.25092,-1.597493 0.64976,-1.597493 0.34946,0 0.59905,0.977366 0.4054,1.5875 -0.21511,0.677746 -0.84134,0.683678 -1.05516,0.01 z M 35.0652,16.795785 C 34.58948,12.179566 34.58531,5.3361992 35.0572,3.0226572 c 0.45423,-2.22888903 0.70325,-1.888541 1.05391,1.440468 0.47639,4.522728 0.16243,14.3208028 -0.49692,15.5076598 -0.10272,0.184897 -0.34959,-1.243853 -0.5486,-3.175 z"
       id="path14525"
       sodipodi:nodetypes="ssscsscsscsssssssscsssssssssssssssssscsscssssssssssscsscsssssssssssscssssssssssssssscsssscssssscssssssscscsssssscsssssssscsccccssccccssscscccssssssscsssssccssssssssscsssssssssssssssssssccsscc" />
  </g>
</svg>
