<?xml version="1.0" encoding="UTF-8" standalone="no"?>
<!-- Created with Inkscape (http://www.inkscape.org/) -->

<svg
   width="37.496143mm"
   height="36.04361mm"
   viewBox="0 0 37.496143 36.04361"
   version="1.1"
   id="svg510"
   inkscape:version="1.1.1 (c3084ef, 2021-09-22)"
   sodipodi:docname="ostmark.svg"
   xmlns:inkscape="http://www.inkscape.org/namespaces/inkscape"
   xmlns:sodipodi="http://sodipodi.sourceforge.net/DTD/sodipodi-0.dtd"
   xmlns="http://www.w3.org/2000/svg"
   xmlns:svg="http://www.w3.org/2000/svg">
  <sodipodi:namedview
     id="namedview512"
     pagecolor="#ffffff"
     bordercolor="#666666"
     borderopacity="1.0"
     inkscape:pageshadow="2"
     inkscape:pageopacity="0.0"
     inkscape:pagecheckerboard="0"
     inkscape:document-units="mm"
     showgrid="false"
     inkscape:zoom="2.5620932"
     inkscape:cx="25.369881"
     inkscape:cy="128.21548"
     inkscape:window-width="1312"
     inkscape:window-height="969"
     inkscape:window-x="1810"
     inkscape:window-y="124"
     inkscape:window-maximized="0"
     inkscape:current-layer="layer1" />
  <defs
     id="defs507" />
  <g
     inkscape:label="Layer 1"
     inkscape:groupmode="layer"
     id="layer1">
    <path
       style="fill:#000000;stroke:none;stroke-width:0.0846667"
       d="m 5.4952074,26.373413 c -1.008888,-0.475827 -1.275257,-2.810002 -1.676417,-3.81 -0.281923,-0.702734 -0.558317,-1.387264 -1.456249,-1.237912 -1.357249,0.225721 -1.66497005,2.247562 -1.69209805,3.354578 -0.06322,2.580386 0.140335,4.875615 0.85725005,7.366 0.307307,1.067495 0.670975,2.362903 1.850848,2.782376 1.484867,0.527888 2.923032,-1.427565 3.526366,-2.528376 0.196088,-0.35775 0.523156,-1.466934 1.04665,-1.429427 0.56642,0.04064 1.119209,1.590726 1.426379,2.022094 0.9814556,1.378407 2.1929516,2.539509 3.8989846,2.900223 2.951226,0.623976 5.705859,0.02038 8.474289,-1.120132 0.80729,-0.332587 1.6217,-1.595738 2.45542,-1.645513 0.66124,-0.03948 1.30302,0.739123 1.86258,1.018879 1.037,0.518422 2.44559,0.651222 3.556,0.318084 0.56964,-0.170908 1.20929,-0.478342 1.57192,-0.964785 0.15384,-0.206333 0.32859,-0.668156 0.01,-0.827389 -0.49987,-0.249698 -1.33308,0.811581 -1.75108,1.022858 -0.75692,0.382567 -2.02251,0.181221 -2.794,-0.07827 -0.57023,-0.191804 -1.61501,-0.727329 -1.47379,-1.470627 0.0747,-0.392844 0.4213,-0.693978 0.63128,-1.016 0.52332,-0.802724 1.09956,-1.679024 1.51595,-2.54 1.17975,-2.439077 2.00076,-4.861729 2.50495,-7.535333 0.71425,-3.786971 -0.10803,-8.061368 -1.4914,-11.5993339 -0.5108,-1.306322 -0.83913,-2.777913 -2.19499,-3.472942 -0.74667,-0.382693 -1.64414,-0.518583 -2.45533,-0.693589 -2.23757,-0.482854 -4.84276,-0.722376 -7.112,-0.264499 -0.885528,0.178647 -1.7791,0.398949 -2.624667,0.716619 -0.387011,0.145372 -0.689525,0.424349 -1.100666,0.497078 -0.614511,0.604096 -1.507067,0.971042 -2.193714,1.502494 -1.1083706,0.857843 -2.2315586,2.349077 -2.7332936,3.6621729 -0.242062,0.633645 -0.478282,2.414016 -1.338411,2.452878 -0.379984,0.01719 -0.806534,-0.31513 -1.100243,-0.523156 -0.971135,-0.688001 -1.856672,-1.724914 -2.406675,-2.776389 -1.742026,-3.3302789 -1.461042,-7.8866159 2.745003,-9.1964089 1.974342,-0.61484903 4.2059856,0.28448 6.0959996,0.825246 2.528909,0.723646 5.122927,1.374648 7.707967,1.877145 1.18737,0.230886 2.50249,0.57785 3.72203,0.51545 2.32961,-0.119295 5.31529,-0.586316 7.36609,-1.750568 0.47007,-0.266869 1.88307,-1.273386 1.78494,-1.91033403 -0.0735,-0.476419 -0.62636,-0.09965 -0.77885,0.07713 C 30.21577,2.6521761 27.12078,3.0681431 24.88405,3.0170041 22.18666,2.9551941 19.75596,2.3208751 17.178117,1.6548871 16.201148,1.4024961 15.191583,1.3545741 14.216054,1.1140361 12.558365,0.70526607 11.057902,-0.04208693 9.3053874,0.00185507 c -2.48556,0.06232 -5.257902,0.653711 -6.781699,2.83421703 -2.10063905,3.006005 -1.253761,6.919722 0.939961,9.5640309 0.54494,0.656844 1.202207,1.281769 1.950373,1.700446 0.337058,0.188552 0.90297,0.36957 0.90297,0.84184 0,0.5196 -0.788332,0.628566 -1.160272,0.7747 -0.419524,0.164762 -0.987281,0.39768 -1.44267,0.309965 -0.883835,-0.170095 -1.487771,-0.787315 -2.451997,-0.80518 -0.48264205,-0.0089 -1.31214705,0.406908 -1.25967905,0.991447 0.156379,1.742186 2.85757605,0.505798 3.64354505,1.310978 1.230478,1.260602 1.506398,3.30581 1.704264,4.95444 0.164846,1.372616 0.407501,2.502662 0.145203,3.894667 m -3.701366,1.524008 c -0.07214,-0.611463 -0.0256,-1.24985 0.008,-1.862667 0.02633,-0.480568 -0.197561,-2.373122 0.564185,-2.391664 0.557183,-0.01363 0.74864,0.810429 0.888738,1.206331 0.474794,1.341543 0.956378,2.816436 1.126473,4.233333 0.06334,0.527558 -0.02817,1.506728 0.525771,1.799336 0.479823,0.253475 0.851256,-0.503767 0.908745,-0.868003 0.160866,-1.01964 0.283718,-2.099056 0.357547,-3.129364 0.0348,-0.485818 -0.09339,-1.153499 0.07806,-1.606635 0.154601,-0.408686 0.477096,-0.188722 0.637878,0.08103 0.243332,0.408263 0.223859,0.900599 0.317754,1.352973 0.420032,2.02438 -0.27686,3.808138 -1.270169,5.588 -0.402336,0.721047 -1.397152,2.097846 -2.389124,1.714238 -0.657996,-0.254449 -0.917033,-1.023273 -1.102758,-1.629571 -0.456904,-1.491573 -0.470061,-2.953173 -0.65107,-4.487333 m 4.378492,-7.704665 c -0.768266,-0.22225 -1.126355,-1.771566 -1.427514,-2.455334 -0.141961,-0.322326 -0.35041,-0.669882 -0.117975,-1.004739 0.486749,-0.70104 1.934278,-0.781812 1.844785,0.327406 -0.04072,0.505883 -0.123528,1.016593 -0.129624,1.524 -0.0065,0.5461 -0.04132,1.07569 -0.169672,1.608667 m 2.06873,2.954013 c -0.177969,-0.582337 -0.01101,-1.417151 8.47e-4,-2.022687 0.03031,-1.538393 -0.04056,-3.513751 0.421217,-4.992031 0.2286,-0.731859 1.295908,-0.729912 1.6309336,-0.08424 0.302006,0.582084 -0.08797,1.370246 -0.248666,1.943608 -0.4603326,1.642026 -0.4785356,3.599519 -1.1761896,5.155354 -0.143171,0.319109 -0.513757,0.374142 -0.628142,0 M 22.93652,10.117415 c 0,1.349926 -0.5235,2.653877 -0.75938,3.979334 -0.3766,2.115989 -0.57074,4.374557 -0.75912,6.519333 -0.21819,2.483697 0.0934,5.201836 0.67513,7.62 0.25967,1.0795 0.93989,2.29235 0.99433,3.386667 0.0473,0.951103 -1.32394,1.838613 -2.01363,2.29528 -2.33367,1.545226 -6.449061,1.757443 -8.805335,0.163127 -1.632458,-1.104561 -2.110317,-3.038797 -2.8267656,-4.744407 -0.399034,-0.950129 -0.813647,-1.710097 -0.721275,-2.794 0.139615,-1.638639 0.898398,-3.227155 1.244176,-4.826 0.3522976,-1.629326 0.5424596,-3.909653 1.4762476,-5.32511 0.554482,-0.840656 1.828716,-0.207603 2.407074,-1.113282 0.606383,-0.949537 -0.774785,-1.429597 -1.006179,-2.197693 -0.184827,-0.613495 0.57023,-1.62179 0.873591,-2.116582 0.200067,-0.32639 0.526542,-1.1124359 1.004739,-1.0612119 0.474388,0.0508 0.323427,0.7492149 0.317754,1.0612119 -0.02218,1.229783 0.03294,2.415371 0.116925,3.640667 0.174244,2.544572 0.821436,5.002953 1.078738,7.535333 0.181695,1.78816 0.09897,3.619246 0.09897,5.418667 0,0.973497 -0.188214,1.999403 -0.07087,2.963333 0.0326,0.267716 0.187368,0.96747 0.60596,0.802378 0.43417,-0.171221 0.375242,-0.861644 0.410633,-1.225711 0.120311,-1.238673 0.220641,-2.498513 0.421217,-3.725333 0.68961,-4.217501 1.18254,-8.868749 3.0171,-12.784667 0.41656,-0.88917 0.81847,-1.79341 1.34213,-2.624667 0.24316,-0.385911 0.39362,-0.76852 0.87783,-0.846667 M 15.31652,6.7307461 c -0.04657,0.85107 -0.948351,1.487932 -1.455843,2.116667 -1.043263,1.2926059 -1.497923,2.9590159 -2.47904,4.2317249 -0.329777,0.427905 -1.35255,1.035135 -1.8789226,0.606213 -0.527981,-0.430191 0.484632,-2.051219 0.7603906,-2.467271 1.267122,-1.9116889 2.526369,-4.1662779 5.053415,-4.4873339 m -3.169327,7.9540949 c -0.06147,-0.573447 0.868087,-0.698669 0.928539,-0.07976 0.06062,0.620607 -0.863007,0.690626 -0.928539,0.07976 m 5.53999,6.947229 c -0.750993,-0.284819 -0.754634,-2.637197 -0.758698,-3.385397 -0.01643,-3.077633 -0.338159,-6.145276 -0.341969,-9.2299369 -8.46e-4,-0.694859 -0.203792,-2.635504 0.434594,-3.053249 0.493353,-0.322749 1.36669,-0.312589 1.93607,-0.333756 1.37812,-0.05122 2.62958,-0.04733 3.99373,0.208195 0.44518,0.0834 1.96181,0.363982 1.69909,1.047412 -0.13496,0.351282 -0.59461,0.498432 -0.86673,0.720852 -0.39743,0.324696 -0.70367,0.744135 -1.00322,1.156546 -1.26687,1.7443029 -2.48988,3.8707069 -3.16679,5.9266669 -0.75184,2.283799 -1.0872,4.696122 -1.926077,6.942667 m 5.103797,2.709346 c -0.17035,-1.443313 0.13581,-2.88434 0.20913,-4.318001 0.15155,-2.960116 0.55482,-5.888312 1.08839,-8.805333 0.1866,-1.01998 0.1767,-3.6380419 1.47565,-4.0040559 0.57531,-0.162052 0.90374,0.645414 1.08696,1.040722 0.59165,1.276435 1.0419,2.6907069 1.34061,4.0640009 0.6477,2.978488 0.21793,5.774351 -0.20413,8.720666 -0.26213,1.829647 -0.33114,3.711533 -1.14825,5.418667 -0.49945,1.043348 -1.16688,2.074926 -1.79265,3.047916 -0.1745,0.271272 -0.48158,0.801708 -0.88011,0.687916 -0.52773,-0.150622 -0.54077,-0.939038 -0.65583,-1.365165 -0.40073,-1.484545 -0.34129,-2.976203 -0.51977,-4.487333 M 35.50276,6.3920821 c 0.30751,2.34171 0.18957,4.7680879 0.22563,7.1196199 0.0462,3.020314 0.0771,6.023779 0.0771,9.051714 0,1.266613 0.0494,2.544487 -0.003,3.81 -0.0184,0.440351 -0.0325,1.092962 0.59589,1.122934 0.62441,0.0298 0.65049,-0.693251 0.64219,-1.122934 -0.0279,-1.446107 -0.13411,-2.869608 -0.13411,-4.318 0,-4.334341 0.28702,-8.715333 0.18026,-13.0386679 -0.0254,-1.02726 0.238,-2.107776 0.32774,-3.132666 0.033,-0.376767 0.17442,-0.825924 -0.0152,-1.181608 -0.33265,-0.624248 -1.38819,-0.500804 -1.77182,0.01532 -0.29769,0.400304 -0.18567,1.208109 -0.12446,1.674284 m 1.2341,24.2993339 h -0.0847 l -0.33866,0.08467 c -0.16087,0.190331 -0.3556,0.371848 -0.46965,0.596003 -0.94987,1.866324 2.45762,1.472938 1.42198,-0.169206 -0.13132,-0.208187 -0.34189,-0.357709 -0.529,-0.511463"
       id="path526"
       sodipodi:nodetypes="cscssssccssscsscssccccscccscscsccccccscccscscscscccsccccsccsscscsccssccsccccccssccccccssssccccsscsccssssccscccccccccscccscsscccccccccccccccccccscscscscccccccsc" />
  </g>
</svg>
