<?xml version="1.0" encoding="UTF-8" standalone="no"?>
<!-- Created with Inkscape (http://www.inkscape.org/) -->

<svg
   width="25.125084mm"
   height="39.492035mm"
   viewBox="0 0 25.125084 39.492035"
   version="1.1"
   id="svg5"
   inkscape:version="1.1.1 (c3084ef, 2021-09-22)"
   sodipodi:docname="pythagoras.svg"
   xmlns:inkscape="http://www.inkscape.org/namespaces/inkscape"
   xmlns:sodipodi="http://sodipodi.sourceforge.net/DTD/sodipodi-0.dtd"
   xmlns="http://www.w3.org/2000/svg"
   xmlns:svg="http://www.w3.org/2000/svg">
  <sodipodi:namedview
     id="namedview7"
     pagecolor="#ffffff"
     bordercolor="#666666"
     borderopacity="1.0"
     inkscape:pageshadow="2"
     inkscape:pageopacity="0.0"
     inkscape:pagecheckerboard="0"
     inkscape:document-units="mm"
     showgrid="false"
     inkscape:zoom="2.5620932"
     inkscape:cx="69.864751"
     inkscape:cy="115.72569"
     inkscape:window-width="1312"
     inkscape:window-height="969"
     inkscape:window-x="1698"
     inkscape:window-y="198"
     inkscape:window-maximized="0"
     inkscape:current-layer="layer1" />
  <defs
     id="defs2" />
  <g
     inkscape:label="Layer 1"
     inkscape:groupmode="layer"
     id="layer1">
    <path
       style="fill:#000000;stroke:none;stroke-width:0.0846667"
       d="m 8.9479564,28.469802 c -1.511893,-0.67268 -2.806361,-1.64567 -4.572,-1.28617 -1.678093,0.34154 -2.377779,2.22724 -0.916601,3.31351 1.081616,0.80425 2.790274,0.38616 3.972221,0.009 0.521631,-0.16663 1.290151,-0.85006 1.689523,-0.0799 0.275336,0.53094 -0.51672,1.52154 -0.678688,2.02311 -0.526118,1.62906 -1.121071,3.27741 -0.698161,4.99533 0.191347,0.77705 0.724831,1.72046 1.542373,1.97673 1.1421526,0.35802 1.5486366,-0.71992 1.9047446,-1.55339 0.7874,-1.84289 1.110404,-4.00383 0.388451,-5.92667 -0.175683,-0.46778 -1.442381,-1.91237 -0.901446,-2.31047 0.390906,-0.2877 1.226397,0.69359 1.571583,0.87275 1.445344,0.75031 3.050963,1.2904 4.572,0.4445 0.50783,-0.28254 1.063498,-0.73771 1.075266,-1.37745 0.03971,-2.16653 -3.564805,-2.3909 -4.969933,-1.72779 -0.434171,0.20489 -1.441789,1.07721 -1.914313,0.677 -1.2903196,-1.09288 -0.68978,-2.36441 -0.760645,-3.77521 -0.08873,-1.76657 -0.5925816,-3.55337 -0.6077376,-5.334 -0.0071,-0.84091 1.0186246,-0.80941 1.5893626,-1.02709 0.49259,-0.18796 1.20125,-0.78909 1.693333,-0.81111 0.357124,-0.0159 0.739733,0.2187 1.100667,0.26086 0.610954,0.0713 1.66751,-0.11159 2.201333,-0.41732 2.276687,-1.30412 3.957828,-3.88239 3.889248,-6.55997 -0.102785,-4.0131998 -3.8989,-6.7955198 -7.699248,-6.3466998 0.08805,-0.29252 0.690033,-0.89196 0.287613,-1.17958 -0.505376,-0.36118 -1.656758,0.97248 -2.065952,1.20642 -1.0071936,0.57599 -2.2096296,0.71992 -3.2313866,1.2584 -1.111589,0.58581 -1.962997,1.57522 -2.759372,2.52053 -1.193969,1.41732 -1.459568,3.9760298 -1.458891,5.7615598 2.54e-4,0.77343 0.347133,1.52874 0.08399,2.286 -2.78993595,-2.81322 -2.56743195,-6.6832498 -1.042416,-10.0753298 0.555075,-1.23461 1.347724,-2.61764 2.48175,-3.41774 0.766656,-0.54077 1.79959,-0.78537 2.709418,-0.95326 3.3551696,-0.61908 6.3904696,1.86097 9.7365806,1.56735 1.724322,-0.15139 3.360844,-0.95089 4.640157,-2.09652 0.272796,-0.24435 1.051898,-0.75251996 1.112096,-1.12089996 0.09999,-0.61214 -1.161203,0.009 -1.349586,0.10913 C 19.542974,1.4450122 17.895361,1.7018922 15.636623,1.3407022 13.853205,1.0554622 12.020002,0.44171224 10.217957,0.33173224 7.0382164,0.13767224 4.1139144,1.0796722 2.0162124,3.5614222 c -0.606636,0.71772 -1.06341295,1.94344 -1.44187295,2.8106 -1.12345,2.57386 -0.484378,6.3139298 0.92870895,8.6359998 0.590719,0.97078 1.539409,1.66751 2.11074,2.62466 0.430106,0.72035 0.518668,1.67107 0.808312,2.45534 0.310388,0.8404 0.89044,1.69223 1.36034,2.45533 0.676656,1.09897 1.30302,2.27042 2.079582,3.302 0.662856,0.88062 1.490896,1.47489 1.085935,2.62467 m -5.731433,0.76203 c -0.05978,-0.56422 0.41385,-0.86495 0.905425,-1.00719 0.95758,-0.2772 2.000165,0.22259 2.878667,0.5571 0.328676,0.12514 0.966724,0.37144 1.022688,0.78071 0.04818,0.35273 -1.008041,0.65245 -1.276688,0.72822 -1.09237,0.3081 -3.357457,0.57193 -3.530092,-1.05884 M 9.1172784,6.2026322 c -0.263482,1.47727 -1.617133,2.8553 -2.09169,4.3179998 -0.447463,1.37914 -0.59419,3.13089 -0.42418,4.572 0.07552,0.64 0.615527,2.12116 0.34815,2.68368 -0.38244,0.80442 -1.757765,-0.1634 -1.858688,-0.73634 -0.54974,-3.12022 -0.84057,-6.731 1.536362,-9.2044598 0.516043,-0.53695 1.726184,-1.76343 2.490046,-1.63288 m -1.778,12.5306798 c 0.576665,1.77224 1.433153,3.59351 1.792055,5.41867 0.130471,0.66344 0.427736,1.37244 0.155279,2.032 h -0.169334 c -1.144947,-1.73609 -2.09169,-3.78562 -2.969175,-5.67267 -0.169249,-0.36398 -0.852085,-1.63788 -0.451019,-1.97002 0.293624,-0.24308 1.245446,0.21683 1.642194,0.19202 m 2.201342,12.44604 c 0.387942,0.24951 0.5123176,0.77445 0.6946896,1.18533 0.658029,1.48221 0.567012,3.01726 0.344254,4.572 -0.07764,0.54165 -0.289221,1.60892 -0.8742676,1.84464 -0.855641,0.34477 -1.403434,-1.27647 -1.5113,-1.84464 -0.348488,-1.83578 0.331978,-4.21877 1.346624,-5.75733 m -0.482685,-16.59467 c -0.08407,-0.85191 0.08407,-1.74184 0.149267,-2.58877 0.162476,-2.1114098 0.290915,-5.0385898 2.1258946,-6.5184798 0.509101,-0.41072 1.4975,-0.22759 2.102189,-0.19973 2.870962,0.13199 5.01269,2.5665 5.241459,5.4123198 0.171281,2.13173 -0.55482,3.97594 -2.108792,5.42078 -0.586571,0.54534 -2.022856,1.25975 -2.864782,0.87816 -0.412665,-0.18703 0.01,-0.77919 0.121582,-1.04953 0.376174,-0.91211 0.0052,-1.91287 -1.151467,-1.8183 -0.731943,0.0598 -1.498685,1.01558 -1.17348,1.73355 0.161459,0.35662 0.797221,0.83278 0.525103,1.25874 -0.19431,0.30412 -0.64787,0.38261 -0.96029,0.50716 -0.322495,0.1286 -1.1816066,0.50258 -1.5003766,0.33096 -0.270426,-0.14554 -0.287782,-0.56033 -0.326052,-0.82686 -0.120565,-0.83947 -0.09694,-1.69629 -0.180255,-2.54 m 0.313351,14.478 c 0.03615,-0.13309 0.06121,-0.29032 0.128101,-0.41283 0.482177,-0.88316 1.5964736,1.30327 0.214376,0.63576 -0.121327,-0.0586 -0.232325,-0.14723 -0.342477,-0.22293 m 2.3008176,0.0994 c 0.05207,-0.38735 0.85979,-0.62831 1.167214,-0.7454 0.997374,-0.37982 4.155779,-0.58624 3.955627,1.2374 -0.05613,0.51181 -0.574717,0.61781 -0.988991,0.70468 -1.023451,0.21455 -2.153158,0.20091 -3.132667,-0.21404 -0.312843,-0.1325 -1.057233,-0.56523 -1.001183,-0.98264 m 0.445266,-13.5614 c -0.130048,-0.72593 0.966893,-1.29472 1.129284,-0.42206 0.17636,0.94784 -0.922105,1.57768 -1.129284,0.42206 m 3.773256,0.67728 0.08467,-0.0847 -0.08467,0.0847 m 5.967568,9.82176 c 0.367453,1.6825 2.797556,0.54102 2.478193,-0.93133 -0.445601,-2.05469 -2.851319,-0.77707 -2.478193,0.93133 m 0.842924,-9.65199 c 0.189823,1.75235 0.23749,3.56845 0.216493,5.334 -0.0062,0.51892 -0.28702,1.58801 0.427312,1.80357 0.410634,0.12395 0.672,-0.26594 0.709592,-0.61832 0.127592,-1.19524 0.246549,-2.44424 0.299466,-3.64058 0.164592,-3.72703 0.415798,-7.44898 0.533146,-11.1759998 0.02752,-0.87232 0.09017,-1.7537 0.149606,-2.62467 0.02515,-0.36949 0.173058,-0.81847 0.01973,-1.17611 -0.259757,-0.60553 -2.064004,-0.63643 -2.19075,0.0792 -0.380068,2.14537 -0.109728,4.59469 -0.06765,6.7696098 0.03361,1.73592 -0.283295,3.52941 -0.09694,5.24933"
       id="path39"
       sodipodi:nodetypes="ccccsccsscscccssscccccscscscccscccccccsscccscccccscsccsscccccsccsccccsssccccccsscccsccsccsscccccsccsccccccccscccccccsc" />
  </g>
</svg>
