<?xml version="1.0" encoding="UTF-8" standalone="no"?>
<!-- Created with Inkscape (http://www.inkscape.org/) -->

<svg
   width="33.399548mm"
   height="37.522381mm"
   viewBox="0 0 33.399548 37.522381"
   version="1.1"
   id="svg5"
   inkscape:version="1.1.1 (c3084ef, 2021-09-22)"
   sodipodi:docname="rhenania brunsviga.svg"
   xmlns:inkscape="http://www.inkscape.org/namespaces/inkscape"
   xmlns:sodipodi="http://sodipodi.sourceforge.net/DTD/sodipodi-0.dtd"
   xmlns="http://www.w3.org/2000/svg"
   xmlns:svg="http://www.w3.org/2000/svg">
  <sodipodi:namedview
     id="namedview7"
     pagecolor="#ffffff"
     bordercolor="#666666"
     borderopacity="1.0"
     inkscape:pageshadow="2"
     inkscape:pageopacity="0.0"
     inkscape:pagecheckerboard="0"
     inkscape:document-units="mm"
     showgrid="false"
     inkscape:zoom="1.2810466"
     inkscape:cx="209.98456"
     inkscape:cy="257.21157"
     inkscape:window-width="1312"
     inkscape:window-height="969"
     inkscape:window-x="1693"
     inkscape:window-y="195"
     inkscape:window-maximized="0"
     inkscape:current-layer="layer1" />
  <defs
     id="defs2" />
  <g
     inkscape:label="Layer 1"
     inkscape:groupmode="layer"
     id="layer1">
    <path
       style="fill:#000000;stroke:none;stroke-width:0.0846667"
       d="m 14.986697,34.81633 v 0 0 c -0.672814,-0.09216 -1.082043,-0.109753 -1.582931,-0.448614 -0.996273,-0.674023 -0.717974,-1.623424 -0.280247,-2.598116 0.255101,-0.568028 0.846074,-0.59182 1.355175,-0.800184 0.768096,-0.314368 1.451102,-0.769874 2.116666,-1.26509 2.224109,-1.654894 3.297598,-4.338574 3.302,-7.079996 6.78e-4,-0.414359 -0.248327,-2.442464 0.589365,-2.097786 1.156293,0.475742 1.336887,2.916767 1.466766,3.960453 0.471678,3.791204 -0.206418,7.675821 1.97722,11.091334 0.51452,0.804765 1.27271,1.77424 2.31665,1.819545 0.965793,0.04192 2.384213,-1.104527 2.089743,-2.149 -0.221827,-0.786994 -1.631475,0.398923 -1.907094,0.397096 -0.126978,-0.01181 -0.356143,-0.04598 -0.47679,-0.241207 -0.417915,-0.797891 -0.667172,-2.075029 -0.782064,-2.959101 -0.391414,-3.01388 0.06689,-6.150102 -0.628396,-9.144001 -0.268309,-1.155107 -0.858097,-2.162894 -1.520614,-3.132666 -0.235288,-0.34434 -0.937429,-0.81551 -0.892048,-1.27 0.04555,-0.456269 0.684954,-0.999406 0.952924,-1.354667 0.706882,-0.937006 1.394544,-1.863005 1.828715,-2.963334 0.490474,-1.243245 0.705781,-2.650828 0.738717,-3.979333 0.01583,-0.6410106 -0.216239,-1.6922326 0.04555,-2.2823586 0.17018,-0.38371 0.654135,-0.54373 0.974683,-0.773261 0.776648,-0.556091 2.083562,-1.869948 1.485308,-2.946824 -0.820928,-1.477772 -2.354411,1.500971 -3.340355,0.936329 -0.538564,-0.30844 -0.974598,-1.152991 -1.4108,-1.608413 -0.868426,-0.906949 -2.038604,-1.836589 -3.132921,-2.454148 -3.118866,-1.76004995 -7.820576,-2.24451295 -10.7005971,0.240284 -1.518074,1.309709 -2.079498,2.925318 -3.058499,4.569969 -0.268309,0.450765 -0.782828,0.633814 -1.163659,0.969856 -0.713486,0.629412 -1.560195,1.775714 -1.649476,2.7558996 -0.04369,0.479722 0.363728,0.986452 0.872913,0.817711 0.693336,-0.229701 1.081786,-1.7093346 1.837267,-1.6366906 0.408094,0.03928 0.814409,1.0913526 1.000506,1.4116466 0.621284,1.069255 1.605788,1.906947 2.7503121,2.371005 0.508085,0.205994 1.671913,0.110829 1.89628,0.68072 0.404368,1.027515 -0.634323,1.828123 -1.139444,2.536275 -0.548556,0.768943 -0.9469121,1.7653 -1.3384111,2.624667 -0.503259,1.104815 -0.917871,2.506811 -0.976461,3.725333 -0.04961,1.031071 0.24511,2.402248 0.0068,3.386329 -0.198798,0.820843 -1.479466,0.60833 -1.646767,1.524338 -0.164846,0.90314 0.488188,1.469983 0.545507,2.286 0.04521,0.64516 -0.944301,1.747839 -1.242328,2.274127 l -0.0804,0.01537 c -0.192532,-1.013714 -0.51191,-2.710125 -0.97927,-3.644167 -1.067215,-2.133092 -3.480892,-1.967315 -4.62450202,0.0076 -0.940028,1.623314 -0.634949,4.066726 0.164829,5.665046 1.37002602,2.737934 4.97461602,3.709865 7.72086402,2.723643 0.458216,-0.164559 1.039791,-0.363635 1.439333,-0.63997 0.4289221,-0.29663 0.8768931,-0.866742 1.4393341,-0.878476 0.657352,-0.01372 1.497245,0.688272 2.116667,0.931849 1.56447,0.615197 3.452791,0.690347 4.910666,-0.329319 1.28668,-0.899956 1.898312,-2.790021 2.175087,-4.26306 0.07442,-0.396071 0.352806,-1.584791 -0.315806,-1.633051 -0.899923,-0.06485 -1.010328,2.241796 -1.298618,2.818384 -0.816017,1.631781 -2.242905,2.16508 -3.947329,2.032 M 1.5628339,31.260324 c -0.122708,-0.833374 0.442984,-3.733376 1.595145,-2.20091 0.828032,1.101344 0.720522,2.870962 1.13947,4.148244 0.269138,0.820674 0.859857,1.482107 1.799234,1.371329 1.195578,-0.140996 1.563963,-2.054225 1.911435,-2.979996 0.139615,-0.37211 0.365083,-1.112774 0.876131,-1.111927 0.270679,5.08e-4 0.444161,0.311234 0.550079,0.519599 0.308017,0.605367 0.6173051,1.453532 0.7662331,2.116328 0.404199,1.798557 -2.1858391,2.485619 -3.5471101,2.42587 -2.557069,-0.112235 -4.696308,-1.610657 -5.090617,-4.288537 m 6.67633,-22.7753306 c -0.09686,-0.723815 0.479552,-1.036489 1.074844,-1.255014 1.0924541,-0.400896 2.4142701,-0.373972 3.5560001,-0.159512 0.448141,0.08416 1.420368,-0.02777 1.511131,0.571585 0.09381,0.619252 -0.373296,1.437555 -0.68834,1.943608 C 13.204864,10.36925 12.810995,11.108221 11.854008,11.386605 10.170411,11.876317 8.4456659,10.029059 8.2391639,8.4849934 m 1.205401,-3.907192 c -0.163068,-0.823468 1.7608121,-1.841754 2.3247771,-2.177796 2.32537,-1.385655 5.163905,-0.757513 7.281334,0.695706 0.521377,0.357886 1.774698,1.19617 1.793494,1.916938 0.02015,0.773938 -1.502918,0.298704 -1.91406,0.214545 -2.32774,-0.476334 -4.496392,-0.997289 -6.906768,-0.725763 -0.65024,0.07324 -1.298025,0.192617 -1.947249,0.281094 -0.2287691,0.03116 -0.5698911,0.10668 -0.6315281,-0.204724 M 10.015472,26.942332 c -0.2331721,-1.976205 -0.1145541,-4.336119 0.350435,-6.265333 0.121751,-0.504952 0.182542,-1.168485 0.476335,-1.603672 0.132165,-0.195664 0.398018,-0.401574 0.587333,-0.145796 0.353144,0.477266 0.09745,1.771396 0.06917,2.342134 -0.08924,1.799506 0.01414,3.617299 -0.06477,5.418667 -0.02616,0.598255 0.165862,1.836844 -0.466259,2.197354 -0.750824,0.42816 -0.906695,-1.557528 -0.952246,-1.943354 m 3.818361,1.776724 c -0.144526,-0.881549 0.32131,-2.057315 0.383286,-2.962063 0.06604,-0.963253 -0.133012,-1.918462 -0.132927,-2.878667 0,-1.036151 0.162306,-2.089404 0.176191,-3.132667 0.01397,-1.058333 -0.444076,-2.461344 0.02388,-3.466338 0.308102,-0.661754 1.230376,-0.25383 1.704002,-0.0232 1.076028,0.524086 1.834726,2.294043 2.062649,3.40487 0.459571,2.239602 0.35941,5.331375 -0.895858,7.281333 -0.597577,0.928201 -1.27,1.401826 -2.168313,2.002875 -0.425789,0.284819 -1.035389,0.490389 -1.152906,-0.226145 m 0.846666,-14.901672 c -0.243247,-1.445938 0.652865,-3.501475 1.311487,-4.7397246 0.227584,-0.427905 0.45847,-1.100921 0.943356,-1.291844 1.131739,-0.445516 3.169666,0.557953 4.31673,0.783759 0.503936,0.09923 1.055032,0.156295 1.16603,0.76217 0.390567,2.1321596 0.06672,5.2448456 -1.142154,7.0513786 -0.340783,0.509354 -0.874776,1.644734 -1.630934,1.560576 -0.405807,-0.04521 -0.598085,-0.506138 -0.767419,-0.822706 -0.374142,-0.699601 -0.776393,-1.29921 -1.375325,-1.833034 -0.492421,-0.438997 -1.074081,-0.803656 -1.729401,-0.94488 -0.420286,-0.09059 -0.995596,0.04928 -1.09237,-0.525695 m 15.262456,22.776946 c 0.55262,1.829096 3.302678,0.684157 2.812458,-1.100667 -0.606468,-2.20831 -3.433234,-0.953948 -2.812458,1.100667 m -0.01473,-20.227714 c 0.446194,3.840818 0.29735,7.810246 0.544915,11.67638 0.05563,0.868511 -0.362119,3.410881 0.854456,3.634909 0.456692,0.08407 0.680466,-0.376936 0.727879,-0.756242 0.150368,-1.204214 0.172636,-2.432389 0.31623,-3.640667 0.384133,-3.232743 0.300144,-6.508835 0.757767,-9.736667 0.205486,-1.448816 0.604944,-3.770122 -0.280247,-5.07238 -0.489627,-0.720429 -2.011426,-1.462532 -2.550583,-0.338328 -0.578781,1.206838 -0.521631,2.931922 -0.370417,4.232995"
       id="path57"
       sodipodi:nodetypes="cccssscsccssccccccsccccccscccscscccsccccscccccssssssssccccscsccccscccscccccccccssccccccccccccccccccccscccccccscccccscccccsc" />
  </g>
</svg>
