<?xml version="1.0" encoding="UTF-8" standalone="no"?>
<!-- Created with Inkscape (http://www.inkscape.org/) -->

<svg
   width="29.300741mm"
   height="38.245686mm"
   viewBox="0 0 29.300741 38.245686"
   version="1.1"
   id="svg1071"
   inkscape:version="1.1.1 (c3084ef, 2021-09-22)"
   sodipodi:docname="saxonia prag.svg"
   xmlns:inkscape="http://www.inkscape.org/namespaces/inkscape"
   xmlns:sodipodi="http://sodipodi.sourceforge.net/DTD/sodipodi-0.dtd"
   xmlns="http://www.w3.org/2000/svg"
   xmlns:svg="http://www.w3.org/2000/svg">
  <sodipodi:namedview
     id="namedview1073"
     pagecolor="#ffffff"
     bordercolor="#666666"
     borderopacity="1.0"
     inkscape:pageshadow="2"
     inkscape:pageopacity="0.0"
     inkscape:pagecheckerboard="0"
     inkscape:document-units="mm"
     showgrid="false"
     inkscape:zoom="1.2810466"
     inkscape:cx="-12.489788"
     inkscape:cy="246.283"
     inkscape:window-width="1312"
     inkscape:window-height="969"
     inkscape:window-x="2137"
     inkscape:window-y="82"
     inkscape:window-maximized="0"
     inkscape:current-layer="layer1" />
  <defs
     id="defs1068" />
  <g
     inkscape:label="Layer 1"
     inkscape:groupmode="layer"
     id="layer1">
    <path
       style="fill:#000000;stroke:none;stroke-width:0.0846667"
       d="m 14.360843,26.923981 c -0.865801,-0.245025 -2.298191,-1.143084 -2.608749,-2.032084 -0.3175,-0.908643 0.617982,-2.382436 0.789348,-3.301916 0.352552,-1.89213 -0.08526,-3.959944 -0.333164,-5.842 -0.106934,-0.811614 -0.465497,-2.120222 -0.03488,-2.873756 0.27432,-0.47989 1.501817,-0.665056 1.877483,-0.203962 0.207772,0.255016 -0.200491,0.700786 -0.278977,0.96139 -0.200321,0.664803 0.06739,1.423755 0.673947,1.789684 1.054692,0.636355 2.094738,-0.488018 1.919393,-1.536022 -0.06638,-0.397256 -0.478282,-0.730081 -0.494707,-1.101937 -0.01787,-0.403945 0.779102,-0.69342 0.592074,-1.072473 -0.270426,-0.548216 -1.057572,0.427144 -1.335532,0.477944 -0.459317,0.0839 -1.14444,-0.404792 -1.61417,-0.479129 -0.341461,-0.05402 -0.767757,0.09745 -1.086781,-0.0065 -0.199644,-0.06502 -0.242655,-0.254508 -0.221996,-0.442892 0.0773,-0.705781 0.753787,-0.684699 1.24951,-0.971211 1.232831,-0.712216 2.515955,-1.560153 2.51587,-3.09245 0,-0.399542 0.0326,-0.752348 -0.258995,-1.063075 C 14.286423,4.615688 11.970028,6.719485 11.226401,7.958667 11.022778,8.298095 10.766661,9.378188 10.404965,9.524154 10.126073,9.636676 9.6195971,9.253136 9.3622101,9.15035 7.9273641,8.577326 6.8223801,7.27075 6.8010441,5.672667 6.7952441,5.236379 6.8861341,4.724146 7.0464921,4.318 8.3746581,0.95317703 12.70248,2.048256 15.376845,2.658533 c 0.568198,0.12971 1.128353,0.352806 1.693334,0.51181 0.815001,0.229447 1.532466,0.347218 2.370666,0.446194 1.16459,0.137329 2.396914,0.0751 3.471249,-0.39624 0.286258,-0.125646 1.11887,-0.44958 0.840655,-0.907458 -0.239776,-0.394631 -0.893995,0.0081 -1.179237,0.128101 -1.046565,0.440351 -2.467779,0.354076 -3.556,0.101261 C 15.728127,1.778 12.915162,-2.5397279e-4 9.4501791,2.7207541e-8 7.9301581,8.5027208e-5 5.7251841,0.97993203 5.2209941,2.54 c -0.76962,2.381673 -0.265938,5.077968 1.946487,6.508496 0.8255,0.533654 2.8637649,0.877232 3.2930249,1.790108 0.552874,1.17585 -0.9631679,2.525183 -1.4912339,3.385396 -1.028446,1.675469 -1.959271,4.463712 -1.314111,6.434667 0.366776,1.120394 0.760899,2.053251 1.448477,3.02387 0.261874,0.36957 0.786892,0.877231 0.618998,1.378458 -0.162729,0.485733 -0.704765,0.663025 -1.087458,0.312505 -1.776392,-1.627463 -3.578945,-3.653113 -6.296999,-2.989834 -1.230223,0.300228 -2.61194999,0.883327 -2.29116399,2.422398 0.117026,0.561509 0.589237,1.106424 0.96073799,1.524931 1.1748,1.323509 3.004371,1.841415 4.717093,1.571837 1.829816,-0.288036 3.59139,-1.160865 5.3162199,0.112522 0.628396,0.463888 0.256709,1.349417 -0.180002,1.821688 -1.3359549,1.444422 -1.9715479,3.960139 -1.7716499,5.895628 0.08247,0.798085 0.303361,1.698709 0.9776459,2.227394 1.564386,1.22659 3.009562,-1.823052 3.023447,-2.99273 0.01482,-1.244465 -0.330623,-2.424329 -0.588772,-3.640667 -0.156972,-0.739648 -0.33528,-1.490556 0.262636,-2.105745 0.345609,-0.355684 1.238842,-1.094486 1.751414,-1.114213 0.56388,-0.02167 1.165691,0.55118 1.707727,0.688171 1.711621,0.432731 3.697478,0.432731 5.418667,0.05859 0.93726,-0.203793 1.778084,-0.798237 1.727369,-1.844802 -0.03852,-0.794935 -0.805095,-1.349671 -1.374309,-1.817878 -1.073743,-0.883158 -2.641939,-1.218099 -3.993727,-0.742103 -0.551942,0.19431 -1.010835,0.604181 -1.527302,0.869272 -0.680551,0.34925 -1.806448,0.875877 -2.113365,1.606042 M 0.93778211,24.637981 c -0.02526,-0.892217 0.78291299,-0.835067 1.44912899,-0.833882 1.403045,0.0025 2.600571,0.97282 3.700729,1.752431 0.299974,0.212513 1.255099,0.585216 1.206416,1.029631 -0.07061,0.644314 -1.38828,0.458809 -1.823212,0.567267 -1.564979,0.390059 -4.47856999,-0.590042 -4.53306199,-2.515447 M 8.9058551,18.457279 c 0,-1.108202 0.219964,-2.09567 0.560239,-3.132582 0.102108,-0.311404 0.395902,-1.065784 0.8676639,-0.745321 0.347134,0.235881 0.276437,1.213189 0.325628,1.591903 0.206672,1.591479 0.50309,3.116241 0.483786,4.741333 -0.0082,0.688933 -0.113877,1.373717 -0.30734,2.032 -0.05249,0.178477 -0.09373,0.64262 -0.373042,0.599355 -0.352552,-0.05461 -0.6951979,-0.814408 -0.8107679,-1.107355 -0.476758,-1.209209 -0.746167,-2.677245 -0.746167,-3.979333 M 11.14351,31.411315 c 0.411226,1.300319 0.671407,3.065577 0.275252,4.402667 -0.111506,0.376351 -0.317924,1.595094 -0.941324,1.266012 -0.445093,-0.234933 -0.4966549,-1.080025 -0.5159589,-1.520012 -0.05207,-1.188263 -0.180255,-3.608197 1.1820309,-4.148667 m -0.592666,-4.572 -0.423334,-0.338667 c 0.276352,-1.735243 2.39158,-0.19812 2.849118,0.642366 0.14495,0.266277 -0.058,0.943356 -0.459824,0.817965 C 12.308693,27.896119 12.2435,27.553563 12.062398,27.425208 11.663956,27.142929 11.02667,26.928977 10.550844,26.839315 M 12.659636,9.553514 c -0.0453,-0.256879 0.239099,-0.535432 0.346964,-0.7482 0.331386,-0.653711 0.600118,-1.327404 1.188212,-1.808988 0.290407,-0.237744 0.893572,-0.517736 1.016762,0.03598 0.22098,0.993394 -0.893233,1.88468 -1.563962,2.411391 -0.178647,0.140208 -0.908897,0.558885 -0.987976,0.109813 m 2.20921,3.485138 c 0.218525,0.07789 0.357463,0.16256 0.506476,0.347895 1.075436,1.336802 -1.205907,1.737868 -0.802978,0.244941 0.05808,-0.215223 0.18271,-0.404199 0.296502,-0.592836 m 0.913723,14.307651 c -0.153077,-0.635932 1.025652,-0.956395 1.456944,-1.075775 1.31318,-0.363728 2.166705,-0.362627 3.472603,0.01329 0.415968,0.119718 1.164167,0.433239 1.293453,0.895773 0.196342,0.702479 -0.748792,0.850392 -1.210056,0.905595 -1.218692,0.145796 -2.544064,0.225467 -3.725333,-0.02633 -0.432986,-0.09237 -1.161034,-0.186859 -1.287611,-0.712554 m 10.849674,-0.168399 c 0.547455,1.261618 2.676737,0.451442 2.228004,-0.761492 -0.432732,-1.169586 -2.781046,-0.513165 -2.228004,0.761492 M 26.842729,10.24465 c 0.247819,1.887474 0.215053,3.938863 0.218101,5.842 0.0019,1.155615 -0.05707,2.317919 -0.0064,3.471333 0.05605,1.274996 0.07823,2.541948 0.09381,3.81 0.004,0.32275 0.133688,0.98679 0.588602,0.899414 0.381339,-0.07315 0.331301,-0.520954 0.36322,-0.814408 0.09339,-0.858859 0.270087,-1.683766 0.345017,-2.540339 0.318516,-3.644985 0.466852,-7.265924 0.675555,-10.922 0.06943,-1.215306 0.597747,-3.357626 -0.56134,-4.25848 C 27.953166,5.261085 27.252803,5.70669 27.05553,6.353285 26.727446,7.42889 26.697051,9.135516 26.842678,10.24465"
       id="path1087"
       sodipodi:nodetypes="cccccscccccccccccccccccccccscsccccccccccscccccscsccccscccccsccccccccccscccscccccscccccccccccsccccsccccccccccccccscc" />
  </g>
</svg>
