<?xml version="1.0" encoding="UTF-8" standalone="no"?>
<!-- Created with Inkscape (http://www.inkscape.org/) -->

<svg
   width="25.493443mm"
   height="39.146603mm"
   viewBox="0 0 25.493443 39.146603"
   version="1.1"
   id="svg5"
   inkscape:version="1.1.1 (c3084ef, 2021-09-22)"
   sodipodi:docname="teutonia.svg"
   xmlns:inkscape="http://www.inkscape.org/namespaces/inkscape"
   xmlns:sodipodi="http://sodipodi.sourceforge.net/DTD/sodipodi-0.dtd"
   xmlns="http://www.w3.org/2000/svg"
   xmlns:svg="http://www.w3.org/2000/svg">
  <sodipodi:namedview
     id="namedview7"
     pagecolor="#ffffff"
     bordercolor="#666666"
     borderopacity="1.0"
     inkscape:pageshadow="2"
     inkscape:pageopacity="0.0"
     inkscape:pagecheckerboard="0"
     inkscape:document-units="mm"
     showgrid="false"
     inkscape:zoom="2.5620932"
     inkscape:cx="-37.859669"
     inkscape:cy="125.09303"
     inkscape:window-width="1312"
     inkscape:window-height="969"
     inkscape:window-x="1727"
     inkscape:window-y="211"
     inkscape:window-maximized="0"
     inkscape:current-layer="layer1" />
  <defs
     id="defs2" />
  <g
     inkscape:label="Layer 1"
     inkscape:groupmode="layer"
     id="layer1">
    <path
       style="fill:#000000;stroke:none;stroke-width:0.0846667"
       d="m 0.05548888,30.248994 c 0.192363,0.339429 0.755515,0.364914 1.09667902,0.353907 1.021215,-0.03293 1.928266,-0.741849 2.878667,-0.785622 0.74781,-0.03438 1.643719,0.933027 2.370667,1.194139 0.810006,0.29083 1.760812,0.504105 2.624666,0.505714 0.607568,0.0012 1.2775361,-0.22606 1.8639371,0.02616 0.585809,0.252027 1.389126,1.019344 1.476248,1.687914 0.07874,0.60391 -0.32766,1.49777 -0.424349,2.116667 -0.253153,1.620876 0.536617,3.540856 2.333498,3.784186 1.416558,0.19182 2.025735,-1.55705 2.025312,-2.68352 -4.24e-4,-1.175588 -0.645753,-2.255731 -1.247649,-3.217333 -0.593767,-0.94858 -1.239858,-1.28143 -0.589618,-2.455333 0.443145,-0.800185 1.07171,-1.454743 1.582081,-2.201333 0.276183,-0.404114 0.527982,-0.944457 1.023874,-1.121241 0.559816,-0.199559 1.04394,0.314283 1.524,0.494538 1.317242,0.494623 3.583852,0.03912 3.282952,-1.743964 -0.23402,-1.387009 -2.19592,-1.265089 -3.198285,-0.910759 -0.347726,0.122936 -0.804079,0.505968 -1.185333,0.420709 -1.095841,-0.245025 -1.816439,-2.709249 -2.041822,-3.658616 -0.308441,-1.299802 -0.365252,-2.709417 -0.728557,-3.979333 -0.191516,-0.669459 -0.602234,-1.782317 -0.238929,-2.450422 0.311065,-0.572008 1.117092,-0.507577 1.630511,-0.769959 1.176867,-0.601472 2.266273,-2.006515 2.221823,-3.383618 -0.04174,-1.293622 -0.958681,-2.3482305 -1.967823,-3.0595995 -0.445855,-0.314198 -1.315297,-0.396325 -1.472946,-1.005671 -0.209127,-0.808227 0.07654,-1.951651 0.36051,-2.708063 0.13352,-0.35543 0.507662,-0.968586 0.237575,-1.325625 -0.453221,-0.598932 -1.830832,-0.426805 -2.403009,-0.141732 -1.286934,0.641265 -2.145454,1.731771 -3.1182741,2.744977 -0.377105,0.392684 -0.623824,0.95758 -1.115399,1.225635 -0.584962,0.319193 -1.393528,0.410294 -2.031661,0.62721 -0.206248,0.0701 -0.510709,0.302091 -0.735415,0.220557 -0.189484,-0.06883 -0.236304,-0.358733 -0.272034,-0.529505 -0.36736,-1.757511 1.70197,-4.320032 3.208782,-4.901946 2.5322961,-0.9779 5.0653531,-0.220302 7.6200011,0.08661 1.235371,0.148336 1.828801,0.09162 3.059011,0.175776 1.33714,0.09153 3.250094,-0.600889 4.306904,-1.373134 0.30717,-0.224366 1.03268,-0.73084196 0.82237,-1.19549296 -0.16392,-0.362288 -0.59851,-0.367199 -0.90695,-0.225128 -1.26517,0.58276 -1.976168,0.99868196 -3.398308,1.18994396 -0.56956,0.07654 -1.200782,-0.0022 -1.76636,-0.04187 -3.324099,-0.233002 -7.970775,-1.72482896 -10.8373341,0.769959 -1.254845,1.092115 -2.432135,2.450507 -2.755003,4.133088 -0.190415,0.992378 0.07102,2.102273 -0.248835,3.047999 -0.376733,1.1138755 -1.133797,2.1126035 -1.501394,3.2173335 -0.234493,0.704681 -0.183685,1.552702 -0.14804,2.286 0.06026,1.239435 1.387187,2.296329 1.327429,3.471333 -0.02752,0.54102 -0.479332,1.064006 -0.728362,1.524 -0.502378,0.928031 -0.943288,1.919647 -1.157046,2.963333 -0.181932,0.888407 -0.450376,1.970108 -0.315536,2.878666 0.140572,0.947251 0.772711,2.024634 0.767749,2.963333 -0.0061,1.150451 -1.757578,1.020064 -2.52229602,1.111673 -0.306798,0.03675 -0.812555,0.252476 -0.588679,0.647446 M 4.1396759,24.849217 c -0.17946,-1.521037 0.364862,-3.919982 1.133526,-5.240443 0.370874,-0.637201 1.767958,-0.536363 1.910876,0.250021 0.110828,0.609769 -0.286766,1.385062 -0.475234,1.942422 -0.395394,1.169162 -0.583777,2.389632 -1.002623,3.556 -0.141732,0.394547 -0.28227,1.524084 -0.835381,1.552617 -0.788975,0.04072 -0.673819,-1.57463 -0.731164,-2.060617 m 1.016,-10.498666 c -0.08346,-0.70739 -0.267462,-2.439839 0.411353,-2.91067 0.617051,-0.42799 1.842855,1.621705 1.919563,2.14867 0.146304,1.006179 0.316992,2.723812 -0.647446,3.287183 -0.33655,0.196596 -0.69342,0.51452 -1.081617,0.205994 -0.672711,-0.534669 -0.512741,-1.97595 -0.601853,-2.731177 m 3.108494,5.418667 c 0.989669,-0.0082 3.1876161,-0.87266 2.0811921,-2.186602 -0.4509351,-0.535601 -1.4922501,-0.635423 -1.8248211,-1.148757 -0.320633,-0.495046 -0.203962,-1.991275 0.505714,-2.06739 0.505968,-0.05427 1.0636671,0.308694 1.5239161,0.47862 0.619675,0.228854 1.434338,0.08441 1.903814,0.633984 0.51579,0.603843 0.444754,1.928283 0.551604,2.681478 0.21319,1.50368 0.626364,3.260936 1.221401,4.656666 0.370925,0.869865 0.921343,1.735413 1.422485,2.54 0.274997,0.441537 0.641265,0.882819 0.554059,1.439333 -0.08534,0.544322 -0.600118,0.947589 -0.92854,1.354667 -0.664718,0.823891 -1.090422,1.945978 -1.818132,2.68969 -0.526881,0.538395 -1.003215,-0.209127 -0.918464,-0.742357 0.08018,-0.504783 0.415036,-0.888154 0.589111,-1.354667 0.480229,-1.286425 0.342138,-3.657599 -1.561338,-3.512142 -1.6602291,0.126831 -1.9742581,2.202857 -1.7386311,3.512142 0.08475,0.471085 0.4832781,1.335193 0.01837,1.726946 -0.291423,0.245533 -0.901107,0.149352 -1.243076,0.07933 -0.955548,-0.19558 -3.107267,-0.876808 -3.197733,-2.060279 -0.05475,-0.716364 0.704215,-1.769787 0.960501,-2.455333 0.738378,-1.975188 1.730502,-4.139099 1.898565,-6.265332 m 0.16933,-11.0066265 -0.846667,2.9633335 c -0.555583,-0.215227 -1.344845,-0.939211 -1.278721,-1.60867 0.08848,-0.8950125 1.325711,-1.5903795 2.125388,-1.3546675 m -1.806623,9.4570125 c -0.12827,-0.315299 0.377783,-0.518076 0.472948,-0.203031 0.08391,0.277537 -0.354076,0.495131 -0.472948,0.203031 m 1.721921,-0.821011 c 0.199813,0.0043 0.402929,0.0023 0.592751,0.07569 1.5499091,0.598932 -0.402166,1.941745 -0.650409,1.019979 -0.09237,-0.3429 0.04267,-0.747352 0.05766,-1.095671 M 12.836131,8.7625845 c 0.32258,0.670306 0.04089,1.4866625 -0.01304,2.2013335 -0.06375,0.844127 0.124629,1.896787 -0.1397,2.707724 -0.340953,1.046226 -2.331889,0.372788 -2.9799281,-0.02117 -1.255438,-0.763016 -1.108964,-1.861227 -0.672846,-3.095498 0.139954,-0.395986 0.308186,-1.1689925 0.759121,-1.3015805 1.3505181,-0.397087 0.6942671,2.6378745 1.6940961,2.6628515 0.377105,0.0095 0.551095,-0.493946 0.637709,-0.782998 0.218101,-0.72771 5.93e-4,-1.9086405 0.714587,-2.3706665 m 0.50803,-1.185329 c -0.360088,-0.08966 -0.875369,-0.477351 -1.247394,-0.250444 -0.413512,0.252306 -0.152739,1.712637 -1.035304,1.263734 -0.694775,-0.353398 -0.62103,-1.111165 -0.326898,-1.690623 0.552111,-1.087459 1.435184,-2.307421 2.532549,-2.914819 0.832781,-0.460926 0.901785,0.522393 0.705612,1.052152 -0.123529,0.333756 -0.209804,0.678434 -0.321733,1.016 -0.166286,0.501819 -0.147151,1.019725 -0.306832,1.524 M 10.828632,28.235917 c -0.06773,-0.515027 -0.135974,-1.326726 0.204386,-1.759881 0.663024,-0.843872 1.592072,-0.05715 1.693926,0.743881 0.07239,0.569722 -0.04707,1.392259 -0.440944,1.834812 -0.699855,0.786129 -1.361948,-0.09373 -1.457368,-0.818812 m 2.140538,6.942665 c 3.39e-4,-0.67249 0.437219,-1.298456 0.97028,-0.506366 0.382355,0.568147 0.864193,1.850268 0.82042,2.538368 -0.06164,0.9679 -1.020826,0.73503 -1.446361,0.16594 -0.435017,-0.58188 -0.344678,-1.50399 -0.344339,-2.197942 m 1.161457,-22.182664 c -0.124883,-0.961305 -0.04081,-2.009479 0.09584,-2.963333 0.03971,-0.2773685 -0.02718,-0.7529415 0.184743,-0.9649465 0.824568,-0.824484 2.673265,0.736685 2.801874,1.5576125 0.1651,1.053846 0.03124,2.031746 -0.736346,2.793662 -0.92727,0.920411 -2.148671,1.09584 -2.346114,-0.422995 m 4.430947,13.630996 c -0.132334,-0.955717 2.149513,-1.220131 2.263143,-0.253323 0.12497,1.064176 -2.140546,1.13919 -2.263143,0.253323 M 22.693744,7.9159185 c 0.38015,2.6546395 0.45043,5.3701535 0.63348,8.0433335 0.0677,0.988483 0.0167,1.99517 0.22309,2.963333 0.1618,0.758952 0.0521,1.598083 0.14741,2.370666 0.0334,0.271357 0.0575,0.750486 0.40826,0.797391 0.41013,0.05495 0.56794,-0.390483 0.58191,-0.712724 0.0416,-0.960967 0.0639,-1.916091 0.0875,-2.878666 0.0739,-3.019552 0.35061,-6.035802 0.42334,-9.0593335 0.0221,-0.92185 0.52586,-2.549228 -0.009,-3.371087 -0.4815,-0.739902 -1.93362,-0.636863 -2.38489,0.07036 -0.2811,0.44069 -0.18237,1.279736 -0.11125,1.776729 m 0.34958,18.1186625 c 0.42655,1.656503 2.84125,1.217168 2.39565,-0.508 -0.41038,-1.588516 -2.82922,-1.175935 -2.39565,0.508"
       id="path21"
       sodipodi:nodetypes="csccccccsssccsscsccsscscccccccscccccccsccssssssccssscccsccsccscssccccsccccscscccccccsccccccccccccccccccscccccscccccccccccsccccccsscccccsscccccsccccc" />
  </g>
</svg>
