<?xml version="1.0" encoding="UTF-8" standalone="no"?>
<!-- Created with Inkscape (http://www.inkscape.org/) -->

<svg
   width="34.107372mm"
   height="38.647434mm"
   viewBox="0 0 34.107372 38.647434"
   version="1.1"
   id="svg5"
   inkscape:version="1.1.1 (c3084ef, 2021-09-22)"
   sodipodi:docname="drawing burschenschaft.svg"
   xmlns:inkscape="http://www.inkscape.org/namespaces/inkscape"
   xmlns:sodipodi="http://sodipodi.sourceforge.net/DTD/sodipodi-0.dtd"
   xmlns="http://www.w3.org/2000/svg"
   xmlns:svg="http://www.w3.org/2000/svg">
  <sodipodi:namedview
     id="namedview7"
     pagecolor="#ffffff"
     bordercolor="#666666"
     borderopacity="1.0"
     inkscape:pageshadow="2"
     inkscape:pageopacity="0.0"
     inkscape:pagecheckerboard="0"
     inkscape:document-units="mm"
     showgrid="false"
     inkscape:zoom="1.2810466"
     inkscape:cx="182.66315"
     inkscape:cy="133.87491"
     inkscape:window-width="1312"
     inkscape:window-height="969"
     inkscape:window-x="1706"
     inkscape:window-y="248"
     inkscape:window-maximized="0"
     inkscape:current-layer="layer1" />
  <defs
     id="defs2" />
  <g
     inkscape:label="Layer 1"
     inkscape:groupmode="layer"
     id="layer1">
    <path
       style="fill:#000000;stroke:none;stroke-width:0.0846667"
       d="m 0.01351309,36.068908 c 0.485919,3.89944 6.12199301,2.59521 8.30978001,1.14052 0.680635,-0.45262 1.458807,-1.90556 2.3218989,-1.90723 0.43561,-8.4e-4 0.842433,0.25135 1.27,0.29751 1.027684,0.11095 2.103713,-0.15411 2.963333,-0.73449 0.808821,-0.54608 1.426718,-1.28018 2.05613,-2.01365 0.211582,-0.24646 0.555329,-0.80729 0.903563,-0.85335 0.404029,-0.0533 0.548555,0.82973 0.595122,1.10735 0.160782,0.9575 0.3302,2.69856 1.609852,2.70679 0.72534,0.005 1.130893,-0.43778 1.607397,-0.92879 1.058757,-1.0911 1.698583,-2.89661 2.17043,-4.318 0.169333,-0.51028 0.182795,-1.26932 0.569299,-1.6615 0.841163,-0.85352 3.307419,-1.15764 3.160014,-2.82549 -0.04995,-0.56583 -0.780712,-0.84438 -1.226143,-0.53018 -0.332909,0.23486 -0.464227,0.6681 -0.781304,0.92752 -0.145203,0.11879 -0.31496,0.20599 -0.504359,0.22106 -1.151552,0.0914 -2.11582,-2.04724 -3.121406,-0.77588 -0.639572,0.80873 0.207772,1.99483 0.311827,2.86647 0.113115,0.94793 -0.372025,1.7504 -0.635677,2.62467 -0.131149,0.43493 -0.342138,1.57065 -0.954109,1.57937 -0.507577,0.007 -0.626195,-1.05384 -0.680382,-1.41004 -0.193294,-1.2711 -0.121835,-2.64651 -0.408601,-3.89466 -0.09669,-0.42088 -0.453051,-0.9536 -0.946319,-0.91914 -1.463887,0.10227 -1.028531,1.67216 -1.394291,2.61247 -0.547201,1.40682 -1.764284,2.69697 -2.863257,3.69697 -0.582676,0.53018 -2.023957,1.51258 -2.718732,0.51791 -0.230039,-0.32927 0.02438,-0.69579 0.176784,-0.99755 0.326221,-0.64575 0.487257,-1.41351 0.648377,-2.11666 0.598509,-2.61265 0.480145,-5.39505 0.779865,-8.04334 0.09516,-0.84082 -0.309541,-2.10743 0.630936,-2.61044 2.062311,-1.10312 2.473537,2.44289 4.147651,2.32308 1.673098,-0.11971 1.577086,-2.23409 0.757343,-3.17296 -0.659807,-0.75565 -1.732788,-1.23156 -2.703406,-1.39616 -0.571077,-0.0969 -1.574377,-0.0171 -1.844548,-0.65481 -0.205571,-0.48539 0.179916,-1.13394 0.300566,-1.60071 0.08204,-0.31758 0.09517,-0.71839 0.233934,-1.01236 0.328338,-0.69511 1.392767,-0.51104 2.02201,-0.60841 1.430612,-0.22132 4.05511,-1.040215 4.189476,-2.781893 0.160697,-2.0828003 -1.950805,-2.7340563 -3.632708,-2.2924343 -0.90949,0.238844 -1.695366,0.846074 -2.355088,1.4945363 -0.276522,0.271864 -0.483362,0.761915 -0.865632,0.899414 -0.323766,0.116501 -0.619676,-0.186013 -0.843281,-0.379984 -0.622808,-0.540258 -1.29794,-1.2387583 -1.41351,-2.0921983 -0.278722,-2.058162 3.29328,-3.242818 4.884844,-3.212762 1.989751,0.03759 3.840565,0.805604 5.757334,1.232747 2.107438,0.469731 4.786291,0.564981 6.858,-0.06384 2.204974,-0.66912 4.184311,-2.258737 3.616113,-4.814146 -0.140546,-0.632122 -0.928031,-2.08627198 -1.750144,-1.59452798 -0.745829,0.446024 -0.446786,1.31648198 -0.689864,2.01786098 -0.387435,1.118193 -1.512316,1.755563 -2.615438,1.944455 -2.158154,0.36957 -4.655482,0.115231 -6.797464,-0.338244 -1.196256,-0.253238 -2.382944,-0.617982 -3.616537,-0.671576 -2.336461,-0.101346 -5.160942,0.742273 -6.65878,2.624667 -1.4703209,1.847935 -0.644736,4.205563 0.580221,5.9233653 0.417153,0.584962 1.543812,1.244684 1.442043,2.032 -0.116078,0.89704 -0.4942,1.82592 -0.708491,2.70933 -0.103971,0.42876 -0.122936,0.98163 -0.387181,1.34671 -0.53086,0.73347 -1.7718189,1.03446 -2.4728589,1.6179 -1.75514,1.46041 -3.19422,3.6239 -3.779097,5.84073 -0.558969,2.1187 -0.126492,4.43619 0.877824,6.35 0.385996,0.73541 2.038689,1.94073 1.877314,2.794 -0.08407,0.44439 -0.568621,0.84856 -0.867156,1.16109 -1.082971,1.13385 -3.105175,2.07313 -4.450563,0.7605 -0.763854,-0.74526 0.231488,-1.68954 -0.696933,-2.32291 -1.36443801,-0.93083 -2.39011501,1.02291 -2.24602101,2.17932 m 8.12980601,-7.11184 c -0.170688,-1.79511 0.558969,-4.32706 1.48065,-5.842 0.336974,-0.55381 0.6001179,-1.24029 1.1203939,-1.65659 0.255694,-0.20464 0.638472,-0.23258 0.754973,0.13758 0.246888,0.78427 -0.217932,1.99543 -0.322241,2.78901 -0.250868,1.90754 -0.194564,3.78815 -0.65676,5.67266 -0.147066,0.59987 -0.188383,2.04589 -0.8318499,2.34629 -0.37956,0.1772 -0.723222,-0.37635 -0.859028,-0.65295 -0.394208,-0.8029 -0.60198,-1.90856 -0.686138,-2.794 M 16.041599,11.758371 c -0.234696,-0.853356 2.079498,-2.1342783 2.418588,-1.003046 0.248158,0.827955 -1.096264,1.104815 -1.63432,1.222671 -0.263314,0.05766 -0.686986,0.134112 -0.784268,-0.219625 m 11.242385,24.988037 c 0.330878,1.91276 3.955119,1.64217 3.568616,-0.508 -0.392261,-2.18169 -3.948769,-1.68985 -3.568616,0.508 m 1.962661,-5.41867 c 0.349674,1.75057 1.879431,0.57057 2.271776,-0.42333 0.530522,-1.34366 0.606214,-2.90305 0.824654,-4.318 0.348996,-2.26052 0.728556,-4.52213 1.107863,-6.77333 0.166031,-0.98569 0.974937,-3.04182 0.518583,-3.96367 -0.450003,-0.90924 -3.232996,-0.41614 -3.467608,0.49267 -0.24621,0.95386 -0.15477,2.06688 -0.253068,3.04766 -0.254254,2.53823 -0.472694,5.07552 -0.646007,7.62 -0.08755,1.28575 -0.606721,3.06358 -0.356193,4.318"
       id="path39"
       sodipodi:nodetypes="ccsssccccccsccscccsccsssscccsccccccccscccsssccsccssccsccscscscsscccccccsscccsccccccscccccc" />
  </g>
</svg>
