<svg xmlns="http://www.w3.org/2000/svg" viewBox="0 0 598.4 598.4"><path d="M288.1 0H312v69.7h-23.9zM139.99 45.646l20.697-11.95 34.85 60.36-20.697 11.95zM34.507 159.213l11.95-20.698 60.36 34.85-11.95 20.698zM0 286.3h69.7v23.9H0zm45.685 172.1l-11.95-20.697 60.36-34.85 11.95 20.697zm113.492 105.454l-20.698-11.95 34.85-60.36 20.697 11.95zM286.3 528.7h23.9v69.7h-23.9zm172.11 24.028l-20.696 11.95-34.85-60.36 20.697-11.95zm105.393-113.6l-11.95 20.698-60.36-34.85 11.95-20.698zM528.7 288.1h69.7V312h-69.7zm24.067-148.12l11.95 20.696-60.36 34.85-11.95-20.697zM439.093 34.558l20.697 11.95-34.85 60.36-20.697-11.95z"/><path d="M297.3 0h5.7v30.2h-5.7zm-31.263 1.892l5.668-.596 3.156 30.034-5.667.596zm-30.924 5.044l5.575-1.185 6.28 29.54-5.576 1.185zm-30.128 8.289l5.42-1.76 9.333 28.722-5.42 1.76zm-29.209 11.353l5.207-2.32 12.282 27.59-5.207 2.317zM147.96 41.074l4.936-2.85 15.1 26.153-4.937 2.85zM121.804 58.29l4.61-3.35 17.753 24.43-4.612 3.352zM97.626 78.08l4.236-3.814 20.206 22.442-4.235 3.814zm-22.044 22.245l3.813-4.236 22.442 20.206-3.814 4.236zM56.07 124.826l3.35-4.612 24.433 17.752-3.35 4.61zm-16.887 26.389l2.85-4.936 26.153 15.1-2.85 4.935zM25.09 179.183l2.32-5.207 27.587 12.283-2.32 5.206zm-11.058 29.343l1.76-5.422 28.724 9.332-1.76 5.42zm-7.927 30.309l1.185-5.575 29.54 6.28-1.186 5.574zM1.46 269.743l.597-5.67 30.033 3.157-.595 5.67zM0 295.3h30.2v5.7H0zm1.857 36.988l-.595-5.67 30.034-3.155.595 5.67zm5.103 30.935l-1.185-5.576 29.54-6.278 1.184 5.574zm8.28 30.202l-1.762-5.42L42.2 378.67l1.762 5.422zm11.357 29.137l-2.32-5.207 27.59-12.283 2.317 5.207zm14.36 27.825l-2.85-4.936 26.153-15.1 2.85 4.937zm17.229 26.158l-3.35-4.61 24.432-17.753 3.35 4.61zm19.89 24.247l-3.814-4.235 22.44-20.207 3.815 4.235zm22.254 21.98l-4.235-3.813 20.207-22.443 4.236 3.814zm24.516 19.563l-4.61-3.35 17.75-24.433 4.612 3.35zm26.356 16.875l-4.936-2.85 15.1-26.154 4.936 2.85zm28.018 14.074l-5.206-2.318 12.283-27.588 5.206 2.318zm29.21 11.012l-5.422-1.76 9.33-28.724 5.423 1.76zm30.32 7.969l-5.576-1.185 6.278-29.54 5.576 1.186zm31.005 4.665l-5.67-.596 3.157-30.034 5.67.595zM295.3 568.2h5.7v30.2h-5.7zm37.022 28.335l-5.67.595-3.155-30.034 5.67-.595zm30.878-5.115l-5.576 1.186-6.28-29.54 5.576-1.184zm30.21-8.353l-5.42 1.76-9.332-28.722 5.42-1.76zm29.224-11.327l-5.207 2.32-12.282-27.588 5.207-2.32zm27.734-14.364l-4.937 2.85-15.1-26.153 4.938-2.85zm26.142-17.216l-4.613 3.35-17.75-24.432 4.61-3.35zm24.287-19.938l-4.236 3.814-20.206-22.44 4.236-3.815zm22.036-22.265l-3.814 4.236-22.442-20.207 3.814-4.236zm19.481-24.492l-3.35 4.61-24.432-17.75 3.35-4.61zm16.908-26.343l-2.85 4.936-26.153-15.1 2.85-4.936zm14.115-27.96l-2.318 5.207-27.59-12.284 2.32-5.207zm10.961-29.232l-1.76 5.42-28.724-9.332 1.76-5.42zm7.955-30.353l-1.185 5.575-29.538-6.28 1.185-5.574zm4.665-31.005l-.596 5.668-30.033-3.155.594-5.67zM568.2 297.3h30.2v5.7h-30.2zm28.3-31.298l.596 5.67-30.034 3.155-.596-5.67zm-5.056-30.865l1.185 5.575-29.54 6.278-1.184-5.575zM583.08 205l1.762 5.42-28.723 9.332-1.762-5.42zm-11.41-29.256l2.317 5.207-27.588 12.284-2.32-5.207zm-14.324-27.814l2.85 4.935-26.153 15.1-2.85-4.936zm-17.209-26.15l3.35 4.613-24.432 17.75-3.35-4.61zm-19.845-24.225l3.814 4.235-22.44 20.207-3.815-4.235zM497.963 75.52l4.236 3.814-20.208 22.442-4.236-3.814zm-24.418-19.51l4.61 3.35-17.75 24.432-4.612-3.35zM447.11 39.17l4.936 2.85-15.1 26.154-4.937-2.85zm-27.95-14.042l5.206 2.32-12.283 27.586-5.207-2.318zM389.927 14.06l5.42 1.762-9.33 28.723-5.422-1.76zm-30.339-7.923l5.575 1.185-6.278 29.54-5.575-1.186zm-31.005-4.665l5.67.596-3.157 30.034-5.67-.596z"/></svg>